<?xml version="1.0" encoding="utf-8"?>
<!-- Generator: Adobe Illustrator 26.4.1, SVG Export Plug-In . SVG Version: 6.00 Build 0)  -->
<svg version="1.1" id="Layer_1" xmlns="http://www.w3.org/2000/svg" xmlns:xlink="http://www.w3.org/1999/xlink" x="0px" y="0px"
	 viewBox="0 0 512 512" style="enable-background:new 0 0 512 512;" xml:space="preserve">
<g>
	<path style="fill:#141543;" d="M400.41,512H111.59C49.96,512,0,462.04,0,400.41V111.59C0,49.96,49.96,0,111.59,0h288.82
		C462.04,0,512,49.96,512,111.59v288.82C512,462.04,462.04,512,400.41,512z"/>
	<g>
		
			<ellipse transform="matrix(0.4819 -0.8762 0.8762 0.4819 -185.563 239.9834)" style="fill:#F68C36;" cx="110.16" cy="276.91" rx="1.89" ry="2.28"/>
		
			<ellipse transform="matrix(0.4819 -0.8762 0.8762 0.4819 -185.7446 232.7412)" style="fill:#F68C36;" cx="103.94" cy="273.44" rx="1.89" ry="2.28"/>
		
			<ellipse transform="matrix(0.4819 -0.8762 0.8762 0.4819 -186.016 225.4404)" style="fill:#F68C36;" cx="97.63" cy="270.02" rx="1.89" ry="2.28"/>
		
			<ellipse transform="matrix(0.4819 -0.8762 0.8762 0.4819 -184.9085 261.7044)" style="fill:#F68C36;" cx="128.85" cy="287.22" rx="1.89" ry="2.28"/>
		
			<ellipse transform="matrix(0.4819 -0.8762 0.8762 0.4819 -185.0901 254.4622)" style="fill:#F68C36;" cx="122.64" cy="283.75" rx="1.89" ry="2.28"/>
		
			<ellipse transform="matrix(0.4819 -0.8762 0.8762 0.4819 -185.3615 247.1613)" style="fill:#F68C36;" cx="116.33" cy="280.33" rx="1.89" ry="2.28"/>
		
			<ellipse transform="matrix(0.4819 -0.8762 0.8762 0.4819 -184.1364 283.6683)" style="fill:#F68C36;" cx="147.81" cy="297.55" rx="1.89" ry="2.28"/>
		
			<ellipse transform="matrix(0.4819 -0.8762 0.8762 0.4819 -184.318 276.4261)" style="fill:#F68C36;" cx="141.6" cy="294.08" rx="1.89" ry="2.28"/>
		
			<ellipse transform="matrix(0.4819 -0.8762 0.8762 0.4819 -184.5894 269.1253)" style="fill:#F68C36;" cx="135.29" cy="290.66" rx="1.89" ry="2.28"/>
		
			<ellipse transform="matrix(0.4819 -0.8762 0.8762 0.4819 -183.4818 305.3893)" style="fill:#F68C36;" cx="166.51" cy="307.85" rx="1.89" ry="2.28"/>
		
			<ellipse transform="matrix(0.4819 -0.8762 0.8762 0.4819 -183.6634 298.1471)" style="fill:#F68C36;" cx="160.29" cy="304.39" rx="1.89" ry="2.28"/>
		
			<ellipse transform="matrix(0.4819 -0.8762 0.8762 0.4819 -183.9348 290.8463)" style="fill:#F68C36;" cx="153.98" cy="300.96" rx="1.89" ry="2.28"/>
		
			<ellipse transform="matrix(0.4819 -0.8762 0.8762 0.4819 -194.6294 240.2658)" style="fill:#F68C36;" cx="105.86" cy="284.72" rx="1.89" ry="2.28"/>
		
			<ellipse transform="matrix(0.4819 -0.8762 0.8762 0.4819 -194.811 233.0236)" style="fill:#F68C36;" cx="99.65" cy="281.25" rx="1.89" ry="2.28"/>
		
			<ellipse transform="matrix(0.4819 -0.8762 0.8762 0.4819 -195.0824 225.7227)" style="fill:#F68C36;" cx="93.34" cy="277.83" rx="1.89" ry="2.28"/>
		
			<ellipse transform="matrix(0.4819 -0.8762 0.8762 0.4819 -193.9748 261.9868)" style="fill:#F68C36;" cx="124.56" cy="295.02" rx="1.89" ry="2.28"/>
		
			<ellipse transform="matrix(0.4819 -0.8762 0.8762 0.4819 -194.1564 254.7446)" style="fill:#F68C36;" cx="118.34" cy="291.56" rx="1.89" ry="2.28"/>
		
			<ellipse transform="matrix(0.4819 -0.8762 0.8762 0.4819 -194.4278 247.4437)" style="fill:#F68C36;" cx="112.03" cy="288.14" rx="1.89" ry="2.28"/>
		
			<ellipse transform="matrix(0.4819 -0.8762 0.8762 0.4819 -193.2027 283.9507)" style="fill:#F68C36;" cx="143.52" cy="305.35" rx="1.89" ry="2.28"/>
		
			<ellipse transform="matrix(0.4819 -0.8762 0.8762 0.4819 -193.3843 276.7085)" style="fill:#F68C36;" cx="137.3" cy="301.89" rx="1.89" ry="2.28"/>
		
			<ellipse transform="matrix(0.4819 -0.8762 0.8762 0.4819 -193.6557 269.4077)" style="fill:#F68C36;" cx="130.99" cy="298.47" rx="1.89" ry="2.28"/>
		
			<ellipse transform="matrix(0.4819 -0.8762 0.8762 0.4819 -192.5481 305.6717)" style="fill:#F68C36;" cx="162.21" cy="315.66" rx="1.89" ry="2.28"/>
		
			<ellipse transform="matrix(0.4819 -0.8762 0.8762 0.4819 -192.7297 298.4295)" style="fill:#F68C36;" cx="156" cy="312.19" rx="1.89" ry="2.28"/>
		
			<ellipse transform="matrix(0.4819 -0.8762 0.8762 0.4819 -193.0011 291.1287)" style="fill:#F68C36;" cx="149.69" cy="308.77" rx="1.89" ry="2.28"/>
		
			<ellipse transform="matrix(0.4819 -0.8762 0.8762 0.4819 -204.8648 240.5846)" style="fill:#F68C36;" cx="101.01" cy="293.53" rx="1.89" ry="2.28"/>
		
			<ellipse transform="matrix(0.4819 -0.8762 0.8762 0.4819 -205.0464 233.3424)" style="fill:#F68C36;" cx="94.8" cy="290.07" rx="1.89" ry="2.28"/>
		
			<ellipse transform="matrix(0.4819 -0.8762 0.8762 0.4819 -205.3178 226.0416)" style="fill:#F68C36;" cx="88.49" cy="286.64" rx="1.89" ry="2.28"/>
		
			<ellipse transform="matrix(0.4819 -0.8762 0.8762 0.4819 -204.2102 262.3056)" style="fill:#F68C36;" cx="119.71" cy="303.84" rx="1.89" ry="2.28"/>
		
			<ellipse transform="matrix(0.4819 -0.8762 0.8762 0.4819 -204.3918 255.0634)" style="fill:#F68C36;" cx="113.49" cy="300.37" rx="1.89" ry="2.28"/>
		
			<ellipse transform="matrix(0.4819 -0.8762 0.8762 0.4819 -204.6632 247.7626)" style="fill:#F68C36;" cx="107.18" cy="296.95" rx="1.89" ry="2.28"/>
		
			<ellipse transform="matrix(0.4819 -0.8762 0.8762 0.4819 -203.4381 284.2696)" style="fill:#F68C36;" cx="138.67" cy="314.17" rx="1.89" ry="2.28"/>
		
			<ellipse transform="matrix(0.4819 -0.8762 0.8762 0.4819 -203.6197 277.0273)" style="fill:#F68C36;" cx="132.45" cy="310.7" rx="1.89" ry="2.28"/>
		
			<ellipse transform="matrix(0.4819 -0.8762 0.8762 0.4819 -203.8911 269.7265)" style="fill:#F68C36;" cx="126.14" cy="307.28" rx="1.89" ry="2.28"/>
		
			<ellipse transform="matrix(0.4819 -0.8762 0.8762 0.4819 -202.7835 305.9905)" style="fill:#F68C36;" cx="157.36" cy="324.48" rx="1.89" ry="2.28"/>
		
			<ellipse transform="matrix(0.4819 -0.8762 0.8762 0.4819 -202.9651 298.7483)" style="fill:#F68C36;" cx="151.15" cy="321.01" rx="1.89" ry="2.28"/>
		
			<ellipse transform="matrix(0.4819 -0.8762 0.8762 0.4819 -203.2365 291.4475)" style="fill:#F68C36;" cx="144.84" cy="317.59" rx="1.89" ry="2.28"/>
		
			<ellipse transform="matrix(0.4819 -0.8762 0.8762 0.4819 -213.9311 240.867)" style="fill:#F68C36;" cx="96.72" cy="301.34" rx="1.89" ry="2.28"/>
		
			<ellipse transform="matrix(0.4819 -0.8762 0.8762 0.4819 -214.1127 233.6248)" style="fill:#F68C36;" cx="90.5" cy="297.87" rx="1.89" ry="2.28"/>
		
			<ellipse transform="matrix(0.4819 -0.8762 0.8762 0.4819 -214.3841 226.324)" style="fill:#F68C36;" cx="84.19" cy="294.45" rx="1.89" ry="2.28"/>
		
			<ellipse transform="matrix(0.4819 -0.8762 0.8762 0.4819 -213.2765 262.588)" style="fill:#F68C36;" cx="115.41" cy="311.65" rx="1.89" ry="2.28"/>
		
			<ellipse transform="matrix(0.4819 -0.8762 0.8762 0.4819 -213.4581 255.3458)" style="fill:#F68C36;" cx="109.2" cy="308.18" rx="1.89" ry="2.28"/>
		
			<ellipse transform="matrix(0.4819 -0.8762 0.8762 0.4819 -213.7295 248.045)" style="fill:#F68C36;" cx="102.89" cy="304.76" rx="1.89" ry="2.28"/>
		
			<ellipse transform="matrix(0.4819 -0.8762 0.8762 0.4819 -212.5044 284.5519)" style="fill:#F68C36;" cx="134.37" cy="321.98" rx="1.89" ry="2.28"/>
		
			<ellipse transform="matrix(0.4819 -0.8762 0.8762 0.4819 -212.686 277.3097)" style="fill:#F68C36;" cx="128.16" cy="318.51" rx="1.89" ry="2.28"/>
		
			<ellipse transform="matrix(0.4819 -0.8762 0.8762 0.4819 -212.9574 270.0089)" style="fill:#F68C36;" cx="121.85" cy="315.09" rx="1.89" ry="2.28"/>
		
			<ellipse transform="matrix(0.4819 -0.8762 0.8762 0.4819 -211.8498 306.2729)" style="fill:#F68C36;" cx="153.07" cy="332.28" rx="1.89" ry="2.28"/>
		
			<ellipse transform="matrix(0.4819 -0.8762 0.8762 0.4819 -212.0314 299.0307)" style="fill:#F68C36;" cx="146.85" cy="328.82" rx="1.89" ry="2.28"/>
		
			<ellipse transform="matrix(0.4819 -0.8762 0.8762 0.4819 -212.3028 291.7299)" style="fill:#F68C36;" cx="140.54" cy="325.4" rx="1.89" ry="2.28"/>
		
			<ellipse transform="matrix(0.4819 -0.8762 0.8762 0.4819 -224.0918 241.1835)" style="fill:#F68C36;" cx="91.91" cy="310.09" rx="1.89" ry="2.28"/>
		
			<ellipse transform="matrix(0.4819 -0.8762 0.8762 0.4819 -224.2734 233.9413)" style="fill:#F68C36;" cx="85.69" cy="306.62" rx="1.89" ry="2.28"/>
		
			<ellipse transform="matrix(0.4819 -0.8762 0.8762 0.4819 -224.5448 226.6405)" style="fill:#F68C36;" cx="79.38" cy="303.2" rx="1.89" ry="2.28"/>
		
			<ellipse transform="matrix(0.4819 -0.8762 0.8762 0.4819 -223.4372 262.9045)" style="fill:#F68C36;" cx="110.6" cy="320.4" rx="1.89" ry="2.28"/>
		
			<ellipse transform="matrix(0.4819 -0.8762 0.8762 0.4819 -223.6188 255.6622)" style="fill:#F68C36;" cx="104.39" cy="316.93" rx="1.89" ry="2.28"/>
		
			<ellipse transform="matrix(0.4819 -0.8762 0.8762 0.4819 -223.8902 248.3614)" style="fill:#F68C36;" cx="98.08" cy="313.51" rx="1.89" ry="2.28"/>
		
			<ellipse transform="matrix(0.4819 -0.8762 0.8762 0.4819 -222.6651 284.8684)" style="fill:#F68C36;" cx="129.56" cy="330.73" rx="1.89" ry="2.28"/>
		
			<ellipse transform="matrix(0.4819 -0.8762 0.8762 0.4819 -222.8467 277.6262)" style="fill:#F68C36;" cx="123.35" cy="327.26" rx="1.89" ry="2.28"/>
		
			<ellipse transform="matrix(0.4819 -0.8762 0.8762 0.4819 -223.1181 270.3254)" style="fill:#F68C36;" cx="117.04" cy="323.84" rx="1.89" ry="2.28"/>
		
			<ellipse transform="matrix(0.4819 -0.8762 0.8762 0.4819 -222.0106 306.5894)" style="fill:#F68C36;" cx="148.26" cy="341.03" rx="1.89" ry="2.28"/>
		
			<ellipse transform="matrix(0.4819 -0.8762 0.8762 0.4819 -222.1922 299.3472)" style="fill:#F68C36;" cx="142.04" cy="337.57" rx="1.89" ry="2.28"/>
		
			<ellipse transform="matrix(0.4819 -0.8762 0.8762 0.4819 -222.4635 292.0464)" style="fill:#F68C36;" cx="135.73" cy="334.15" rx="1.89" ry="2.28"/>
		
			<ellipse transform="matrix(0.4819 -0.8762 0.8762 0.4819 -233.1581 241.4659)" style="fill:#F68C36;" cx="87.61" cy="317.9" rx="1.89" ry="2.28"/>
		
			<ellipse transform="matrix(0.4819 -0.8762 0.8762 0.4819 -233.3397 234.2237)" style="fill:#F68C36;" cx="81.4" cy="314.43" rx="1.89" ry="2.28"/>
		
			<ellipse transform="matrix(0.4819 -0.8762 0.8762 0.4819 -233.6111 226.9229)" style="fill:#F68C36;" cx="75.09" cy="311.01" rx="1.89" ry="2.28"/>
		
			<ellipse transform="matrix(0.4819 -0.8762 0.8762 0.4819 -232.5036 263.1869)" style="fill:#F68C36;" cx="106.31" cy="328.21" rx="1.89" ry="2.28"/>
		
			<ellipse transform="matrix(0.4819 -0.8762 0.8762 0.4819 -232.6852 255.9447)" style="fill:#F68C36;" cx="100.09" cy="324.74" rx="1.89" ry="2.28"/>
		
			<ellipse transform="matrix(0.4819 -0.8762 0.8762 0.4819 -232.9565 248.6438)" style="fill:#F68C36;" cx="93.78" cy="321.32" rx="1.89" ry="2.28"/>
		
			<ellipse transform="matrix(0.4819 -0.8762 0.8762 0.4819 -231.7314 285.1508)" style="fill:#F68C36;" cx="125.27" cy="338.54" rx="1.89" ry="2.28"/>
		
			<ellipse transform="matrix(0.4819 -0.8762 0.8762 0.4819 -231.913 277.9086)" style="fill:#F68C36;" cx="119.05" cy="335.07" rx="1.89" ry="2.28"/>
		
			<ellipse transform="matrix(0.4819 -0.8762 0.8762 0.4819 -232.1844 270.6078)" style="fill:#F68C36;" cx="112.74" cy="331.65" rx="1.89" ry="2.28"/>
		
			<ellipse transform="matrix(0.4819 -0.8762 0.8762 0.4819 -231.0769 306.8718)" style="fill:#F68C36;" cx="143.96" cy="348.84" rx="1.89" ry="2.28"/>
		
			<ellipse transform="matrix(0.4819 -0.8762 0.8762 0.4819 -231.2585 299.6296)" style="fill:#F68C36;" cx="137.75" cy="345.37" rx="1.89" ry="2.28"/>
		
			<ellipse transform="matrix(0.4819 -0.8762 0.8762 0.4819 -231.5298 292.3288)" style="fill:#F68C36;" cx="131.44" cy="341.95" rx="1.89" ry="2.28"/>
		
			<ellipse transform="matrix(0.4819 -0.8762 0.8762 0.4819 -243.3936 241.7847)" style="fill:#F68C36;" cx="82.76" cy="326.71" rx="1.89" ry="2.28"/>
		
			<ellipse transform="matrix(0.4819 -0.8762 0.8762 0.4819 -243.5751 234.5425)" style="fill:#F68C36;" cx="76.55" cy="323.25" rx="1.89" ry="2.28"/>
		
			<ellipse transform="matrix(0.4819 -0.8762 0.8762 0.4819 -243.8465 227.2417)" style="fill:#F68C36;" cx="70.24" cy="319.83" rx="1.89" ry="2.28"/>
		
			<ellipse transform="matrix(0.4819 -0.8762 0.8762 0.4819 -242.739 263.5057)" style="fill:#F68C36;" cx="101.46" cy="337.02" rx="1.89" ry="2.28"/>
		
			<ellipse transform="matrix(0.4819 -0.8762 0.8762 0.4819 -242.9206 256.2635)" style="fill:#F68C36;" cx="95.24" cy="333.55" rx="1.89" ry="2.28"/>
		
			<ellipse transform="matrix(0.4819 -0.8762 0.8762 0.4819 -243.192 248.9626)" style="fill:#F68C36;" cx="88.93" cy="330.13" rx="1.89" ry="2.28"/>
		
			<ellipse transform="matrix(0.4819 -0.8762 0.8762 0.4819 -241.9669 285.4696)" style="fill:#F68C36;" cx="120.42" cy="347.35" rx="1.89" ry="2.28"/>
		
			<ellipse transform="matrix(0.4819 -0.8762 0.8762 0.4819 -242.1485 278.2274)" style="fill:#F68C36;" cx="114.2" cy="343.88" rx="1.89" ry="2.28"/>
		
			<ellipse transform="matrix(0.4819 -0.8762 0.8762 0.4819 -242.4198 270.9266)" style="fill:#F68C36;" cx="107.89" cy="340.46" rx="1.89" ry="2.28"/>
		
			<ellipse transform="matrix(0.4819 -0.8762 0.8762 0.4819 -241.3123 307.1906)" style="fill:#F68C36;" cx="139.11" cy="357.66" rx="1.89" ry="2.28"/>
		
			<ellipse transform="matrix(0.4819 -0.8762 0.8762 0.4819 -241.4939 299.9484)" style="fill:#F68C36;" cx="132.9" cy="354.19" rx="1.89" ry="2.28"/>
		
			<ellipse transform="matrix(0.4819 -0.8762 0.8762 0.4819 -241.7653 292.6476)" style="fill:#F68C36;" cx="126.59" cy="350.77" rx="1.89" ry="2.28"/>
		
			<ellipse transform="matrix(0.4819 -0.8762 0.8762 0.4819 -252.4599 242.0671)" style="fill:#F68C36;" cx="78.47" cy="334.52" rx="1.89" ry="2.28"/>
		
			<ellipse transform="matrix(0.4819 -0.8762 0.8762 0.4819 -252.6414 234.8249)" style="fill:#F68C36;" cx="72.25" cy="331.05" rx="1.89" ry="2.28"/>
		
			<ellipse transform="matrix(0.4819 -0.8762 0.8762 0.4819 -252.9128 227.5241)" style="fill:#F68C36;" cx="65.95" cy="327.63" rx="1.89" ry="2.28"/>
		
			<ellipse transform="matrix(0.4819 -0.8762 0.8762 0.4819 -251.8053 263.7881)" style="fill:#F68C36;" cx="97.17" cy="344.83" rx="1.89" ry="2.28"/>
		
			<ellipse transform="matrix(0.4819 -0.8762 0.8762 0.4819 -251.9869 256.5459)" style="fill:#F68C36;" cx="90.95" cy="341.36" rx="1.89" ry="2.28"/>
		
			<ellipse transform="matrix(0.4819 -0.8762 0.8762 0.4819 -252.2583 249.2451)" style="fill:#F68C36;" cx="84.64" cy="337.94" rx="1.89" ry="2.28"/>
		
			<ellipse transform="matrix(0.4819 -0.8762 0.8762 0.4819 -251.0332 285.752)" style="fill:#F68C36;" cx="116.12" cy="355.16" rx="1.89" ry="2.28"/>
		
			<ellipse transform="matrix(0.4819 -0.8762 0.8762 0.4819 -251.2148 278.5098)" style="fill:#F68C36;" cx="109.91" cy="351.69" rx="1.89" ry="2.28"/>
		
			<ellipse transform="matrix(0.4819 -0.8762 0.8762 0.4819 -251.4862 271.209)" style="fill:#F68C36;" cx="103.6" cy="348.27" rx="1.89" ry="2.28"/>
		
			<ellipse transform="matrix(0.4819 -0.8762 0.8762 0.4819 -250.3786 307.473)" style="fill:#F68C36;" cx="134.82" cy="365.46" rx="1.89" ry="2.28"/>
		
			<ellipse transform="matrix(0.4819 -0.8762 0.8762 0.4819 -250.5602 300.2308)" style="fill:#F68C36;" cx="128.6" cy="362" rx="1.89" ry="2.28"/>
		
			<ellipse transform="matrix(0.4819 -0.8762 0.8762 0.4819 -250.8316 292.93)" style="fill:#F68C36;" cx="122.3" cy="358.58" rx="1.89" ry="2.28"/>
		
			<ellipse transform="matrix(0.4819 -0.8762 0.8762 0.4819 -262.2571 242.3723)" style="fill:#F68C36;" cx="73.83" cy="342.96" rx="1.89" ry="2.28"/>
		
			<ellipse transform="matrix(0.4819 -0.8762 0.8762 0.4819 -262.4387 235.13)" style="fill:#F68C36;" cx="67.61" cy="339.49" rx="1.89" ry="2.28"/>
		
			<ellipse transform="matrix(0.4819 -0.8762 0.8762 0.4819 -262.7101 227.8292)" style="fill:#F68C36;" cx="61.3" cy="336.07" rx="1.89" ry="2.28"/>
		
			<ellipse transform="matrix(0.4819 -0.8762 0.8762 0.4819 -261.6025 264.0933)" style="fill:#F68C36;" cx="92.52" cy="353.27" rx="1.89" ry="2.28"/>
		
			<ellipse transform="matrix(0.4819 -0.8762 0.8762 0.4819 -261.7841 256.851)" style="fill:#F68C36;" cx="86.31" cy="349.8" rx="1.89" ry="2.28"/>
		
			<ellipse transform="matrix(0.4819 -0.8762 0.8762 0.4819 -262.0555 249.5502)" style="fill:#F68C36;" cx="80" cy="346.38" rx="1.89" ry="2.28"/>
		
			<ellipse transform="matrix(0.4819 -0.8762 0.8762 0.4819 -260.8304 286.0572)" style="fill:#F68C36;" cx="111.48" cy="363.6" rx="1.89" ry="2.28"/>
		
			<ellipse transform="matrix(0.4819 -0.8762 0.8762 0.4819 -261.012 278.815)" style="fill:#F68C36;" cx="105.27" cy="360.13" rx="1.89" ry="2.28"/>
		
			<ellipse transform="matrix(0.4819 -0.8762 0.8762 0.4819 -261.2834 271.5141)" style="fill:#F68C36;" cx="98.96" cy="356.71" rx="1.89" ry="2.28"/>
		
			<ellipse transform="matrix(0.4819 -0.8762 0.8762 0.4819 -260.1758 307.7782)" style="fill:#F68C36;" cx="130.18" cy="373.9" rx="1.89" ry="2.28"/>
		
			<ellipse transform="matrix(0.4819 -0.8762 0.8762 0.4819 -260.3574 300.5359)" style="fill:#F68C36;" cx="123.96" cy="370.43" rx="1.89" ry="2.28"/>
		
			<ellipse transform="matrix(0.4819 -0.8762 0.8762 0.4819 -260.6288 293.2351)" style="fill:#F68C36;" cx="117.65" cy="367.01" rx="1.89" ry="2.28"/>
		
			<ellipse transform="matrix(0.4819 -0.8762 0.8762 0.4819 -271.3234 242.6547)" style="fill:#F68C36;" cx="69.54" cy="350.77" rx="1.89" ry="2.28"/>
		
			<ellipse transform="matrix(0.4819 -0.8762 0.8762 0.4819 -271.505 235.4124)" style="fill:#F68C36;" cx="63.32" cy="347.3" rx="1.89" ry="2.28"/>
		
			<ellipse transform="matrix(0.4819 -0.8762 0.8762 0.4819 -271.7764 228.1116)" style="fill:#F68C36;" cx="57.01" cy="343.88" rx="1.89" ry="2.28"/>
		
			<ellipse transform="matrix(0.4819 -0.8762 0.8762 0.4819 -270.6688 264.3757)" style="fill:#F68C36;" cx="88.23" cy="361.07" rx="1.89" ry="2.28"/>
		
			<ellipse transform="matrix(0.4819 -0.8762 0.8762 0.4819 -270.8504 257.1334)" style="fill:#F68C36;" cx="82.02" cy="357.61" rx="1.89" ry="2.28"/>
		
			<ellipse transform="matrix(0.4819 -0.8762 0.8762 0.4819 -271.1218 249.8326)" style="fill:#F68C36;" cx="75.71" cy="354.19" rx="1.89" ry="2.28"/>
		
			<ellipse transform="matrix(0.4819 -0.8762 0.8762 0.4819 -269.8967 286.3396)" style="fill:#F68C36;" cx="107.19" cy="371.4" rx="1.89" ry="2.28"/>
		
			<ellipse transform="matrix(0.4819 -0.8762 0.8762 0.4819 -270.0783 279.0974)" style="fill:#F68C36;" cx="100.97" cy="367.94" rx="1.89" ry="2.28"/>
		
			<ellipse transform="matrix(0.4819 -0.8762 0.8762 0.4819 -270.3497 271.7965)" style="fill:#F68C36;" cx="94.67" cy="364.51" rx="1.89" ry="2.28"/>
		
			<ellipse transform="matrix(0.4819 -0.8762 0.8762 0.4819 -269.2421 308.0606)" style="fill:#F68C36;" cx="125.88" cy="381.71" rx="1.89" ry="2.28"/>
		
			<ellipse transform="matrix(0.4819 -0.8762 0.8762 0.4819 -269.4237 300.8183)" style="fill:#F68C36;" cx="119.67" cy="378.24" rx="1.89" ry="2.28"/>
		
			<ellipse transform="matrix(0.4819 -0.8762 0.8762 0.4819 -269.6951 293.5175)" style="fill:#F68C36;" cx="113.36" cy="374.82" rx="1.89" ry="2.28"/>
		
			<ellipse transform="matrix(0.4819 -0.8762 0.8762 0.4819 -281.5588 242.9735)" style="fill:#F68C36;" cx="64.69" cy="359.58" rx="1.89" ry="2.28"/>
		
			<ellipse transform="matrix(0.4819 -0.8762 0.8762 0.4819 -281.7404 235.7313)" style="fill:#F68C36;" cx="58.47" cy="356.11" rx="1.89" ry="2.28"/>
		
			<ellipse transform="matrix(0.4819 -0.8762 0.8762 0.4819 -282.0118 228.4304)" style="fill:#F68C36;" cx="52.16" cy="352.69" rx="1.89" ry="2.28"/>
		
			<ellipse transform="matrix(0.4819 -0.8762 0.8762 0.4819 -280.9042 264.6945)" style="fill:#F68C36;" cx="83.38" cy="369.89" rx="1.89" ry="2.28"/>
		
			<ellipse transform="matrix(0.4819 -0.8762 0.8762 0.4819 -281.0858 257.4522)" style="fill:#F68C36;" cx="77.17" cy="366.42" rx="1.89" ry="2.28"/>
		
			<ellipse transform="matrix(0.4819 -0.8762 0.8762 0.4819 -281.3572 250.1514)" style="fill:#F68C36;" cx="70.86" cy="363" rx="1.89" ry="2.28"/>
		
			<ellipse transform="matrix(0.4819 -0.8762 0.8762 0.4819 -280.1321 286.6584)" style="fill:#F68C36;" cx="102.34" cy="380.22" rx="1.89" ry="2.28"/>
		
			<ellipse transform="matrix(0.4819 -0.8762 0.8762 0.4819 -280.3137 279.4162)" style="fill:#F68C36;" cx="96.13" cy="376.75" rx="1.89" ry="2.28"/>
		
			<ellipse transform="matrix(0.4819 -0.8762 0.8762 0.4819 -280.5851 272.1154)" style="fill:#F68C36;" cx="89.82" cy="373.33" rx="1.89" ry="2.28"/>
		
			<ellipse transform="matrix(0.4819 -0.8762 0.8762 0.4819 -279.4775 308.3794)" style="fill:#F68C36;" cx="121.04" cy="390.52" rx="1.89" ry="2.28"/>
		
			<ellipse transform="matrix(0.4819 -0.8762 0.8762 0.4819 -279.6591 301.1371)" style="fill:#F68C36;" cx="114.82" cy="387.06" rx="1.89" ry="2.28"/>
		
			<ellipse transform="matrix(0.4819 -0.8762 0.8762 0.4819 -279.9305 293.8363)" style="fill:#F68C36;" cx="108.51" cy="383.64" rx="1.89" ry="2.28"/>
		
			<ellipse transform="matrix(0.4819 -0.8762 0.8762 0.4819 -290.6251 243.2559)" style="fill:#F68C36;" cx="60.39" cy="367.39" rx="1.89" ry="2.28"/>
		
			<ellipse transform="matrix(0.4819 -0.8762 0.8762 0.4819 -290.8067 236.0137)" style="fill:#F68C36;" cx="54.18" cy="363.92" rx="1.89" ry="2.28"/>
		
			<ellipse transform="matrix(0.4819 -0.8762 0.8762 0.4819 -291.0781 228.7128)" style="fill:#F68C36;" cx="47.87" cy="360.5" rx="1.89" ry="2.28"/>
		
			<ellipse transform="matrix(0.4819 -0.8762 0.8762 0.4819 -289.9706 264.9769)" style="fill:#F68C36;" cx="79.09" cy="377.7" rx="1.89" ry="2.28"/>
		
			<ellipse transform="matrix(0.4819 -0.8762 0.8762 0.4819 -290.1521 257.7346)" style="fill:#F68C36;" cx="72.87" cy="374.23" rx="1.89" ry="2.28"/>
		
			<ellipse transform="matrix(0.4819 -0.8762 0.8762 0.4819 -290.4235 250.4338)" style="fill:#F68C36;" cx="66.56" cy="370.81" rx="1.89" ry="2.28"/>
		
			<ellipse transform="matrix(0.4819 -0.8762 0.8762 0.4819 -289.1984 286.9408)" style="fill:#F68C36;" cx="98.05" cy="388.03" rx="1.89" ry="2.28"/>
		
			<ellipse transform="matrix(0.4819 -0.8762 0.8762 0.4819 -289.38 279.6986)" style="fill:#F68C36;" cx="91.83" cy="384.56" rx="1.89" ry="2.28"/>
		
			<ellipse transform="matrix(0.4819 -0.8762 0.8762 0.4819 -289.6514 272.3978)" style="fill:#F68C36;" cx="85.52" cy="381.14" rx="1.89" ry="2.28"/>
		
			<ellipse transform="matrix(0.4819 -0.8762 0.8762 0.4819 -288.5439 308.6618)" style="fill:#F68C36;" cx="116.74" cy="398.33" rx="1.89" ry="2.28"/>
		
			<ellipse transform="matrix(0.4819 -0.8762 0.8762 0.4819 -288.7255 301.4196)" style="fill:#F68C36;" cx="110.53" cy="394.87" rx="1.89" ry="2.28"/>
		
			<ellipse transform="matrix(0.4819 -0.8762 0.8762 0.4819 -288.9969 294.1187)" style="fill:#F68C36;" cx="104.22" cy="391.44" rx="1.89" ry="2.28"/>
		
			<ellipse transform="matrix(0.4819 -0.8762 0.8762 0.4819 -300.7858 243.5724)" style="fill:#F68C36;" cx="55.58" cy="376.14" rx="1.89" ry="2.28"/>
		
			<ellipse transform="matrix(0.4819 -0.8762 0.8762 0.4819 -300.9674 236.3301)" style="fill:#F68C36;" cx="49.36" cy="372.67" rx="1.89" ry="2.28"/>
		
			<ellipse transform="matrix(0.4819 -0.8762 0.8762 0.4819 -301.2388 229.0293)" style="fill:#F68C36;" cx="43.06" cy="369.25" rx="1.89" ry="2.28"/>
		
			<ellipse transform="matrix(0.4819 -0.8762 0.8762 0.4819 -300.1313 265.2934)" style="fill:#F68C36;" cx="74.28" cy="386.45" rx="1.89" ry="2.28"/>
		
			<ellipse transform="matrix(0.4819 -0.8762 0.8762 0.4819 -300.3129 258.0511)" style="fill:#F68C36;" cx="68.06" cy="382.98" rx="1.89" ry="2.28"/>
		
			<ellipse transform="matrix(0.4819 -0.8762 0.8762 0.4819 -300.5843 250.7503)" style="fill:#F68C36;" cx="61.75" cy="379.56" rx="1.89" ry="2.28"/>
		
			<ellipse transform="matrix(0.4819 -0.8762 0.8762 0.4819 -299.3592 287.2573)" style="fill:#F68C36;" cx="93.23" cy="396.78" rx="1.89" ry="2.28"/>
		
			<ellipse transform="matrix(0.4819 -0.8762 0.8762 0.4819 -299.5407 280.015)" style="fill:#F68C36;" cx="87.02" cy="393.31" rx="1.89" ry="2.28"/>
		
			<ellipse transform="matrix(0.4819 -0.8762 0.8762 0.4819 -299.8121 272.7142)" style="fill:#F68C36;" cx="80.71" cy="389.89" rx="1.89" ry="2.28"/>
		
			<ellipse transform="matrix(0.4819 -0.8762 0.8762 0.4819 -298.7046 308.9783)" style="fill:#F68C36;" cx="111.93" cy="407.08" rx="1.89" ry="2.28"/>
		
			<ellipse transform="matrix(0.4819 -0.8762 0.8762 0.4819 -298.8862 301.7361)" style="fill:#F68C36;" cx="105.71" cy="403.62" rx="1.89" ry="2.28"/>
		
			<ellipse transform="matrix(0.4819 -0.8762 0.8762 0.4819 -299.1576 294.4352)" style="fill:#F68C36;" cx="99.41" cy="400.19" rx="1.89" ry="2.28"/>
		
			<ellipse transform="matrix(0.4819 -0.8762 0.8762 0.4819 -309.8521 243.8548)" style="fill:#F68C36;" cx="51.29" cy="383.95" rx="1.89" ry="2.28"/>
		
			<ellipse transform="matrix(0.4819 -0.8762 0.8762 0.4819 -310.0338 236.6125)" style="fill:#F68C36;" cx="45.07" cy="380.48" rx="1.89" ry="2.28"/>
		
			<ellipse transform="matrix(0.4819 -0.8762 0.8762 0.4819 -310.3051 229.3117)" style="fill:#F68C36;" cx="38.76" cy="377.06" rx="1.89" ry="2.28"/>
		
			<ellipse transform="matrix(0.4819 -0.8762 0.8762 0.4819 -309.1976 265.5758)" style="fill:#F68C36;" cx="69.98" cy="394.26" rx="1.89" ry="2.28"/>
		
			<ellipse transform="matrix(0.4819 -0.8762 0.8762 0.4819 -309.3792 258.3335)" style="fill:#F68C36;" cx="63.77" cy="390.79" rx="1.89" ry="2.28"/>
		
			<ellipse transform="matrix(0.4819 -0.8762 0.8762 0.4819 -309.6506 251.0327)" style="fill:#F68C36;" cx="57.46" cy="387.37" rx="1.89" ry="2.28"/>
		
			<ellipse transform="matrix(0.4819 -0.8762 0.8762 0.4819 -308.4255 287.5397)" style="fill:#F68C36;" cx="88.94" cy="404.58" rx="1.89" ry="2.28"/>
		
			<ellipse transform="matrix(0.4819 -0.8762 0.8762 0.4819 -308.6071 280.2975)" style="fill:#F68C36;" cx="82.73" cy="401.12" rx="1.89" ry="2.28"/>
		
			<ellipse transform="matrix(0.4819 -0.8762 0.8762 0.4819 -308.8784 272.9966)" style="fill:#F68C36;" cx="76.42" cy="397.7" rx="1.89" ry="2.28"/>
		
			<ellipse transform="matrix(0.4819 -0.8762 0.8762 0.4819 -307.7709 309.2607)" style="fill:#F68C36;" cx="107.64" cy="414.89" rx="1.89" ry="2.28"/>
		
			<ellipse transform="matrix(0.4819 -0.8762 0.8762 0.4819 -307.9525 302.0184)" style="fill:#F68C36;" cx="101.42" cy="411.42" rx="1.89" ry="2.28"/>
		
			<ellipse transform="matrix(0.4819 -0.8762 0.8762 0.4819 -308.2239 294.7176)" style="fill:#F68C36;" cx="95.11" cy="408" rx="1.89" ry="2.28"/>
		
			<ellipse transform="matrix(0.4819 -0.8762 0.8762 0.4819 -320.0876 244.1736)" style="fill:#F68C36;" cx="46.44" cy="392.76" rx="1.89" ry="2.28"/>
		
			<ellipse transform="matrix(0.4819 -0.8762 0.8762 0.4819 -320.2692 236.9314)" style="fill:#F68C36;" cx="40.22" cy="389.3" rx="1.89" ry="2.28"/>
		
			<ellipse transform="matrix(0.4819 -0.8762 0.8762 0.4819 -320.5406 229.6305)" style="fill:#F68C36;" cx="33.91" cy="385.87" rx="1.89" ry="2.28"/>
		
			<ellipse transform="matrix(0.4819 -0.8762 0.8762 0.4819 -319.433 265.8946)" style="fill:#F68C36;" cx="65.13" cy="403.07" rx="1.89" ry="2.28"/>
		
			<ellipse transform="matrix(0.4819 -0.8762 0.8762 0.4819 -319.6146 258.6523)" style="fill:#F68C36;" cx="58.92" cy="399.6" rx="1.89" ry="2.28"/>
		
			<ellipse transform="matrix(0.4819 -0.8762 0.8762 0.4819 -319.886 251.3515)" style="fill:#F68C36;" cx="52.61" cy="396.18" rx="1.89" ry="2.28"/>
		
			<ellipse transform="matrix(0.4819 -0.8762 0.8762 0.4819 -318.6609 287.8585)" style="fill:#F68C36;" cx="84.09" cy="413.4" rx="1.89" ry="2.28"/>
		
			<ellipse transform="matrix(0.4819 -0.8762 0.8762 0.4819 -318.8425 280.6163)" style="fill:#F68C36;" cx="77.88" cy="409.93" rx="1.89" ry="2.28"/>
		
			<ellipse transform="matrix(0.4819 -0.8762 0.8762 0.4819 -319.1139 273.3155)" style="fill:#F68C36;" cx="71.57" cy="406.51" rx="1.89" ry="2.28"/>
		
			<ellipse transform="matrix(0.4819 -0.8762 0.8762 0.4819 -318.0063 309.5795)" style="fill:#F68C36;" cx="102.79" cy="423.71" rx="1.89" ry="2.28"/>
		
			<ellipse transform="matrix(0.4819 -0.8762 0.8762 0.4819 -318.1879 302.3372)" style="fill:#F68C36;" cx="96.57" cy="420.24" rx="1.89" ry="2.28"/>
		
			<ellipse transform="matrix(0.4819 -0.8762 0.8762 0.4819 -318.4593 295.0364)" style="fill:#F68C36;" cx="90.26" cy="416.82" rx="1.89" ry="2.28"/>
		
			<ellipse transform="matrix(0.4819 -0.8762 0.8762 0.4819 -329.1539 244.456)" style="fill:#F68C36;" cx="42.14" cy="400.57" rx="1.89" ry="2.28"/>
		
			<ellipse transform="matrix(0.4819 -0.8762 0.8762 0.4819 -329.3355 237.2137)" style="fill:#F68C36;" cx="35.93" cy="397.1" rx="1.89" ry="2.28"/>
		
			<ellipse transform="matrix(0.4819 -0.8762 0.8762 0.4819 -329.6069 229.9129)" style="fill:#F68C36;" cx="29.62" cy="393.68" rx="1.89" ry="2.28"/>
		
			<ellipse transform="matrix(0.4819 -0.8762 0.8762 0.4819 -328.4993 266.177)" style="fill:#F68C36;" cx="60.84" cy="410.88" rx="1.89" ry="2.28"/>
		
			<ellipse transform="matrix(0.4819 -0.8762 0.8762 0.4819 -328.6809 258.9347)" style="fill:#F68C36;" cx="54.62" cy="407.41" rx="1.89" ry="2.28"/>
		
			<ellipse transform="matrix(0.4819 -0.8762 0.8762 0.4819 -328.9523 251.6339)" style="fill:#F68C36;" cx="48.31" cy="403.99" rx="1.89" ry="2.28"/>
		
			<ellipse transform="matrix(0.4819 -0.8762 0.8762 0.4819 -327.7272 288.1409)" style="fill:#F68C36;" cx="79.8" cy="421.21" rx="1.89" ry="2.28"/>
		
			<ellipse transform="matrix(0.4819 -0.8762 0.8762 0.4819 -327.9088 280.8987)" style="fill:#F68C36;" cx="73.58" cy="417.74" rx="1.89" ry="2.28"/>
		
			<ellipse transform="matrix(0.4819 -0.8762 0.8762 0.4819 -328.1802 273.5978)" style="fill:#F68C36;" cx="67.27" cy="414.32" rx="1.89" ry="2.28"/>
		
			<ellipse transform="matrix(0.4819 -0.8762 0.8762 0.4819 -327.0726 309.8619)" style="fill:#F68C36;" cx="98.49" cy="431.51" rx="1.89" ry="2.28"/>
		
			<ellipse transform="matrix(0.4819 -0.8762 0.8762 0.4819 -327.2542 302.6197)" style="fill:#F68C36;" cx="92.28" cy="428.05" rx="1.89" ry="2.28"/>
		
			<ellipse transform="matrix(0.4819 -0.8762 0.8762 0.4819 -327.5256 295.3188)" style="fill:#F68C36;" cx="85.97" cy="424.63" rx="1.89" ry="2.28"/>
		
			<ellipse transform="matrix(0.4819 -0.8762 0.8762 0.4819 -183.0605 319.481)" style="fill:#F68C36;" cx="178.63" cy="314.54" rx="1.89" ry="2.28"/>
		
			<ellipse transform="matrix(0.4819 -0.8762 0.8762 0.4819 -183.2421 312.2388)" style="fill:#F68C36;" cx="172.42" cy="311.07" rx="1.89" ry="2.28"/>
		
			<ellipse transform="matrix(0.4819 -0.8762 0.8762 0.4819 -192.1268 319.7634)" style="fill:#F68C36;" cx="174.34" cy="322.35" rx="1.89" ry="2.28"/>
		
			<ellipse transform="matrix(0.4819 -0.8762 0.8762 0.4819 -192.3084 312.5212)" style="fill:#F68C36;" cx="168.12" cy="318.88" rx="1.89" ry="2.28"/>
		
			<ellipse transform="matrix(0.4819 -0.8762 0.8762 0.4819 -202.3622 320.0822)" style="fill:#F68C36;" cx="169.49" cy="331.17" rx="1.89" ry="2.28"/>
		
			<ellipse transform="matrix(0.4819 -0.8762 0.8762 0.4819 -202.5438 312.84)" style="fill:#F68C36;" cx="163.28" cy="327.7" rx="1.89" ry="2.28"/>
		
			<ellipse transform="matrix(0.4819 -0.8762 0.8762 0.4819 -211.4285 320.3647)" style="fill:#F68C36;" cx="165.2" cy="338.97" rx="1.89" ry="2.28"/>
		
			<ellipse transform="matrix(0.4819 -0.8762 0.8762 0.4819 -211.6101 313.1224)" style="fill:#F68C36;" cx="158.98" cy="335.51" rx="1.89" ry="2.28"/>
		
			<ellipse transform="matrix(0.4819 -0.8762 0.8762 0.4819 -221.5893 320.6812)" style="fill:#F68C36;" cx="160.38" cy="347.72" rx="1.89" ry="2.28"/>
		
			<ellipse transform="matrix(0.4819 -0.8762 0.8762 0.4819 -221.7709 313.4389)" style="fill:#F68C36;" cx="154.17" cy="344.26" rx="1.89" ry="2.28"/>
		
			<ellipse transform="matrix(0.4819 -0.8762 0.8762 0.4819 -230.6556 320.9635)" style="fill:#F68C36;" cx="156.09" cy="355.53" rx="1.89" ry="2.28"/>
		
			<ellipse transform="matrix(0.4819 -0.8762 0.8762 0.4819 -230.8372 313.7213)" style="fill:#F68C36;" cx="149.87" cy="352.06" rx="1.89" ry="2.28"/>
		
			<ellipse transform="matrix(0.4819 -0.8762 0.8762 0.4819 -240.891 321.2823)" style="fill:#F68C36;" cx="151.24" cy="364.35" rx="1.89" ry="2.28"/>
		
			<ellipse transform="matrix(0.4819 -0.8762 0.8762 0.4819 -241.0726 314.0401)" style="fill:#F68C36;" cx="145.03" cy="360.88" rx="1.89" ry="2.28"/>
		
			<ellipse transform="matrix(0.4819 -0.8762 0.8762 0.4819 -249.9573 321.5648)" style="fill:#F68C36;" cx="146.95" cy="372.15" rx="1.89" ry="2.28"/>
		
			<ellipse transform="matrix(0.4819 -0.8762 0.8762 0.4819 -250.1389 314.3225)" style="fill:#F68C36;" cx="140.73" cy="368.69" rx="1.89" ry="2.28"/>
		
			<ellipse transform="matrix(0.4819 -0.8762 0.8762 0.4819 -259.7545 321.8699)" style="fill:#F68C36;" cx="142.31" cy="380.59" rx="1.89" ry="2.28"/>
		
			<ellipse transform="matrix(0.4819 -0.8762 0.8762 0.4819 -259.9361 314.6277)" style="fill:#F68C36;" cx="136.09" cy="377.12" rx="1.89" ry="2.28"/>
		
			<ellipse transform="matrix(0.4819 -0.8762 0.8762 0.4819 -268.8208 322.1523)" style="fill:#F68C36;" cx="138.01" cy="388.4" rx="1.89" ry="2.28"/>
		
			<ellipse transform="matrix(0.4819 -0.8762 0.8762 0.4819 -269.0024 314.9101)" style="fill:#F68C36;" cx="131.8" cy="384.93" rx="1.89" ry="2.28"/>
		
			<ellipse transform="matrix(0.4819 -0.8762 0.8762 0.4819 -279.0563 322.4711)" style="fill:#F68C36;" cx="133.16" cy="397.21" rx="1.89" ry="2.28"/>
		
			<ellipse transform="matrix(0.4819 -0.8762 0.8762 0.4819 -279.2379 315.2289)" style="fill:#F68C36;" cx="126.95" cy="393.75" rx="1.89" ry="2.28"/>
		
			<ellipse transform="matrix(0.4819 -0.8762 0.8762 0.4819 -288.1226 322.7535)" style="fill:#F68C36;" cx="128.87" cy="405.02" rx="1.89" ry="2.28"/>
		
			<ellipse transform="matrix(0.4819 -0.8762 0.8762 0.4819 -288.3042 315.5113)" style="fill:#F68C36;" cx="122.65" cy="401.56" rx="1.89" ry="2.28"/>
		
			<ellipse transform="matrix(0.4819 -0.8762 0.8762 0.4819 -298.2833 323.07)" style="fill:#F68C36;" cx="124.06" cy="413.77" rx="1.89" ry="2.28"/>
		
			<ellipse transform="matrix(0.4819 -0.8762 0.8762 0.4819 -298.4649 315.8278)" style="fill:#F68C36;" cx="117.84" cy="410.31" rx="1.89" ry="2.28"/>
		
			<ellipse transform="matrix(0.4819 -0.8762 0.8762 0.4819 -307.3496 323.3524)" style="fill:#F68C36;" cx="119.76" cy="421.58" rx="1.89" ry="2.28"/>
		
			<ellipse transform="matrix(0.4819 -0.8762 0.8762 0.4819 -307.5312 316.1101)" style="fill:#F68C36;" cx="113.55" cy="418.11" rx="1.89" ry="2.28"/>
		
			<ellipse transform="matrix(0.4819 -0.8762 0.8762 0.4819 -317.585 323.6712)" style="fill:#F68C36;" cx="114.91" cy="430.4" rx="1.89" ry="2.28"/>
		
			<ellipse transform="matrix(0.4819 -0.8762 0.8762 0.4819 -317.7666 316.429)" style="fill:#F68C36;" cx="108.7" cy="426.93" rx="1.89" ry="2.28"/>
		
			<ellipse transform="matrix(0.4819 -0.8762 0.8762 0.4819 -326.6513 323.9536)" style="fill:#F68C36;" cx="110.62" cy="438.2" rx="1.89" ry="2.28"/>
		
			<ellipse transform="matrix(0.4819 -0.8762 0.8762 0.4819 -326.8329 316.7114)" style="fill:#F68C36;" cx="104.4" cy="434.74" rx="1.89" ry="2.28"/>
		
			<ellipse transform="matrix(0.4819 -0.8762 0.8762 0.4819 -282.1288 221.1457)" style="fill:#F68C36;" cx="45.94" cy="349.15" rx="1.89" ry="2.28"/>
		
			<ellipse transform="matrix(0.4819 -0.8762 0.8762 0.4819 -282.5066 213.2511)" style="fill:#F68C36;" cx="39.08" cy="345.52" rx="1.89" ry="2.28"/>
		
			<ellipse transform="matrix(0.4819 -0.8762 0.8762 0.4819 -252.9626 220.2764)" style="fill:#F68C36;" cx="59.79" cy="324.05" rx="1.89" ry="2.28"/>
		
			<ellipse transform="matrix(0.4819 -0.8762 0.8762 0.4819 -253.3405 212.3819)" style="fill:#F68C36;" cx="52.93" cy="320.42" rx="1.89" ry="2.28"/>
		
			<ellipse transform="matrix(0.4819 -0.8762 0.8762 0.4819 -233.791 220.3032)" style="fill:#F68C36;" cx="69.4" cy="307.85" rx="1.89" ry="2.28"/>
		
			<ellipse transform="matrix(0.4819 -0.8762 0.8762 0.4819 -214.4192 219.9061)" style="fill:#F68C36;" cx="78.75" cy="291.27" rx="1.89" ry="2.28"/>
		
			<ellipse transform="matrix(0.4819 -0.8762 0.8762 0.4819 -214.7971 212.0116)" style="fill:#F68C36;" cx="71.89" cy="287.65" rx="1.89" ry="2.28"/>
	</g>
	<g>
		
			<ellipse transform="matrix(0.8743 -0.4854 0.4854 0.8743 -22.1341 123.7695)" style="fill:#F68C36;" cx="227.91" cy="104.62" rx="1.65" ry="1.37"/>
		
			<ellipse transform="matrix(0.8743 -0.4854 0.4854 0.8743 -23.9031 121.8861)" style="fill:#F68C36;" cx="223.39" cy="107.1" rx="1.65" ry="1.37"/>
		
			<ellipse transform="matrix(0.8743 -0.4854 0.4854 0.8743 -25.7099 120.0085)" style="fill:#F68C36;" cx="218.86" cy="109.65" rx="1.65" ry="1.37"/>
		
			<ellipse transform="matrix(0.8743 -0.4854 0.4854 0.8743 -16.7992 129.392)" style="fill:#F68C36;" cx="241.43" cy="97.13" rx="1.65" ry="1.37"/>
		
			<ellipse transform="matrix(0.8743 -0.4854 0.4854 0.8743 -18.5682 127.5086)" style="fill:#F68C36;" cx="236.91" cy="99.61" rx="1.65" ry="1.37"/>
		
			<ellipse transform="matrix(0.8743 -0.4854 0.4854 0.8743 -20.375 125.631)" style="fill:#F68C36;" cx="232.38" cy="102.16" rx="1.65" ry="1.37"/>
		
			<ellipse transform="matrix(0.8743 -0.4854 0.4854 0.8743 -11.3753 135.0511)" style="fill:#F68C36;" cx="255.07" cy="89.49" rx="1.65" ry="1.37"/>
		
			<ellipse transform="matrix(0.8743 -0.4854 0.4854 0.8743 -13.1443 133.1678)" style="fill:#F68C36;" cx="250.55" cy="91.96" rx="1.65" ry="1.37"/>
		
			<ellipse transform="matrix(0.8743 -0.4854 0.4854 0.8743 -14.9511 131.2902)" style="fill:#F68C36;" cx="246.02" cy="94.51" rx="1.65" ry="1.37"/>
		
			<ellipse transform="matrix(0.8743 -0.4854 0.4854 0.8743 -6.0404 140.6736)" style="fill:#F68C36;" cx="268.6" cy="82" rx="1.65" ry="1.37"/>
		
			<ellipse transform="matrix(0.8743 -0.4854 0.4854 0.8743 -7.8094 138.7903)" style="fill:#F68C36;" cx="264.08" cy="84.47" rx="1.65" ry="1.37"/>
		
			<ellipse transform="matrix(0.8743 -0.4854 0.4854 0.8743 -9.6162 136.9127)" style="fill:#F68C36;" cx="259.55" cy="87.02" rx="1.65" ry="1.37"/>
		
			<ellipse transform="matrix(0.8743 -0.4854 0.4854 0.8743 -24.4787 125.9987)" style="fill:#F68C36;" cx="231.04" cy="110.26" rx="1.65" ry="1.37"/>
		
			<ellipse transform="matrix(0.8743 -0.4854 0.4854 0.8743 -26.2477 124.1154)" style="fill:#F68C36;" cx="226.52" cy="112.74" rx="1.65" ry="1.37"/>
		
			<ellipse transform="matrix(0.8743 -0.4854 0.4854 0.8743 -28.0545 122.2378)" style="fill:#F68C36;" cx="221.99" cy="115.29" rx="1.65" ry="1.37"/>
		
			<ellipse transform="matrix(0.8743 -0.4854 0.4854 0.8743 -19.1438 131.6212)" style="fill:#F68C36;" cx="244.57" cy="102.77" rx="1.65" ry="1.37"/>
		
			<ellipse transform="matrix(0.8743 -0.4854 0.4854 0.8743 -20.9128 129.7378)" style="fill:#F68C36;" cx="240.04" cy="105.25" rx="1.65" ry="1.37"/>
		
			<ellipse transform="matrix(0.8743 -0.4854 0.4854 0.8743 -22.7196 127.8602)" style="fill:#F68C36;" cx="235.52" cy="107.8" rx="1.65" ry="1.37"/>
		
			<ellipse transform="matrix(0.8743 -0.4854 0.4854 0.8743 -13.7199 137.2804)" style="fill:#F68C36;" cx="258.2" cy="95.13" rx="1.65" ry="1.37"/>
		
			<ellipse transform="matrix(0.8743 -0.4854 0.4854 0.8743 -15.4889 135.397)" style="fill:#F68C36;" cx="253.68" cy="97.6" rx="1.65" ry="1.37"/>
		
			<ellipse transform="matrix(0.8743 -0.4854 0.4854 0.8743 -17.2958 133.5194)" style="fill:#F68C36;" cx="249.16" cy="100.15" rx="1.65" ry="1.37"/>
		
			<ellipse transform="matrix(0.8743 -0.4854 0.4854 0.8743 -8.385 142.9028)" style="fill:#F68C36;" cx="271.73" cy="87.64" rx="1.65" ry="1.37"/>
		
			<ellipse transform="matrix(0.8743 -0.4854 0.4854 0.8743 -10.154 141.0195)" style="fill:#F68C36;" cx="267.21" cy="90.12" rx="1.65" ry="1.37"/>
		
			<ellipse transform="matrix(0.8743 -0.4854 0.4854 0.8743 -11.9609 139.1419)" style="fill:#F68C36;" cx="262.68" cy="92.67" rx="1.65" ry="1.37"/>
		
			<ellipse transform="matrix(0.8743 -0.4854 0.4854 0.8743 -27.1257 128.5154)" style="fill:#F68C36;" cx="234.58" cy="116.63" rx="1.65" ry="1.37"/>
		
			<ellipse transform="matrix(0.8743 -0.4854 0.4854 0.8743 -28.8947 126.632)" style="fill:#F68C36;" cx="230.06" cy="119.11" rx="1.65" ry="1.37"/>
		
			<ellipse transform="matrix(0.8743 -0.4854 0.4854 0.8743 -30.7015 124.7544)" style="fill:#F68C36;" cx="225.53" cy="121.66" rx="1.65" ry="1.37"/>
		
			<ellipse transform="matrix(0.8743 -0.4854 0.4854 0.8743 -21.7908 134.1379)" style="fill:#F68C36;" cx="248.1" cy="109.14" rx="1.65" ry="1.37"/>
		
			<ellipse transform="matrix(0.8743 -0.4854 0.4854 0.8743 -23.5598 132.2545)" style="fill:#F68C36;" cx="243.58" cy="111.62" rx="1.65" ry="1.37"/>
		
			<ellipse transform="matrix(0.8743 -0.4854 0.4854 0.8743 -25.3666 130.3769)" style="fill:#F68C36;" cx="239.05" cy="114.17" rx="1.65" ry="1.37"/>
		
			<ellipse transform="matrix(0.8743 -0.4854 0.4854 0.8743 -16.3669 139.797)" style="fill:#F68C36;" cx="261.74" cy="101.5" rx="1.65" ry="1.37"/>
		
			<ellipse transform="matrix(0.8743 -0.4854 0.4854 0.8743 -18.1359 137.9137)" style="fill:#F68C36;" cx="257.22" cy="103.97" rx="1.65" ry="1.37"/>
		
			<ellipse transform="matrix(0.8743 -0.4854 0.4854 0.8743 -19.9427 136.0361)" style="fill:#F68C36;" cx="252.69" cy="106.52" rx="1.65" ry="1.37"/>
		
			<ellipse transform="matrix(0.8743 -0.4854 0.4854 0.8743 -11.032 145.4195)" style="fill:#F68C36;" cx="275.26" cy="94.01" rx="1.65" ry="1.37"/>
		
			<ellipse transform="matrix(0.8743 -0.4854 0.4854 0.8743 -12.801 143.5362)" style="fill:#F68C36;" cx="270.74" cy="96.48" rx="1.65" ry="1.37"/>
		
			<ellipse transform="matrix(0.8743 -0.4854 0.4854 0.8743 -14.6078 141.6586)" style="fill:#F68C36;" cx="266.21" cy="99.03" rx="1.65" ry="1.37"/>
		
			<ellipse transform="matrix(0.8743 -0.4854 0.4854 0.8743 -29.4703 130.7446)" style="fill:#F68C36;" cx="237.71" cy="122.27" rx="1.65" ry="1.37"/>
		
			<ellipse transform="matrix(0.8743 -0.4854 0.4854 0.8743 -31.2393 128.8613)" style="fill:#F68C36;" cx="233.19" cy="124.75" rx="1.65" ry="1.37"/>
		
			<ellipse transform="matrix(0.8743 -0.4854 0.4854 0.8743 -33.0461 126.9837)" style="fill:#F68C36;" cx="228.66" cy="127.3" rx="1.65" ry="1.37"/>
		
			<ellipse transform="matrix(0.8743 -0.4854 0.4854 0.8743 -24.1354 136.3671)" style="fill:#F68C36;" cx="251.23" cy="114.78" rx="1.65" ry="1.37"/>
		
			<ellipse transform="matrix(0.8743 -0.4854 0.4854 0.8743 -25.9044 134.4837)" style="fill:#F68C36;" cx="246.71" cy="117.26" rx="1.65" ry="1.37"/>
		
			<ellipse transform="matrix(0.8743 -0.4854 0.4854 0.8743 -27.7112 132.6061)" style="fill:#F68C36;" cx="242.18" cy="119.81" rx="1.65" ry="1.37"/>
		
			<ellipse transform="matrix(0.8743 -0.4854 0.4854 0.8743 -18.7115 142.0263)" style="fill:#F68C36;" cx="264.87" cy="107.14" rx="1.65" ry="1.37"/>
		
			<ellipse transform="matrix(0.8743 -0.4854 0.4854 0.8743 -20.4805 140.1429)" style="fill:#F68C36;" cx="260.35" cy="109.62" rx="1.65" ry="1.37"/>
		
			<ellipse transform="matrix(0.8743 -0.4854 0.4854 0.8743 -22.2874 138.2653)" style="fill:#F68C36;" cx="255.82" cy="112.17" rx="1.65" ry="1.37"/>
		
			<ellipse transform="matrix(0.8743 -0.4854 0.4854 0.8743 -13.3766 147.6487)" style="fill:#F68C36;" cx="278.4" cy="99.65" rx="1.65" ry="1.37"/>
		
			<ellipse transform="matrix(0.8743 -0.4854 0.4854 0.8743 -15.1456 145.7654)" style="fill:#F68C36;" cx="273.88" cy="102.13" rx="1.65" ry="1.37"/>
		
			<ellipse transform="matrix(0.8743 -0.4854 0.4854 0.8743 -16.9525 143.8878)" style="fill:#F68C36;" cx="269.35" cy="104.68" rx="1.65" ry="1.37"/>
		
			<ellipse transform="matrix(0.8743 -0.4854 0.4854 0.8743 -32.0979 133.2429)" style="fill:#F68C36;" cx="241.22" cy="128.6" rx="1.65" ry="1.37"/>
		
			<ellipse transform="matrix(0.8743 -0.4854 0.4854 0.8743 -33.867 131.3596)" style="fill:#F68C36;" cx="236.7" cy="131.07" rx="1.65" ry="1.37"/>
		
			<ellipse transform="matrix(0.8743 -0.4854 0.4854 0.8743 -35.6738 129.482)" style="fill:#F68C36;" cx="232.17" cy="133.62" rx="1.65" ry="1.37"/>
		
			<ellipse transform="matrix(0.8743 -0.4854 0.4854 0.8743 -26.7631 138.8654)" style="fill:#F68C36;" cx="254.74" cy="121.11" rx="1.65" ry="1.37"/>
		
			<ellipse transform="matrix(0.8743 -0.4854 0.4854 0.8743 -28.5321 136.982)" style="fill:#F68C36;" cx="250.22" cy="123.58" rx="1.65" ry="1.37"/>
		
			<ellipse transform="matrix(0.8743 -0.4854 0.4854 0.8743 -30.3389 135.1044)" style="fill:#F68C36;" cx="245.69" cy="126.13" rx="1.65" ry="1.37"/>
		
			<ellipse transform="matrix(0.8743 -0.4854 0.4854 0.8743 -21.3392 144.5246)" style="fill:#F68C36;" cx="268.38" cy="113.46" rx="1.65" ry="1.37"/>
		
			<ellipse transform="matrix(0.8743 -0.4854 0.4854 0.8743 -23.1082 142.6412)" style="fill:#F68C36;" cx="263.86" cy="115.94" rx="1.65" ry="1.37"/>
		
			<ellipse transform="matrix(0.8743 -0.4854 0.4854 0.8743 -24.915 140.7636)" style="fill:#F68C36;" cx="259.33" cy="118.49" rx="1.65" ry="1.37"/>
		
			<ellipse transform="matrix(0.8743 -0.4854 0.4854 0.8743 -16.0043 150.147)" style="fill:#F68C36;" cx="281.91" cy="105.98" rx="1.65" ry="1.37"/>
		
			<ellipse transform="matrix(0.8743 -0.4854 0.4854 0.8743 -17.7733 148.2637)" style="fill:#F68C36;" cx="277.39" cy="108.45" rx="1.65" ry="1.37"/>
		
			<ellipse transform="matrix(0.8743 -0.4854 0.4854 0.8743 -19.5801 146.3861)" style="fill:#F68C36;" cx="272.86" cy="111" rx="1.65" ry="1.37"/>
		
			<ellipse transform="matrix(0.8743 -0.4854 0.4854 0.8743 -34.4426 135.4722)" style="fill:#F68C36;" cx="244.35" cy="134.24" rx="1.65" ry="1.37"/>
		
			<ellipse transform="matrix(0.8743 -0.4854 0.4854 0.8743 -36.2116 133.5888)" style="fill:#F68C36;" cx="239.83" cy="136.71" rx="1.65" ry="1.37"/>
		
			<ellipse transform="matrix(0.8743 -0.4854 0.4854 0.8743 -38.0184 131.7112)" style="fill:#F68C36;" cx="235.3" cy="139.26" rx="1.65" ry="1.37"/>
		
			<ellipse transform="matrix(0.8743 -0.4854 0.4854 0.8743 -29.1077 141.0946)" style="fill:#F68C36;" cx="257.88" cy="126.75" rx="1.65" ry="1.37"/>
		
			<ellipse transform="matrix(0.8743 -0.4854 0.4854 0.8743 -30.8767 139.2113)" style="fill:#F68C36;" cx="253.35" cy="129.22" rx="1.65" ry="1.37"/>
		
			<ellipse transform="matrix(0.8743 -0.4854 0.4854 0.8743 -32.6835 137.3336)" style="fill:#F68C36;" cx="248.83" cy="131.77" rx="1.65" ry="1.37"/>
		
			<ellipse transform="matrix(0.8743 -0.4854 0.4854 0.8743 -23.6838 146.7538)" style="fill:#F68C36;" cx="271.51" cy="119.11" rx="1.65" ry="1.37"/>
		
			<ellipse transform="matrix(0.8743 -0.4854 0.4854 0.8743 -25.4528 144.8704)" style="fill:#F68C36;" cx="266.99" cy="121.58" rx="1.65" ry="1.37"/>
		
			<ellipse transform="matrix(0.8743 -0.4854 0.4854 0.8743 -27.2596 142.9928)" style="fill:#F68C36;" cx="262.46" cy="124.13" rx="1.65" ry="1.37"/>
		
			<ellipse transform="matrix(0.8743 -0.4854 0.4854 0.8743 -18.3489 152.3763)" style="fill:#F68C36;" cx="285.04" cy="111.62" rx="1.65" ry="1.37"/>
		
			<ellipse transform="matrix(0.8743 -0.4854 0.4854 0.8743 -20.1179 150.4929)" style="fill:#F68C36;" cx="280.52" cy="114.09" rx="1.65" ry="1.37"/>
		
			<ellipse transform="matrix(0.8743 -0.4854 0.4854 0.8743 -21.9248 148.6153)" style="fill:#F68C36;" cx="275.99" cy="116.64" rx="1.65" ry="1.37"/>
		
			<ellipse transform="matrix(0.8743 -0.4854 0.4854 0.8743 -37.0896 137.9888)" style="fill:#F68C36;" cx="247.89" cy="140.61" rx="1.65" ry="1.37"/>
		
			<ellipse transform="matrix(0.8743 -0.4854 0.4854 0.8743 -38.8586 136.1055)" style="fill:#F68C36;" cx="243.37" cy="143.08" rx="1.65" ry="1.37"/>
		
			<ellipse transform="matrix(0.8743 -0.4854 0.4854 0.8743 -40.6654 134.2279)" style="fill:#F68C36;" cx="238.84" cy="145.63" rx="1.65" ry="1.37"/>
		
			<ellipse transform="matrix(0.8743 -0.4854 0.4854 0.8743 -31.7547 143.6113)" style="fill:#F68C36;" cx="261.41" cy="133.12" rx="1.65" ry="1.37"/>
		
			<ellipse transform="matrix(0.8743 -0.4854 0.4854 0.8743 -33.5237 141.7279)" style="fill:#F68C36;" cx="256.89" cy="135.59" rx="1.65" ry="1.37"/>
		
			<ellipse transform="matrix(0.8743 -0.4854 0.4854 0.8743 -35.3305 139.8503)" style="fill:#F68C36;" cx="252.36" cy="138.14" rx="1.65" ry="1.37"/>
		
			<ellipse transform="matrix(0.8743 -0.4854 0.4854 0.8743 -26.3308 149.2705)" style="fill:#F68C36;" cx="275.05" cy="125.48" rx="1.65" ry="1.37"/>
		
			<ellipse transform="matrix(0.8743 -0.4854 0.4854 0.8743 -28.0998 147.3871)" style="fill:#F68C36;" cx="270.53" cy="127.95" rx="1.65" ry="1.37"/>
		
			<ellipse transform="matrix(0.8743 -0.4854 0.4854 0.8743 -29.9066 145.5095)" style="fill:#F68C36;" cx="266" cy="130.5" rx="1.65" ry="1.37"/>
		
			<ellipse transform="matrix(0.8743 -0.4854 0.4854 0.8743 -20.9959 154.893)" style="fill:#F68C36;" cx="288.57" cy="117.99" rx="1.65" ry="1.37"/>
		
			<ellipse transform="matrix(0.8743 -0.4854 0.4854 0.8743 -22.7649 153.0096)" style="fill:#F68C36;" cx="284.05" cy="120.46" rx="1.65" ry="1.37"/>
		
			<ellipse transform="matrix(0.8743 -0.4854 0.4854 0.8743 -24.5717 151.132)" style="fill:#F68C36;" cx="279.52" cy="123.01" rx="1.65" ry="1.37"/>
		
			<ellipse transform="matrix(0.8743 -0.4854 0.4854 0.8743 -39.4342 140.218)" style="fill:#F68C36;" cx="251.02" cy="146.25" rx="1.65" ry="1.37"/>
		
			<ellipse transform="matrix(0.8743 -0.4854 0.4854 0.8743 -41.2032 138.3347)" style="fill:#F68C36;" cx="246.5" cy="148.72" rx="1.65" ry="1.37"/>
		
			<ellipse transform="matrix(0.8743 -0.4854 0.4854 0.8743 -43.01 136.4571)" style="fill:#F68C36;" cx="241.97" cy="151.27" rx="1.65" ry="1.37"/>
		
			<ellipse transform="matrix(0.8743 -0.4854 0.4854 0.8743 -34.0993 145.8405)" style="fill:#F68C36;" cx="264.54" cy="138.76" rx="1.65" ry="1.37"/>
		
			<ellipse transform="matrix(0.8743 -0.4854 0.4854 0.8743 -35.8683 143.9572)" style="fill:#F68C36;" cx="260.02" cy="141.23" rx="1.65" ry="1.37"/>
		
			<ellipse transform="matrix(0.8743 -0.4854 0.4854 0.8743 -37.6751 142.0796)" style="fill:#F68C36;" cx="255.49" cy="143.78" rx="1.65" ry="1.37"/>
		
			<ellipse transform="matrix(0.8743 -0.4854 0.4854 0.8743 -28.6754 151.4997)" style="fill:#F68C36;" cx="278.18" cy="131.12" rx="1.65" ry="1.37"/>
		
			<ellipse transform="matrix(0.8743 -0.4854 0.4854 0.8743 -30.4444 149.6163)" style="fill:#F68C36;" cx="273.66" cy="133.59" rx="1.65" ry="1.37"/>
		
			<ellipse transform="matrix(0.8743 -0.4854 0.4854 0.8743 -32.2513 147.7387)" style="fill:#F68C36;" cx="269.13" cy="136.14" rx="1.65" ry="1.37"/>
		
			<ellipse transform="matrix(0.8743 -0.4854 0.4854 0.8743 -23.3405 157.1222)" style="fill:#F68C36;" cx="291.71" cy="123.63" rx="1.65" ry="1.37"/>
		
			<ellipse transform="matrix(0.8743 -0.4854 0.4854 0.8743 -25.1095 155.2388)" style="fill:#F68C36;" cx="287.18" cy="126.1" rx="1.65" ry="1.37"/>
		
			<ellipse transform="matrix(0.8743 -0.4854 0.4854 0.8743 -26.9164 153.3612)" style="fill:#F68C36;" cx="282.66" cy="128.65" rx="1.65" ry="1.37"/>
		
			<ellipse transform="matrix(0.8743 -0.4854 0.4854 0.8743 -41.9678 142.627)" style="fill:#F68C36;" cx="254.4" cy="152.35" rx="1.65" ry="1.37"/>
		
			<ellipse transform="matrix(0.8743 -0.4854 0.4854 0.8743 -43.7369 140.7436)" style="fill:#F68C36;" cx="249.88" cy="154.82" rx="1.65" ry="1.37"/>
		
			<ellipse transform="matrix(0.8743 -0.4854 0.4854 0.8743 -45.5437 138.866)" style="fill:#F68C36;" cx="245.35" cy="157.37" rx="1.65" ry="1.37"/>
		
			<ellipse transform="matrix(0.8743 -0.4854 0.4854 0.8743 -36.6329 148.2495)" style="fill:#F68C36;" cx="267.93" cy="144.86" rx="1.65" ry="1.37"/>
		
			<ellipse transform="matrix(0.8743 -0.4854 0.4854 0.8743 -38.402 146.3661)" style="fill:#F68C36;" cx="263.41" cy="147.33" rx="1.65" ry="1.37"/>
		
			<ellipse transform="matrix(0.8743 -0.4854 0.4854 0.8743 -40.2088 144.4885)" style="fill:#F68C36;" cx="258.88" cy="149.88" rx="1.65" ry="1.37"/>
		
			<ellipse transform="matrix(0.8743 -0.4854 0.4854 0.8743 -31.2091 153.9086)" style="fill:#F68C36;" cx="281.57" cy="137.21" rx="1.65" ry="1.37"/>
		
			<ellipse transform="matrix(0.8743 -0.4854 0.4854 0.8743 -32.9781 152.0253)" style="fill:#F68C36;" cx="277.05" cy="139.69" rx="1.65" ry="1.37"/>
		
			<ellipse transform="matrix(0.8743 -0.4854 0.4854 0.8743 -34.7849 150.1477)" style="fill:#F68C36;" cx="272.52" cy="142.24" rx="1.65" ry="1.37"/>
		
			<ellipse transform="matrix(0.8743 -0.4854 0.4854 0.8743 -25.8742 159.5311)" style="fill:#F68C36;" cx="295.09" cy="129.72" rx="1.65" ry="1.37"/>
		
			<ellipse transform="matrix(0.8743 -0.4854 0.4854 0.8743 -27.6432 157.6477)" style="fill:#F68C36;" cx="290.57" cy="132.2" rx="1.65" ry="1.37"/>
		
			<ellipse transform="matrix(0.8743 -0.4854 0.4854 0.8743 -29.45 155.7701)" style="fill:#F68C36;" cx="286.04" cy="134.75" rx="1.65" ry="1.37"/>
		
			<ellipse transform="matrix(0.8743 -0.4854 0.4854 0.8743 -44.3125 144.8562)" style="fill:#F68C36;" cx="257.54" cy="157.99" rx="1.65" ry="1.37"/>
		
			<ellipse transform="matrix(0.8743 -0.4854 0.4854 0.8743 -46.0815 142.9728)" style="fill:#F68C36;" cx="253.02" cy="160.46" rx="1.65" ry="1.37"/>
		
			<ellipse transform="matrix(0.8743 -0.4854 0.4854 0.8743 -47.8883 141.0952)" style="fill:#F68C36;" cx="248.49" cy="163.01" rx="1.65" ry="1.37"/>
		
			<ellipse transform="matrix(0.8743 -0.4854 0.4854 0.8743 -38.9776 150.4787)" style="fill:#F68C36;" cx="271.06" cy="150.5" rx="1.65" ry="1.37"/>
		
			<ellipse transform="matrix(0.8743 -0.4854 0.4854 0.8743 -40.7466 148.5953)" style="fill:#F68C36;" cx="266.54" cy="152.97" rx="1.65" ry="1.37"/>
		
			<ellipse transform="matrix(0.8743 -0.4854 0.4854 0.8743 -42.5534 146.7177)" style="fill:#F68C36;" cx="262.01" cy="155.52" rx="1.65" ry="1.37"/>
		
			<ellipse transform="matrix(0.8743 -0.4854 0.4854 0.8743 -33.5537 156.1378)" style="fill:#F68C36;" cx="284.7" cy="142.86" rx="1.65" ry="1.37"/>
		
			<ellipse transform="matrix(0.8743 -0.4854 0.4854 0.8743 -35.3227 154.2545)" style="fill:#F68C36;" cx="280.18" cy="145.33" rx="1.65" ry="1.37"/>
		
			<ellipse transform="matrix(0.8743 -0.4854 0.4854 0.8743 -37.1295 152.3769)" style="fill:#F68C36;" cx="275.65" cy="147.88" rx="1.65" ry="1.37"/>
		
			<ellipse transform="matrix(0.8743 -0.4854 0.4854 0.8743 -28.2188 161.7603)" style="fill:#F68C36;" cx="298.22" cy="135.37" rx="1.65" ry="1.37"/>
		
			<ellipse transform="matrix(0.8743 -0.4854 0.4854 0.8743 -29.9878 159.877)" style="fill:#F68C36;" cx="293.7" cy="137.84" rx="1.65" ry="1.37"/>
		
			<ellipse transform="matrix(0.8743 -0.4854 0.4854 0.8743 -31.7946 157.9994)" style="fill:#F68C36;" cx="289.17" cy="140.39" rx="1.65" ry="1.37"/>
		
			<ellipse transform="matrix(0.8743 -0.4854 0.4854 0.8743 -46.9594 147.3729)" style="fill:#F68C36;" cx="261.07" cy="164.36" rx="1.65" ry="1.37"/>
		
			<ellipse transform="matrix(0.8743 -0.4854 0.4854 0.8743 -48.7285 145.4895)" style="fill:#F68C36;" cx="256.55" cy="166.83" rx="1.65" ry="1.37"/>
		
			<ellipse transform="matrix(0.8743 -0.4854 0.4854 0.8743 -50.5353 143.6119)" style="fill:#F68C36;" cx="252.02" cy="169.38" rx="1.65" ry="1.37"/>
		
			<ellipse transform="matrix(0.8743 -0.4854 0.4854 0.8743 -41.6245 152.9954)" style="fill:#F68C36;" cx="274.6" cy="156.87" rx="1.65" ry="1.37"/>
		
			<ellipse transform="matrix(0.8743 -0.4854 0.4854 0.8743 -43.3936 151.112)" style="fill:#F68C36;" cx="270.07" cy="159.34" rx="1.65" ry="1.37"/>
		
			<ellipse transform="matrix(0.8743 -0.4854 0.4854 0.8743 -45.2004 149.2344)" style="fill:#F68C36;" cx="265.55" cy="161.89" rx="1.65" ry="1.37"/>
		
			<ellipse transform="matrix(0.8743 -0.4854 0.4854 0.8743 -36.2007 158.6545)" style="fill:#F68C36;" cx="288.23" cy="149.22" rx="1.65" ry="1.37"/>
		
			<ellipse transform="matrix(0.8743 -0.4854 0.4854 0.8743 -37.9697 156.7712)" style="fill:#F68C36;" cx="283.71" cy="151.7" rx="1.65" ry="1.37"/>
		
			<ellipse transform="matrix(0.8743 -0.4854 0.4854 0.8743 -39.7765 154.8936)" style="fill:#F68C36;" cx="279.18" cy="154.25" rx="1.65" ry="1.37"/>
		
			<ellipse transform="matrix(0.8743 -0.4854 0.4854 0.8743 -30.8658 164.277)" style="fill:#F68C36;" cx="301.76" cy="141.74" rx="1.65" ry="1.37"/>
		
			<ellipse transform="matrix(0.8743 -0.4854 0.4854 0.8743 -32.6348 162.3936)" style="fill:#F68C36;" cx="297.24" cy="144.21" rx="1.65" ry="1.37"/>
		
			<ellipse transform="matrix(0.8743 -0.4854 0.4854 0.8743 -34.4416 160.516)" style="fill:#F68C36;" cx="292.71" cy="146.76" rx="1.65" ry="1.37"/>
		
			<ellipse transform="matrix(0.8743 -0.4854 0.4854 0.8743 -49.3041 149.6021)" style="fill:#F68C36;" cx="264.2" cy="170" rx="1.65" ry="1.37"/>
		
			<ellipse transform="matrix(0.8743 -0.4854 0.4854 0.8743 -51.0731 147.7187)" style="fill:#F68C36;" cx="259.68" cy="172.47" rx="1.65" ry="1.37"/>
		
			<ellipse transform="matrix(0.8743 -0.4854 0.4854 0.8743 -52.8799 145.8411)" style="fill:#F68C36;" cx="255.15" cy="175.02" rx="1.65" ry="1.37"/>
		
			<ellipse transform="matrix(0.8743 -0.4854 0.4854 0.8743 -43.9692 155.2246)" style="fill:#F68C36;" cx="277.73" cy="162.51" rx="1.65" ry="1.37"/>
		
			<ellipse transform="matrix(0.8743 -0.4854 0.4854 0.8743 -45.7382 153.3412)" style="fill:#F68C36;" cx="273.21" cy="164.98" rx="1.65" ry="1.37"/>
		
			<ellipse transform="matrix(0.8743 -0.4854 0.4854 0.8743 -47.545 151.4636)" style="fill:#F68C36;" cx="268.68" cy="167.53" rx="1.65" ry="1.37"/>
		
			<ellipse transform="matrix(0.8743 -0.4854 0.4854 0.8743 -38.5453 160.8838)" style="fill:#F68C36;" cx="291.37" cy="154.87" rx="1.65" ry="1.37"/>
		
			<ellipse transform="matrix(0.8743 -0.4854 0.4854 0.8743 -40.3143 159.0004)" style="fill:#F68C36;" cx="286.85" cy="157.34" rx="1.65" ry="1.37"/>
		
			<ellipse transform="matrix(0.8743 -0.4854 0.4854 0.8743 -42.1211 157.1228)" style="fill:#F68C36;" cx="282.32" cy="159.89" rx="1.65" ry="1.37"/>
		
			<ellipse transform="matrix(0.8743 -0.4854 0.4854 0.8743 -33.2104 166.5062)" style="fill:#F68C36;" cx="304.89" cy="147.38" rx="1.65" ry="1.37"/>
		
			<ellipse transform="matrix(0.8743 -0.4854 0.4854 0.8743 -34.9794 164.6229)" style="fill:#F68C36;" cx="300.37" cy="149.85" rx="1.65" ry="1.37"/>
		
			<ellipse transform="matrix(0.8743 -0.4854 0.4854 0.8743 -36.7863 162.7453)" style="fill:#F68C36;" cx="295.84" cy="152.4" rx="1.65" ry="1.37"/>
		
			<ellipse transform="matrix(0.8743 -0.4854 0.4854 0.8743 -51.9317 152.1004)" style="fill:#F68C36;" cx="267.71" cy="176.32" rx="1.65" ry="1.37"/>
		
			<ellipse transform="matrix(0.8743 -0.4854 0.4854 0.8743 -53.7008 150.2171)" style="fill:#F68C36;" cx="263.19" cy="178.8" rx="1.65" ry="1.37"/>
		
			<ellipse transform="matrix(0.8743 -0.4854 0.4854 0.8743 -55.5076 148.3394)" style="fill:#F68C36;" cx="258.66" cy="181.35" rx="1.65" ry="1.37"/>
		
			<ellipse transform="matrix(0.8743 -0.4854 0.4854 0.8743 -46.5968 157.7229)" style="fill:#F68C36;" cx="281.24" cy="168.83" rx="1.65" ry="1.37"/>
		
			<ellipse transform="matrix(0.8743 -0.4854 0.4854 0.8743 -48.3659 155.8395)" style="fill:#F68C36;" cx="276.72" cy="171.31" rx="1.65" ry="1.37"/>
		
			<ellipse transform="matrix(0.8743 -0.4854 0.4854 0.8743 -50.1727 153.9619)" style="fill:#F68C36;" cx="272.19" cy="173.86" rx="1.65" ry="1.37"/>
		
			<ellipse transform="matrix(0.8743 -0.4854 0.4854 0.8743 -41.173 163.3821)" style="fill:#F68C36;" cx="294.88" cy="161.19" rx="1.65" ry="1.37"/>
		
			<ellipse transform="matrix(0.8743 -0.4854 0.4854 0.8743 -42.942 161.4987)" style="fill:#F68C36;" cx="290.36" cy="163.66" rx="1.65" ry="1.37"/>
		
			<ellipse transform="matrix(0.8743 -0.4854 0.4854 0.8743 -44.7488 159.6211)" style="fill:#F68C36;" cx="285.83" cy="166.21" rx="1.65" ry="1.37"/>
		
			<ellipse transform="matrix(0.8743 -0.4854 0.4854 0.8743 -35.8381 169.0045)" style="fill:#F68C36;" cx="308.4" cy="153.7" rx="1.65" ry="1.37"/>
		
			<ellipse transform="matrix(0.8743 -0.4854 0.4854 0.8743 -37.6071 167.1212)" style="fill:#F68C36;" cx="303.88" cy="156.17" rx="1.65" ry="1.37"/>
		
			<ellipse transform="matrix(0.8743 -0.4854 0.4854 0.8743 -39.4139 165.2436)" style="fill:#F68C36;" cx="299.35" cy="158.72" rx="1.65" ry="1.37"/>
		
			<ellipse transform="matrix(0.8743 -0.4854 0.4854 0.8743 -54.2764 154.3296)" style="fill:#F68C36;" cx="270.85" cy="181.96" rx="1.65" ry="1.37"/>
		
			<ellipse transform="matrix(0.8743 -0.4854 0.4854 0.8743 -56.0454 152.4463)" style="fill:#F68C36;" cx="266.32" cy="184.44" rx="1.65" ry="1.37"/>
		
			<ellipse transform="matrix(0.8743 -0.4854 0.4854 0.8743 -57.8522 150.5687)" style="fill:#F68C36;" cx="261.8" cy="186.99" rx="1.65" ry="1.37"/>
		
			<ellipse transform="matrix(0.8743 -0.4854 0.4854 0.8743 -48.9415 159.9521)" style="fill:#F68C36;" cx="284.37" cy="174.47" rx="1.65" ry="1.37"/>
		
			<ellipse transform="matrix(0.8743 -0.4854 0.4854 0.8743 -50.7105 158.0687)" style="fill:#F68C36;" cx="279.85" cy="176.95" rx="1.65" ry="1.37"/>
		
			<ellipse transform="matrix(0.8743 -0.4854 0.4854 0.8743 -52.5173 156.1911)" style="fill:#F68C36;" cx="275.32" cy="179.5" rx="1.65" ry="1.37"/>
		
			<ellipse transform="matrix(0.8743 -0.4854 0.4854 0.8743 -43.5176 165.6113)" style="fill:#F68C36;" cx="298.01" cy="166.83" rx="1.65" ry="1.37"/>
		
			<ellipse transform="matrix(0.8743 -0.4854 0.4854 0.8743 -45.2866 163.7279)" style="fill:#F68C36;" cx="293.49" cy="169.3" rx="1.65" ry="1.37"/>
		
			<ellipse transform="matrix(0.8743 -0.4854 0.4854 0.8743 -47.0934 161.8503)" style="fill:#F68C36;" cx="288.96" cy="171.85" rx="1.65" ry="1.37"/>
		
			<ellipse transform="matrix(0.8743 -0.4854 0.4854 0.8743 -38.1827 171.2338)" style="fill:#F68C36;" cx="311.53" cy="159.34" rx="1.65" ry="1.37"/>
		
			<ellipse transform="matrix(0.8743 -0.4854 0.4854 0.8743 -39.9517 169.3504)" style="fill:#F68C36;" cx="307.01" cy="161.82" rx="1.65" ry="1.37"/>
		
			<ellipse transform="matrix(0.8743 -0.4854 0.4854 0.8743 -41.7585 167.4728)" style="fill:#F68C36;" cx="302.48" cy="164.36" rx="1.65" ry="1.37"/>
		
			<ellipse transform="matrix(0.8743 -0.4854 0.4854 0.8743 -56.9233 156.8463)" style="fill:#F68C36;" cx="274.38" cy="188.33" rx="1.65" ry="1.37"/>
		
			<ellipse transform="matrix(0.8743 -0.4854 0.4854 0.8743 -58.6924 154.963)" style="fill:#F68C36;" cx="269.86" cy="190.81" rx="1.65" ry="1.37"/>
		
			<ellipse transform="matrix(0.8743 -0.4854 0.4854 0.8743 -60.4992 153.0853)" style="fill:#F68C36;" cx="265.33" cy="193.36" rx="1.65" ry="1.37"/>
		
			<ellipse transform="matrix(0.8743 -0.4854 0.4854 0.8743 -51.5884 162.4688)" style="fill:#F68C36;" cx="287.91" cy="180.84" rx="1.65" ry="1.37"/>
		
			<ellipse transform="matrix(0.8743 -0.4854 0.4854 0.8743 -53.3575 160.5854)" style="fill:#F68C36;" cx="283.38" cy="183.32" rx="1.65" ry="1.37"/>
		
			<ellipse transform="matrix(0.8743 -0.4854 0.4854 0.8743 -55.1643 158.7078)" style="fill:#F68C36;" cx="278.86" cy="185.87" rx="1.65" ry="1.37"/>
		
			<ellipse transform="matrix(0.8743 -0.4854 0.4854 0.8743 -46.1646 168.128)" style="fill:#F68C36;" cx="301.54" cy="173.2" rx="1.65" ry="1.37"/>
		
			<ellipse transform="matrix(0.8743 -0.4854 0.4854 0.8743 -47.9336 166.2446)" style="fill:#F68C36;" cx="297.02" cy="175.67" rx="1.65" ry="1.37"/>
		
			<ellipse transform="matrix(0.8743 -0.4854 0.4854 0.8743 -49.7404 164.367)" style="fill:#F68C36;" cx="292.49" cy="178.22" rx="1.65" ry="1.37"/>
		
			<ellipse transform="matrix(0.8743 -0.4854 0.4854 0.8743 -40.8297 173.7504)" style="fill:#F68C36;" cx="315.07" cy="165.71" rx="1.65" ry="1.37"/>
		
			<ellipse transform="matrix(0.8743 -0.4854 0.4854 0.8743 -42.5987 171.8671)" style="fill:#F68C36;" cx="310.55" cy="168.18" rx="1.65" ry="1.37"/>
		
			<ellipse transform="matrix(0.8743 -0.4854 0.4854 0.8743 -44.4055 169.9895)" style="fill:#F68C36;" cx="306.02" cy="170.73" rx="1.65" ry="1.37"/>
		
			<ellipse transform="matrix(0.8743 -0.4854 0.4854 0.8743 -59.268 159.0755)" style="fill:#F68C36;" cx="277.51" cy="193.97" rx="1.65" ry="1.37"/>
		
			<ellipse transform="matrix(0.8743 -0.4854 0.4854 0.8743 -61.037 157.1922)" style="fill:#F68C36;" cx="272.99" cy="196.45" rx="1.65" ry="1.37"/>
		
			<ellipse transform="matrix(0.8743 -0.4854 0.4854 0.8743 -62.8438 155.3146)" style="fill:#F68C36;" cx="268.46" cy="199" rx="1.65" ry="1.37"/>
		
			<ellipse transform="matrix(0.8743 -0.4854 0.4854 0.8743 -53.9331 164.698)" style="fill:#F68C36;" cx="291.04" cy="186.48" rx="1.65" ry="1.37"/>
		
			<ellipse transform="matrix(0.8743 -0.4854 0.4854 0.8743 -55.7021 162.8147)" style="fill:#F68C36;" cx="286.52" cy="188.96" rx="1.65" ry="1.37"/>
		
			<ellipse transform="matrix(0.8743 -0.4854 0.4854 0.8743 -57.5089 160.937)" style="fill:#F68C36;" cx="281.99" cy="191.51" rx="1.65" ry="1.37"/>
		
			<ellipse transform="matrix(0.8743 -0.4854 0.4854 0.8743 -48.5092 170.3572)" style="fill:#F68C36;" cx="304.68" cy="178.84" rx="1.65" ry="1.37"/>
		
			<ellipse transform="matrix(0.8743 -0.4854 0.4854 0.8743 -50.2782 168.4738)" style="fill:#F68C36;" cx="300.15" cy="181.32" rx="1.65" ry="1.37"/>
		
			<ellipse transform="matrix(0.8743 -0.4854 0.4854 0.8743 -52.085 166.5962)" style="fill:#F68C36;" cx="295.63" cy="183.87" rx="1.65" ry="1.37"/>
		
			<ellipse transform="matrix(0.8743 -0.4854 0.4854 0.8743 -43.1743 175.9797)" style="fill:#F68C36;" cx="318.2" cy="171.35" rx="1.65" ry="1.37"/>
		
			<ellipse transform="matrix(0.8743 -0.4854 0.4854 0.8743 -44.9433 174.0963)" style="fill:#F68C36;" cx="313.68" cy="173.83" rx="1.65" ry="1.37"/>
		
			<ellipse transform="matrix(0.8743 -0.4854 0.4854 0.8743 -46.7501 172.2187)" style="fill:#F68C36;" cx="309.15" cy="176.38" rx="1.65" ry="1.37"/>
		
			<ellipse transform="matrix(0.8743 -0.4854 0.4854 0.8743 -2.5802 144.3221)" style="fill:#F68C36;" cx="277.37" cy="77.14" rx="1.65" ry="1.37"/>
		
			<ellipse transform="matrix(0.8743 -0.4854 0.4854 0.8743 -4.3492 142.4387)" style="fill:#F68C36;" cx="272.85" cy="79.62" rx="1.65" ry="1.37"/>
		
			<ellipse transform="matrix(0.8743 -0.4854 0.4854 0.8743 -4.9248 146.5513)" style="fill:#F68C36;" cx="280.5" cy="82.78" rx="1.65" ry="1.37"/>
		
			<ellipse transform="matrix(0.8743 -0.4854 0.4854 0.8743 -6.6939 144.6679)" style="fill:#F68C36;" cx="275.98" cy="85.26" rx="1.65" ry="1.37"/>
		
			<ellipse transform="matrix(0.8743 -0.4854 0.4854 0.8743 -7.5718 149.068)" style="fill:#F68C36;" cx="284.04" cy="89.15" rx="1.65" ry="1.37"/>
		
			<ellipse transform="matrix(0.8743 -0.4854 0.4854 0.8743 -9.3408 147.1846)" style="fill:#F68C36;" cx="279.52" cy="91.63" rx="1.65" ry="1.37"/>
		
			<ellipse transform="matrix(0.8743 -0.4854 0.4854 0.8743 -9.9165 151.2972)" style="fill:#F68C36;" cx="287.17" cy="94.8" rx="1.65" ry="1.37"/>
		
			<ellipse transform="matrix(0.8743 -0.4854 0.4854 0.8743 -11.6855 149.4138)" style="fill:#F68C36;" cx="282.65" cy="97.27" rx="1.65" ry="1.37"/>
		
			<ellipse transform="matrix(0.8743 -0.4854 0.4854 0.8743 -12.5441 153.7955)" style="fill:#F68C36;" cx="290.68" cy="101.12" rx="1.65" ry="1.37"/>
		
			<ellipse transform="matrix(0.8743 -0.4854 0.4854 0.8743 -14.3131 151.9121)" style="fill:#F68C36;" cx="286.16" cy="103.59" rx="1.65" ry="1.37"/>
		
			<ellipse transform="matrix(0.8743 -0.4854 0.4854 0.8743 -14.8887 156.0247)" style="fill:#F68C36;" cx="293.81" cy="106.76" rx="1.65" ry="1.37"/>
		
			<ellipse transform="matrix(0.8743 -0.4854 0.4854 0.8743 -16.6578 154.1413)" style="fill:#F68C36;" cx="289.29" cy="109.23" rx="1.65" ry="1.37"/>
		
			<ellipse transform="matrix(0.8743 -0.4854 0.4854 0.8743 -17.5357 158.5414)" style="fill:#F68C36;" cx="297.35" cy="113.13" rx="1.65" ry="1.37"/>
		
			<ellipse transform="matrix(0.8743 -0.4854 0.4854 0.8743 -19.3047 156.658)" style="fill:#F68C36;" cx="292.83" cy="115.6" rx="1.65" ry="1.37"/>
		
			<ellipse transform="matrix(0.8743 -0.4854 0.4854 0.8743 -19.8803 160.7706)" style="fill:#F68C36;" cx="300.48" cy="118.77" rx="1.65" ry="1.37"/>
		
			<ellipse transform="matrix(0.8743 -0.4854 0.4854 0.8743 -21.6494 158.8873)" style="fill:#F68C36;" cx="295.96" cy="121.24" rx="1.65" ry="1.37"/>
		
			<ellipse transform="matrix(0.8743 -0.4854 0.4854 0.8743 -22.414 163.1796)" style="fill:#F68C36;" cx="303.86" cy="124.87" rx="1.65" ry="1.37"/>
		
			<ellipse transform="matrix(0.8743 -0.4854 0.4854 0.8743 -24.183 161.2962)" style="fill:#F68C36;" cx="299.34" cy="127.34" rx="1.65" ry="1.37"/>
		
			<ellipse transform="matrix(0.8743 -0.4854 0.4854 0.8743 -24.7586 165.4088)" style="fill:#F68C36;" cx="307" cy="130.51" rx="1.65" ry="1.37"/>
		
			<ellipse transform="matrix(0.8743 -0.4854 0.4854 0.8743 -26.5277 163.5254)" style="fill:#F68C36;" cx="302.48" cy="132.98" rx="1.65" ry="1.37"/>
		
			<ellipse transform="matrix(0.8743 -0.4854 0.4854 0.8743 -27.4056 167.9254)" style="fill:#F68C36;" cx="310.53" cy="136.88" rx="1.65" ry="1.37"/>
		
			<ellipse transform="matrix(0.8743 -0.4854 0.4854 0.8743 -29.1746 166.0421)" style="fill:#F68C36;" cx="306.01" cy="139.35" rx="1.65" ry="1.37"/>
		
			<ellipse transform="matrix(0.8743 -0.4854 0.4854 0.8743 -29.7502 170.1547)" style="fill:#F68C36;" cx="313.66" cy="142.52" rx="1.65" ry="1.37"/>
		
			<ellipse transform="matrix(0.8743 -0.4854 0.4854 0.8743 -31.5193 168.2713)" style="fill:#F68C36;" cx="309.14" cy="144.99" rx="1.65" ry="1.37"/>
		
			<ellipse transform="matrix(0.8743 -0.4854 0.4854 0.8743 -32.3779 172.653)" style="fill:#F68C36;" cx="317.17" cy="148.84" rx="1.65" ry="1.37"/>
		
			<ellipse transform="matrix(0.8743 -0.4854 0.4854 0.8743 -34.1469 170.7696)" style="fill:#F68C36;" cx="312.65" cy="151.32" rx="1.65" ry="1.37"/>
		
			<ellipse transform="matrix(0.8743 -0.4854 0.4854 0.8743 -34.7225 174.8822)" style="fill:#F68C36;" cx="320.31" cy="154.48" rx="1.65" ry="1.37"/>
		
			<ellipse transform="matrix(0.8743 -0.4854 0.4854 0.8743 -36.4915 172.9988)" style="fill:#F68C36;" cx="315.79" cy="156.96" rx="1.65" ry="1.37"/>
		
			<ellipse transform="matrix(0.8743 -0.4854 0.4854 0.8743 -37.3695 177.3989)" style="fill:#F68C36;" cx="323.84" cy="160.85" rx="1.65" ry="1.37"/>
		
			<ellipse transform="matrix(0.8743 -0.4854 0.4854 0.8743 -39.1385 175.5155)" style="fill:#F68C36;" cx="319.32" cy="163.33" rx="1.65" ry="1.37"/>
		
			<ellipse transform="matrix(0.8743 -0.4854 0.4854 0.8743 -39.7141 179.6281)" style="fill:#F68C36;" cx="326.97" cy="166.5" rx="1.65" ry="1.37"/>
		
			<ellipse transform="matrix(0.8743 -0.4854 0.4854 0.8743 -41.4832 177.7447)" style="fill:#F68C36;" cx="322.45" cy="168.97" rx="1.65" ry="1.37"/>
		
			<ellipse transform="matrix(0.8743 -0.4854 0.4854 0.8743 -52.2972 141.7019)" style="fill:#F68C36;" cx="247.45" cy="171.83" rx="1.65" ry="1.37"/>
		
			<ellipse transform="matrix(0.8743 -0.4854 0.4854 0.8743 -54.2734 139.6916)" style="fill:#F68C36;" cx="242.58" cy="174.64" rx="1.65" ry="1.37"/>
		
			<ellipse transform="matrix(0.8743 -0.4854 0.4854 0.8743 -44.7453 134.541)" style="fill:#F68C36;" cx="237.4" cy="153.67" rx="1.65" ry="1.37"/>
		
			<ellipse transform="matrix(0.8743 -0.4854 0.4854 0.8743 -46.7215 132.5307)" style="fill:#F68C36;" cx="232.53" cy="156.48" rx="1.65" ry="1.37"/>
		
			<ellipse transform="matrix(0.8743 -0.4854 0.4854 0.8743 -39.6391 129.993)" style="fill:#F68C36;" cx="231.17" cy="141.53" rx="1.65" ry="1.37"/>
		
			<ellipse transform="matrix(0.8743 -0.4854 0.4854 0.8743 -34.5803 125.2848)" style="fill:#F68C36;" cx="224.61" cy="129.41" rx="1.65" ry="1.37"/>
		
			<ellipse transform="matrix(0.8743 -0.4854 0.4854 0.8743 -36.5565 123.2745)" style="fill:#F68C36;" cx="219.74" cy="132.22" rx="1.65" ry="1.37"/>
		
			<ellipse transform="matrix(0.8743 -0.4854 0.4854 0.8743 -45.8201 177.219)" style="fill:#F68C36;" cx="319.27" cy="177.08" rx="1.65" ry="1.37"/>
	</g>
	<g>
		<path style="fill:#F68B37;" d="M213.2,168.09c18.14-33.34,37.84-69.76,56.07-102.9c0,0,0.91-1.65,0.91-1.65
			c25.28,43.19,74.89,128.37,99.92,171.69c25.4,43.78,74.71,129.23,99.84,173.17c-38.58-0.06-112.89-0.28-151.46-0.57
			c-43.03,0.1-104.71-0.98-148.33-1.25c0,0,74.17-0.74,74.17-0.74c68.49-0.5,153.62-1.03,222.49-1.07c0,0-1.57,2.71-1.57,2.71
			s-49.31-85.13-49.31-85.13c-43.71-75.96-103.4-179.9-146.66-256.11c0,0,1.87-0.01,1.87-0.01
			C252.51,99.1,232.07,135.19,213.2,168.09L213.2,168.09z"/>
	</g>
	<g>
		<path style="fill:#3498AC;" d="M250.43,54.08c-42.99,75.33-98.2,170.1-142.36,245.26c-15.95,27.17-31.83,54.39-47.93,81.47
			c0,0-1.66-2.91-1.66-2.91l77.95,0.16c74.32,0.17,159.62,0.77,233.84,1.77c-100.28,1.41-211.29,1.78-311.78,1.93
			c0,0-3.37,0.01-3.37,0.01s1.71-2.92,1.71-2.92C118.51,273.97,187.24,158.11,250.43,54.08L250.43,54.08z"/>
	</g>
	<g>
		<g>
			<g>
				<path style="fill:#FCD9D9;" d="M285.38,53.73l1.32-0.75l1.31,2.31l-1.32,0.75L285.38,53.73z M290.44,62.67l1.32-0.75l3.75,6.62
					l-1.32,0.75L290.44,62.67z M297.95,75.92l1.32-0.75l3.75,6.63l-1.32,0.75L297.95,75.92z M305.45,89.16l1.32-0.75l3.75,6.63
					l-1.32,0.75L305.45,89.16z M312.95,102.41l1.32-0.75l3.75,6.62l-1.32,0.75L312.95,102.41z M320.46,115.66l1.32-0.75l3.75,6.63
					l-1.32,0.75L320.46,115.66z M395.49,248.15l1.32-0.75l3.75,6.63l-1.32,0.75L395.49,248.15z M402.99,261.4l1.32-0.75l3.75,6.62
					l-1.32,0.75L402.99,261.4z M410.5,274.65l1.32-0.75l3.75,6.63l-1.32,0.75L410.5,274.65z M418,287.9l1.32-0.75l3.75,6.63
					l-1.32,0.75L418,287.9z M425.5,301.15l1.32-0.75l3.75,6.62l-1.32,0.75L425.5,301.15z M433.01,314.4l1.32-0.75l3.75,6.62
					l-1.32,0.75L433.01,314.4z M440.51,327.65l1.33-0.75l3.75,6.62l-1.33,0.75L440.51,327.65z M448.01,340.9l1.32-0.75l3.75,6.63
					l-1.32,0.75L448.01,340.9z M455.52,354.14l1.32-0.75l3.75,6.63l-1.32,0.75L455.52,354.14z M463.02,367.4l1.32-0.75l3.75,6.62
					l-1.32,0.75L463.02,367.4z M470.52,380.64l1.32-0.75l3.75,6.63l-1.32,0.75L470.52,380.64z M478.03,393.89l1.32-0.75l3.75,6.63
					l-1.32,0.75L478.03,393.89z M485.53,407.14l1.32-0.75l3.75,6.63l-1.33,0.75L485.53,407.14z"/>
			</g>
		</g>
	</g>
	<g>
		<path style="fill:#EE3D58;" d="M147.13,199.26h3.44c2.17,0,3.97,0.7,5.51,2.16c1.54,1.45,2.28,3.16,2.28,5.22v52.31h8
			c2.17,0,3.97,0.7,5.51,2.16c1.54,1.46,2.28,3.16,2.28,5.22v3.26h-21.14c-1.64,0-3.02-0.55-4.13-1.66
			c-1.17-1.05-1.75-2.36-1.75-3.91V199.26z"/>
		<path style="fill:#EE3D58;" d="M204.29,201.82c0,1.55-0.58,2.86-1.7,3.91c-1.17,1.05-2.54,1.6-4.13,1.6
			c-1.64,0-3.02-0.55-4.13-1.6c-1.17-1.05-1.75-2.36-1.75-3.91s0.58-2.86,1.75-3.96c1.11-1.05,2.49-1.6,4.13-1.6
			c1.59,0,2.97,0.55,4.13,1.6C203.71,198.96,204.29,200.26,204.29,201.82z M204.08,213.3v48.9c0,2.06-0.74,3.76-2.28,5.22
			c-1.54,1.45-3.39,2.16-5.56,2.16h-3.44v-48.85c0-2.06,0.79-3.81,2.33-5.27c1.54-1.45,3.34-2.16,5.51-2.16H204.08z"/>
		<path style="fill:#EE3D58;" d="M247.46,241.89h-4.5v-10.68h15.89v38.37h-6.78l-1.8-2.56c-2.81,1.71-5.99,2.56-9.54,2.56
			c-4.93,0-9.17-1.66-12.71-4.97c-3.55-3.36-5.3-7.37-5.3-12.09v-36.16c0-4.71,1.75-8.73,5.3-12.04c3.55-3.36,7.79-5.02,12.71-5.02
			c4.98,0,9.22,1.66,12.71,5.02c3.55,3.31,5.3,7.32,5.3,12.04v4.26h-6.83c-1.22,0-2.28-0.4-3.13-1.2c-0.9-0.8-1.32-1.81-1.32-2.96
			c0-1.66-0.58-3.11-1.8-4.46c-1.32-1.35-2.97-2.01-4.93-2.01c-1.8,0-3.34,0.6-4.66,1.76c-1.43,1.25-2.12,2.81-2.12,4.61v36.16
			c0,1.76,0.69,3.26,2.01,4.51c1.32,1.25,2.91,1.91,4.77,1.91c1.91,0,3.55-0.7,4.93-2.06c1.22-1.3,1.8-2.81,1.8-4.46V241.89z"/>
		<path style="fill:#EE3D58;" d="M288.52,241.89v20.31c0,2.06-0.74,3.76-2.28,5.22c-1.54,1.45-3.34,2.16-5.51,2.16h-3.44v-70.32
			h3.44c2.17,0,3.97,0.7,5.51,2.16s2.28,3.16,2.28,5.22v24.58h13.51v-24.58c0-2.06,0.79-3.76,2.33-5.22
			c1.54-1.45,3.34-2.16,5.51-2.16h3.44v70.32h-3.44c-2.17,0-3.97-0.7-5.51-2.16c-1.54-1.46-2.33-3.16-2.33-5.22v-20.31H288.52z"/>
		<path style="fill:#EE3D58;" d="M365.49,199.26v10.63h-11.23v52.31c0,2.06-0.74,3.76-2.28,5.22c-1.54,1.45-3.34,2.16-5.51,2.16
			h-3.5v-59.68h-11.23v-10.63H365.49z"/>
	</g>
	<g>
		<g>
			<path style="fill:none;stroke:#3498AB;stroke-miterlimit:10;" d="M164.84,289.17l20.77,76.22h-6.15c-2.31,0-4.3-0.6-6.08-1.79
				c-1.79-1.14-2.91-2.66-3.44-4.57l-1.98-7.5h-21.56l-1.98,7.5c-0.53,1.9-1.65,3.43-3.44,4.57c-1.79,1.2-3.77,1.79-6.08,1.79h-6.15
				l20.77-76.22H164.84z M165.04,340l-7.87-30.34L149.3,340H165.04z"/>
			<path style="fill:none;stroke:#3498AB;stroke-miterlimit:10;" d="M231.1,289.17c6.28,0,11.64,1.79,15.94,5.38
				c4.36,3.64,6.55,7.99,6.55,13.1v20.77c0,5.11-2.18,9.46-6.55,13.05c-0.6,0.49-1.19,0.92-1.92,1.36l8.99,22.56h-7.8
				c-4.36,0-7.47-1.9-9.39-5.76l-4.5-12.72h-9.79v10.49c0,2.23-0.93,4.08-2.84,5.65c-1.92,1.58-4.17,2.34-6.88,2.34h-4.3v-76.22
				H231.1z M231.1,335.38c2.31,0,4.3-0.71,5.95-2.07c1.65-1.36,2.45-2.99,2.45-4.89v-20.77c0-1.9-0.79-3.53-2.38-4.89
				c-1.65-1.36-3.64-2.07-6.02-2.07h-8.46v34.69H231.1z"/>
			<path style="fill:none;stroke:#3498AB;stroke-miterlimit:10;" d="M277.12,289.17h36.5v3.53c0,2.23-0.93,4.08-2.84,5.65
				c-1.92,1.58-4.17,2.34-6.88,2.34h-12.76v23.11H308v3.53c0,2.23-0.93,4.08-2.84,5.65c-1.92,1.58-4.17,2.39-6.88,2.39h-7.14v18.49
				h12.76c2.71,0,4.96,0.76,6.88,2.34c1.92,1.58,2.84,3.43,2.84,5.65v3.53h-36.5V289.17z"/>
			<path style="fill:none;stroke:#3498AB;stroke-miterlimit:10;" d="M372.74,289.17l20.77,76.22h-6.15c-2.31,0-4.3-0.6-6.08-1.79
				c-1.79-1.14-2.91-2.66-3.44-4.57l-1.98-7.5h-21.56l-1.98,7.5c-0.53,1.9-1.65,3.43-3.44,4.57c-1.79,1.2-3.77,1.79-6.08,1.79h-6.15
				l20.76-76.22H372.74z M372.94,340l-7.87-30.34L357.2,340H372.94z"/>
		</g>
		<g>
			<path style="fill:#FFFFFF;" d="M171.23,286.43l20.77,76.22h-6.15c-2.31,0-4.3-0.6-6.08-1.79c-1.79-1.14-2.91-2.66-3.44-4.57
				l-1.98-7.5h-21.56l-1.98,7.5c-0.53,1.9-1.65,3.43-3.44,4.57c-1.79,1.2-3.77,1.79-6.08,1.79h-6.15l20.77-76.22H171.23z
				 M171.43,337.26l-7.87-30.34l-7.87,30.34H171.43z"/>
			<path style="fill:#FFFFFF;" d="M237.48,286.43c6.28,0,11.64,1.79,15.94,5.38c4.36,3.64,6.55,7.99,6.55,13.1v20.77
				c0,5.11-2.18,9.46-6.55,13.05c-0.6,0.49-1.19,0.92-1.92,1.36l8.99,22.56h-7.8c-4.36,0-7.47-1.9-9.39-5.76l-4.5-12.72h-9.79v10.49
				c0,2.23-0.93,4.08-2.84,5.65c-1.92,1.58-4.17,2.34-6.88,2.34H215v-76.22H237.48z M237.48,332.64c2.31,0,4.3-0.71,5.95-2.07
				c1.65-1.36,2.45-2.99,2.45-4.89v-20.77c0-1.9-0.79-3.53-2.38-4.89c-1.65-1.36-3.64-2.07-6.02-2.07h-8.46v34.69H237.48z"/>
			<path style="fill:#FFFFFF;" d="M283.5,286.43h36.5v3.53c0,2.23-0.93,4.08-2.84,5.65c-1.92,1.58-4.17,2.34-6.88,2.34h-12.76v23.11
				h16.86v3.53c0,2.23-0.93,4.08-2.84,5.65c-1.92,1.58-4.17,2.39-6.88,2.39h-7.14v18.49h12.76c2.71,0,4.96,0.76,6.88,2.34
				c1.92,1.58,2.84,3.43,2.84,5.65v3.53h-36.5V286.43z"/>
			<path style="fill:#FFFFFF;" d="M379.12,286.43l20.77,76.22h-6.15c-2.31,0-4.3-0.6-6.08-1.79c-1.79-1.14-2.91-2.66-3.44-4.57
				l-1.98-7.5h-21.56l-1.98,7.5c-0.53,1.9-1.65,3.43-3.44,4.57c-1.79,1.2-3.77,1.79-6.08,1.79h-6.15l20.76-76.22H379.12z
				 M379.32,337.26l-7.87-30.34l-7.87,30.34H379.32z"/>
		</g>
	</g>
</g>
</svg>
