<?xml version="1.0" encoding="utf-8"?>
<!-- Generator: Adobe Illustrator 26.4.1, SVG Export Plug-In . SVG Version: 6.00 Build 0)  -->
<svg version="1.1" id="Layer_1" xmlns="http://www.w3.org/2000/svg" xmlns:xlink="http://www.w3.org/1999/xlink" x="0px" y="0px"
	 viewBox="0 0 512 428.02" style="enable-background:new 0 0 512 428.02;" xml:space="preserve">
<g>
	<g>
		
			<ellipse transform="matrix(0.4819 -0.8762 0.8762 0.4819 -169.5034 208.3755)" style="fill:#F68C36;" cx="91.46" cy="247.53" rx="2.09" ry="2.53"/>
		
			<ellipse transform="matrix(0.4819 -0.8762 0.8762 0.4819 -169.7041 200.3701)" style="fill:#F68C36;" cx="84.59" cy="243.69" rx="2.09" ry="2.53"/>
		
			<ellipse transform="matrix(0.4819 -0.8762 0.8762 0.4819 -170.0041 192.2999)" style="fill:#F68C36;" cx="77.61" cy="239.91" rx="2.09" ry="2.53"/>
		
			<ellipse transform="matrix(0.4819 -0.8762 0.8762 0.4819 -168.7798 232.3855)" style="fill:#F68C36;" cx="112.12" cy="258.92" rx="2.09" ry="2.53"/>
		
			<ellipse transform="matrix(0.4819 -0.8762 0.8762 0.4819 -168.9805 224.38)" style="fill:#F68C36;" cx="105.25" cy="255.09" rx="2.09" ry="2.53"/>
		
			<ellipse transform="matrix(0.4819 -0.8762 0.8762 0.4819 -169.2805 216.3098)" style="fill:#F68C36;" cx="98.28" cy="251.3" rx="2.09" ry="2.53"/>
		
			<ellipse transform="matrix(0.4819 -0.8762 0.8762 0.4819 -167.9263 256.664)" style="fill:#F68C36;" cx="133.08" cy="270.34" rx="2.09" ry="2.53"/>
		
			<ellipse transform="matrix(0.4819 -0.8762 0.8762 0.4819 -168.1271 248.6585)" style="fill:#F68C36;" cx="126.21" cy="266.5" rx="2.09" ry="2.53"/>
		
			<ellipse transform="matrix(0.4819 -0.8762 0.8762 0.4819 -168.427 240.5883)" style="fill:#F68C36;" cx="119.24" cy="262.72" rx="2.09" ry="2.53"/>
		
			<ellipse transform="matrix(0.4819 -0.8762 0.8762 0.4819 -167.2028 280.6739)" style="fill:#F68C36;" cx="153.75" cy="281.73" rx="2.09" ry="2.53"/>
		
			<ellipse transform="matrix(0.4819 -0.8762 0.8762 0.4819 -167.4035 272.6685)" style="fill:#F68C36;" cx="146.88" cy="277.9" rx="2.09" ry="2.53"/>
		
			<ellipse transform="matrix(0.4819 -0.8762 0.8762 0.4819 -167.7035 264.5983)" style="fill:#F68C36;" cx="139.9" cy="274.11" rx="2.09" ry="2.53"/>
		
			<ellipse transform="matrix(0.4819 -0.8762 0.8762 0.4819 -179.5251 208.6877)" style="fill:#F68C36;" cx="86.71" cy="256.16" rx="2.09" ry="2.53"/>
		
			<ellipse transform="matrix(0.4819 -0.8762 0.8762 0.4819 -179.7258 200.6822)" style="fill:#F68C36;" cx="79.84" cy="252.32" rx="2.09" ry="2.53"/>
		
			<ellipse transform="matrix(0.4819 -0.8762 0.8762 0.4819 -180.0258 192.612)" style="fill:#F68C36;" cx="72.87" cy="248.54" rx="2.09" ry="2.53"/>
		
			<ellipse transform="matrix(0.4819 -0.8762 0.8762 0.4819 -178.8015 232.6976)" style="fill:#F68C36;" cx="107.38" cy="267.55" rx="2.09" ry="2.53"/>
		
			<ellipse transform="matrix(0.4819 -0.8762 0.8762 0.4819 -179.0023 224.6922)" style="fill:#F68C36;" cx="100.51" cy="263.72" rx="2.09" ry="2.53"/>
		
			<ellipse transform="matrix(0.4819 -0.8762 0.8762 0.4819 -179.3022 216.622)" style="fill:#F68C36;" cx="93.53" cy="259.93" rx="2.09" ry="2.53"/>
		
			<ellipse transform="matrix(0.4819 -0.8762 0.8762 0.4819 -177.948 256.9761)" style="fill:#F68C36;" cx="128.33" cy="278.97" rx="2.09" ry="2.53"/>
		
			<ellipse transform="matrix(0.4819 -0.8762 0.8762 0.4819 -178.1488 248.9707)" style="fill:#F68C36;" cx="121.46" cy="275.13" rx="2.09" ry="2.53"/>
		
			<ellipse transform="matrix(0.4819 -0.8762 0.8762 0.4819 -178.4488 240.9005)" style="fill:#F68C36;" cx="114.49" cy="271.35" rx="2.09" ry="2.53"/>
		
			<ellipse transform="matrix(0.4819 -0.8762 0.8762 0.4819 -177.2245 280.9861)" style="fill:#F68C36;" cx="149" cy="290.36" rx="2.09" ry="2.53"/>
		
			<ellipse transform="matrix(0.4819 -0.8762 0.8762 0.4819 -177.4252 272.9806)" style="fill:#F68C36;" cx="142.13" cy="286.53" rx="2.09" ry="2.53"/>
		
			<ellipse transform="matrix(0.4819 -0.8762 0.8762 0.4819 -177.7252 264.9105)" style="fill:#F68C36;" cx="135.15" cy="282.75" rx="2.09" ry="2.53"/>
		
			<ellipse transform="matrix(0.4819 -0.8762 0.8762 0.4819 -190.8391 209.0401)" style="fill:#F68C36;" cx="81.35" cy="265.9" rx="2.09" ry="2.53"/>
		
			<ellipse transform="matrix(0.4819 -0.8762 0.8762 0.4819 -191.0399 201.0346)" style="fill:#F68C36;" cx="74.48" cy="262.07" rx="2.09" ry="2.53"/>
		
			<ellipse transform="matrix(0.4819 -0.8762 0.8762 0.4819 -191.3398 192.9644)" style="fill:#F68C36;" cx="67.51" cy="258.29" rx="2.09" ry="2.53"/>
		
			<ellipse transform="matrix(0.4819 -0.8762 0.8762 0.4819 -190.1156 233.05)" style="fill:#F68C36;" cx="102.02" cy="277.29" rx="2.09" ry="2.53"/>
		
			<ellipse transform="matrix(0.4819 -0.8762 0.8762 0.4819 -190.3163 225.0446)" style="fill:#F68C36;" cx="95.15" cy="273.46" rx="2.09" ry="2.53"/>
		
			<ellipse transform="matrix(0.4819 -0.8762 0.8762 0.4819 -190.6163 216.9744)" style="fill:#F68C36;" cx="88.17" cy="269.68" rx="2.09" ry="2.53"/>
		
			<ellipse transform="matrix(0.4819 -0.8762 0.8762 0.4819 -189.2621 257.3285)" style="fill:#F68C36;" cx="122.97" cy="288.71" rx="2.09" ry="2.53"/>
		
			<ellipse transform="matrix(0.4819 -0.8762 0.8762 0.4819 -189.4628 249.3231)" style="fill:#F68C36;" cx="116.1" cy="284.88" rx="2.09" ry="2.53"/>
		
			<ellipse transform="matrix(0.4819 -0.8762 0.8762 0.4819 -189.7628 241.2529)" style="fill:#F68C36;" cx="109.13" cy="281.1" rx="2.09" ry="2.53"/>
		
			<ellipse transform="matrix(0.4819 -0.8762 0.8762 0.4819 -188.5385 281.3385)" style="fill:#F68C36;" cx="143.64" cy="300.1" rx="2.09" ry="2.53"/>
		
			<ellipse transform="matrix(0.4819 -0.8762 0.8762 0.4819 -188.7393 273.333)" style="fill:#F68C36;" cx="136.77" cy="296.27" rx="2.09" ry="2.53"/>
		
			<ellipse transform="matrix(0.4819 -0.8762 0.8762 0.4819 -189.0393 265.2629)" style="fill:#F68C36;" cx="129.8" cy="292.49" rx="2.09" ry="2.53"/>
		
			<ellipse transform="matrix(0.4819 -0.8762 0.8762 0.4819 -200.8608 209.3522)" style="fill:#F68C36;" cx="76.6" cy="274.53" rx="2.09" ry="2.53"/>
		
			<ellipse transform="matrix(0.4819 -0.8762 0.8762 0.4819 -201.0616 201.3468)" style="fill:#F68C36;" cx="69.73" cy="270.7" rx="2.09" ry="2.53"/>
		
			<ellipse transform="matrix(0.4819 -0.8762 0.8762 0.4819 -201.3616 193.2766)" style="fill:#F68C36;" cx="62.76" cy="266.92" rx="2.09" ry="2.53"/>
		
			<ellipse transform="matrix(0.4819 -0.8762 0.8762 0.4819 -200.1373 233.3622)" style="fill:#F68C36;" cx="97.27" cy="285.92" rx="2.09" ry="2.53"/>
		
			<ellipse transform="matrix(0.4819 -0.8762 0.8762 0.4819 -200.338 225.3568)" style="fill:#F68C36;" cx="90.4" cy="282.09" rx="2.09" ry="2.53"/>
		
			<ellipse transform="matrix(0.4819 -0.8762 0.8762 0.4819 -200.638 217.2866)" style="fill:#F68C36;" cx="83.43" cy="278.31" rx="2.09" ry="2.53"/>
		
			<ellipse transform="matrix(0.4819 -0.8762 0.8762 0.4819 -199.2838 257.6407)" style="fill:#F68C36;" cx="118.23" cy="297.34" rx="2.09" ry="2.53"/>
		
			<ellipse transform="matrix(0.4819 -0.8762 0.8762 0.4819 -199.4845 249.6352)" style="fill:#F68C36;" cx="111.36" cy="293.51" rx="2.09" ry="2.53"/>
		
			<ellipse transform="matrix(0.4819 -0.8762 0.8762 0.4819 -199.7845 241.5651)" style="fill:#F68C36;" cx="104.38" cy="289.73" rx="2.09" ry="2.53"/>
		
			<ellipse transform="matrix(0.4819 -0.8762 0.8762 0.4819 -198.5603 281.6506)" style="fill:#F68C36;" cx="138.89" cy="308.73" rx="2.09" ry="2.53"/>
		
			<ellipse transform="matrix(0.4819 -0.8762 0.8762 0.4819 -198.761 273.6452)" style="fill:#F68C36;" cx="132.02" cy="304.9" rx="2.09" ry="2.53"/>
		
			<ellipse transform="matrix(0.4819 -0.8762 0.8762 0.4819 -199.061 265.575)" style="fill:#F68C36;" cx="125.05" cy="301.12" rx="2.09" ry="2.53"/>
		
			<ellipse transform="matrix(0.4819 -0.8762 0.8762 0.4819 -212.0923 209.7021)" style="fill:#F68C36;" cx="71.28" cy="284.2" rx="2.09" ry="2.53"/>
		
			<ellipse transform="matrix(0.4819 -0.8762 0.8762 0.4819 -212.293 201.6966)" style="fill:#F68C36;" cx="64.41" cy="280.37" rx="2.09" ry="2.53"/>
		
			<ellipse transform="matrix(0.4819 -0.8762 0.8762 0.4819 -212.593 193.6264)" style="fill:#F68C36;" cx="57.44" cy="276.59" rx="2.09" ry="2.53"/>
		
			<ellipse transform="matrix(0.4819 -0.8762 0.8762 0.4819 -211.3688 233.712)" style="fill:#F68C36;" cx="91.95" cy="295.6" rx="2.09" ry="2.53"/>
		
			<ellipse transform="matrix(0.4819 -0.8762 0.8762 0.4819 -211.5695 225.7066)" style="fill:#F68C36;" cx="85.08" cy="291.76" rx="2.09" ry="2.53"/>
		
			<ellipse transform="matrix(0.4819 -0.8762 0.8762 0.4819 -211.8695 217.6364)" style="fill:#F68C36;" cx="78.11" cy="287.98" rx="2.09" ry="2.53"/>
		
			<ellipse transform="matrix(0.4819 -0.8762 0.8762 0.4819 -210.5153 257.9905)" style="fill:#F68C36;" cx="112.91" cy="307.01" rx="2.09" ry="2.53"/>
		
			<ellipse transform="matrix(0.4819 -0.8762 0.8762 0.4819 -210.716 249.9851)" style="fill:#F68C36;" cx="106.04" cy="303.18" rx="2.09" ry="2.53"/>
		
			<ellipse transform="matrix(0.4819 -0.8762 0.8762 0.4819 -211.016 241.9149)" style="fill:#F68C36;" cx="99.06" cy="299.4" rx="2.09" ry="2.53"/>
		
			<ellipse transform="matrix(0.4819 -0.8762 0.8762 0.4819 -209.7917 282.0005)" style="fill:#F68C36;" cx="133.57" cy="318.41" rx="2.09" ry="2.53"/>
		
			<ellipse transform="matrix(0.4819 -0.8762 0.8762 0.4819 -209.9924 273.995)" style="fill:#F68C36;" cx="126.7" cy="314.57" rx="2.09" ry="2.53"/>
		
			<ellipse transform="matrix(0.4819 -0.8762 0.8762 0.4819 -210.2924 265.9249)" style="fill:#F68C36;" cx="119.73" cy="310.79" rx="2.09" ry="2.53"/>
		
			<ellipse transform="matrix(0.4819 -0.8762 0.8762 0.4819 -222.114 210.0142)" style="fill:#F68C36;" cx="66.54" cy="292.83" rx="2.09" ry="2.53"/>
		
			<ellipse transform="matrix(0.4819 -0.8762 0.8762 0.4819 -222.3148 202.0088)" style="fill:#F68C36;" cx="59.67" cy="289" rx="2.09" ry="2.53"/>
		
			<ellipse transform="matrix(0.4819 -0.8762 0.8762 0.4819 -222.6147 193.9386)" style="fill:#F68C36;" cx="52.69" cy="285.22" rx="2.09" ry="2.53"/>
		
			<ellipse transform="matrix(0.4819 -0.8762 0.8762 0.4819 -221.3905 234.0242)" style="fill:#F68C36;" cx="87.2" cy="304.23" rx="2.09" ry="2.53"/>
		
			<ellipse transform="matrix(0.4819 -0.8762 0.8762 0.4819 -221.5912 226.0187)" style="fill:#F68C36;" cx="80.33" cy="300.39" rx="2.09" ry="2.53"/>
		
			<ellipse transform="matrix(0.4819 -0.8762 0.8762 0.4819 -221.8912 217.9486)" style="fill:#F68C36;" cx="73.36" cy="296.61" rx="2.09" ry="2.53"/>
		
			<ellipse transform="matrix(0.4819 -0.8762 0.8762 0.4819 -220.537 258.3027)" style="fill:#F68C36;" cx="108.16" cy="315.64" rx="2.09" ry="2.53"/>
		
			<ellipse transform="matrix(0.4819 -0.8762 0.8762 0.4819 -220.7377 250.2972)" style="fill:#F68C36;" cx="101.29" cy="311.81" rx="2.09" ry="2.53"/>
		
			<ellipse transform="matrix(0.4819 -0.8762 0.8762 0.4819 -221.0377 242.2271)" style="fill:#F68C36;" cx="94.32" cy="308.03" rx="2.09" ry="2.53"/>
		
			<ellipse transform="matrix(0.4819 -0.8762 0.8762 0.4819 -219.8134 282.3127)" style="fill:#F68C36;" cx="128.83" cy="327.04" rx="2.09" ry="2.53"/>
		
			<ellipse transform="matrix(0.4819 -0.8762 0.8762 0.4819 -220.0142 274.3072)" style="fill:#F68C36;" cx="121.96" cy="323.2" rx="2.09" ry="2.53"/>
		
			<ellipse transform="matrix(0.4819 -0.8762 0.8762 0.4819 -220.3142 266.237)" style="fill:#F68C36;" cx="114.98" cy="319.42" rx="2.09" ry="2.53"/>
		
			<ellipse transform="matrix(0.4819 -0.8762 0.8762 0.4819 -233.4281 210.3666)" style="fill:#F68C36;" cx="61.18" cy="302.58" rx="2.09" ry="2.53"/>
		
			<ellipse transform="matrix(0.4819 -0.8762 0.8762 0.4819 -233.6288 202.3612)" style="fill:#F68C36;" cx="54.31" cy="298.74" rx="2.09" ry="2.53"/>
		
			<ellipse transform="matrix(0.4819 -0.8762 0.8762 0.4819 -233.9288 194.291)" style="fill:#F68C36;" cx="47.33" cy="294.96" rx="2.09" ry="2.53"/>
		
			<ellipse transform="matrix(0.4819 -0.8762 0.8762 0.4819 -232.7045 234.3766)" style="fill:#F68C36;" cx="81.84" cy="313.97" rx="2.09" ry="2.53"/>
		
			<ellipse transform="matrix(0.4819 -0.8762 0.8762 0.4819 -232.9052 226.3712)" style="fill:#F68C36;" cx="74.97" cy="310.14" rx="2.09" ry="2.53"/>
		
			<ellipse transform="matrix(0.4819 -0.8762 0.8762 0.4819 -233.2052 218.301)" style="fill:#F68C36;" cx="68" cy="306.36" rx="2.09" ry="2.53"/>
		
			<ellipse transform="matrix(0.4819 -0.8762 0.8762 0.4819 -231.851 258.6551)" style="fill:#F68C36;" cx="102.8" cy="325.39" rx="2.09" ry="2.53"/>
		
			<ellipse transform="matrix(0.4819 -0.8762 0.8762 0.4819 -232.0518 250.6497)" style="fill:#F68C36;" cx="95.93" cy="321.56" rx="2.09" ry="2.53"/>
		
			<ellipse transform="matrix(0.4819 -0.8762 0.8762 0.4819 -232.3518 242.5795)" style="fill:#F68C36;" cx="88.96" cy="317.77" rx="2.09" ry="2.53"/>
		
			<ellipse transform="matrix(0.4819 -0.8762 0.8762 0.4819 -231.1275 282.6651)" style="fill:#F68C36;" cx="123.47" cy="336.78" rx="2.09" ry="2.53"/>
		
			<ellipse transform="matrix(0.4819 -0.8762 0.8762 0.4819 -231.3282 274.6596)" style="fill:#F68C36;" cx="116.6" cy="332.95" rx="2.09" ry="2.53"/>
		
			<ellipse transform="matrix(0.4819 -0.8762 0.8762 0.4819 -231.6282 266.5894)" style="fill:#F68C36;" cx="109.62" cy="329.17" rx="2.09" ry="2.53"/>
		
			<ellipse transform="matrix(0.4819 -0.8762 0.8762 0.4819 -243.4498 210.6788)" style="fill:#F68C36;" cx="56.43" cy="311.21" rx="2.09" ry="2.53"/>
		
			<ellipse transform="matrix(0.4819 -0.8762 0.8762 0.4819 -243.6505 202.6734)" style="fill:#F68C36;" cx="49.56" cy="307.38" rx="2.09" ry="2.53"/>
		
			<ellipse transform="matrix(0.4819 -0.8762 0.8762 0.4819 -243.9505 194.6032)" style="fill:#F68C36;" cx="42.59" cy="303.59" rx="2.09" ry="2.53"/>
		
			<ellipse transform="matrix(0.4819 -0.8762 0.8762 0.4819 -242.7262 234.6888)" style="fill:#F68C36;" cx="77.1" cy="322.6" rx="2.09" ry="2.53"/>
		
			<ellipse transform="matrix(0.4819 -0.8762 0.8762 0.4819 -242.927 226.6833)" style="fill:#F68C36;" cx="70.23" cy="318.77" rx="2.09" ry="2.53"/>
		
			<ellipse transform="matrix(0.4819 -0.8762 0.8762 0.4819 -243.227 218.6131)" style="fill:#F68C36;" cx="63.25" cy="314.99" rx="2.09" ry="2.53"/>
		
			<ellipse transform="matrix(0.4819 -0.8762 0.8762 0.4819 -241.8728 258.9673)" style="fill:#F68C36;" cx="98.05" cy="334.02" rx="2.09" ry="2.53"/>
		
			<ellipse transform="matrix(0.4819 -0.8762 0.8762 0.4819 -242.0735 250.9618)" style="fill:#F68C36;" cx="91.18" cy="330.19" rx="2.09" ry="2.53"/>
		
			<ellipse transform="matrix(0.4819 -0.8762 0.8762 0.4819 -242.3735 242.8916)" style="fill:#F68C36;" cx="84.21" cy="326.4" rx="2.09" ry="2.53"/>
		
			<ellipse transform="matrix(0.4819 -0.8762 0.8762 0.4819 -241.1492 282.9772)" style="fill:#F68C36;" cx="118.72" cy="345.41" rx="2.09" ry="2.53"/>
		
			<ellipse transform="matrix(0.4819 -0.8762 0.8762 0.4819 -241.3499 274.9718)" style="fill:#F68C36;" cx="111.85" cy="341.58" rx="2.09" ry="2.53"/>
		
			<ellipse transform="matrix(0.4819 -0.8762 0.8762 0.4819 -241.6499 266.9016)" style="fill:#F68C36;" cx="104.88" cy="337.8" rx="2.09" ry="2.53"/>
		
			<ellipse transform="matrix(0.4819 -0.8762 0.8762 0.4819 -254.2794 211.0161)" style="fill:#F68C36;" cx="51.3" cy="320.54" rx="2.09" ry="2.53"/>
		
			<ellipse transform="matrix(0.4819 -0.8762 0.8762 0.4819 -254.4802 203.0107)" style="fill:#F68C36;" cx="44.43" cy="316.7" rx="2.09" ry="2.53"/>
		
			<ellipse transform="matrix(0.4819 -0.8762 0.8762 0.4819 -254.7802 194.9405)" style="fill:#F68C36;" cx="37.46" cy="312.92" rx="2.09" ry="2.53"/>
		
			<ellipse transform="matrix(0.4819 -0.8762 0.8762 0.4819 -253.5559 235.0261)" style="fill:#F68C36;" cx="71.97" cy="331.93" rx="2.09" ry="2.53"/>
		
			<ellipse transform="matrix(0.4819 -0.8762 0.8762 0.4819 -253.7566 227.0206)" style="fill:#F68C36;" cx="65.1" cy="328.1" rx="2.09" ry="2.53"/>
		
			<ellipse transform="matrix(0.4819 -0.8762 0.8762 0.4819 -254.0566 218.9505)" style="fill:#F68C36;" cx="58.12" cy="324.31" rx="2.09" ry="2.53"/>
		
			<ellipse transform="matrix(0.4819 -0.8762 0.8762 0.4819 -252.7024 259.3046)" style="fill:#F68C36;" cx="92.93" cy="343.35" rx="2.09" ry="2.53"/>
		
			<ellipse transform="matrix(0.4819 -0.8762 0.8762 0.4819 -252.9032 251.2991)" style="fill:#F68C36;" cx="86.06" cy="339.51" rx="2.09" ry="2.53"/>
		
			<ellipse transform="matrix(0.4819 -0.8762 0.8762 0.4819 -253.2031 243.229)" style="fill:#F68C36;" cx="79.08" cy="335.73" rx="2.09" ry="2.53"/>
		
			<ellipse transform="matrix(0.4819 -0.8762 0.8762 0.4819 -251.9789 283.3145)" style="fill:#F68C36;" cx="113.59" cy="354.74" rx="2.09" ry="2.53"/>
		
			<ellipse transform="matrix(0.4819 -0.8762 0.8762 0.4819 -252.1796 275.3091)" style="fill:#F68C36;" cx="106.72" cy="350.91" rx="2.09" ry="2.53"/>
		
			<ellipse transform="matrix(0.4819 -0.8762 0.8762 0.4819 -252.4796 267.2389)" style="fill:#F68C36;" cx="99.75" cy="347.12" rx="2.09" ry="2.53"/>
		
			<ellipse transform="matrix(0.4819 -0.8762 0.8762 0.4819 -264.3012 211.3283)" style="fill:#F68C36;" cx="46.56" cy="329.17" rx="2.09" ry="2.53"/>
		
			<ellipse transform="matrix(0.4819 -0.8762 0.8762 0.4819 -264.5019 203.3228)" style="fill:#F68C36;" cx="39.69" cy="325.33" rx="2.09" ry="2.53"/>
		
			<ellipse transform="matrix(0.4819 -0.8762 0.8762 0.4819 -264.8019 195.2527)" style="fill:#F68C36;" cx="32.71" cy="321.55" rx="2.09" ry="2.53"/>
		
			<ellipse transform="matrix(0.4819 -0.8762 0.8762 0.4819 -263.5776 235.3382)" style="fill:#F68C36;" cx="67.22" cy="340.56" rx="2.09" ry="2.53"/>
		
			<ellipse transform="matrix(0.4819 -0.8762 0.8762 0.4819 -263.7784 227.3328)" style="fill:#F68C36;" cx="60.35" cy="336.73" rx="2.09" ry="2.53"/>
		
			<ellipse transform="matrix(0.4819 -0.8762 0.8762 0.4819 -264.0783 219.2626)" style="fill:#F68C36;" cx="53.38" cy="332.94" rx="2.09" ry="2.53"/>
		
			<ellipse transform="matrix(0.4819 -0.8762 0.8762 0.4819 -262.7241 259.6167)" style="fill:#F68C36;" cx="88.18" cy="351.98" rx="2.09" ry="2.53"/>
		
			<ellipse transform="matrix(0.4819 -0.8762 0.8762 0.4819 -262.9249 251.6113)" style="fill:#F68C36;" cx="81.31" cy="348.14" rx="2.09" ry="2.53"/>
		
			<ellipse transform="matrix(0.4819 -0.8762 0.8762 0.4819 -263.2249 243.5411)" style="fill:#F68C36;" cx="74.33" cy="344.36" rx="2.09" ry="2.53"/>
		
			<ellipse transform="matrix(0.4819 -0.8762 0.8762 0.4819 -262.0006 283.6267)" style="fill:#F68C36;" cx="108.84" cy="363.37" rx="2.09" ry="2.53"/>
		
			<ellipse transform="matrix(0.4819 -0.8762 0.8762 0.4819 -262.2013 275.6212)" style="fill:#F68C36;" cx="101.97" cy="359.54" rx="2.09" ry="2.53"/>
		
			<ellipse transform="matrix(0.4819 -0.8762 0.8762 0.4819 -262.5013 267.5511)" style="fill:#F68C36;" cx="95" cy="355.76" rx="2.09" ry="2.53"/>
		
			<ellipse transform="matrix(0.4819 -0.8762 0.8762 0.4819 -275.6152 211.6807)" style="fill:#F68C36;" cx="41.2" cy="338.91" rx="2.09" ry="2.53"/>
		
			<ellipse transform="matrix(0.4819 -0.8762 0.8762 0.4819 -275.8159 203.6752)" style="fill:#F68C36;" cx="34.33" cy="335.08" rx="2.09" ry="2.53"/>
		
			<ellipse transform="matrix(0.4819 -0.8762 0.8762 0.4819 -276.1159 195.6051)" style="fill:#F68C36;" cx="27.35" cy="331.3" rx="2.09" ry="2.53"/>
		
			<ellipse transform="matrix(0.4819 -0.8762 0.8762 0.4819 -274.8917 235.6906)" style="fill:#F68C36;" cx="61.86" cy="350.3" rx="2.09" ry="2.53"/>
		
			<ellipse transform="matrix(0.4819 -0.8762 0.8762 0.4819 -275.0924 227.6852)" style="fill:#F68C36;" cx="54.99" cy="346.47" rx="2.09" ry="2.53"/>
		
			<ellipse transform="matrix(0.4819 -0.8762 0.8762 0.4819 -275.3924 219.615)" style="fill:#F68C36;" cx="48.02" cy="342.69" rx="2.09" ry="2.53"/>
		
			<ellipse transform="matrix(0.4819 -0.8762 0.8762 0.4819 -274.0382 259.9691)" style="fill:#F68C36;" cx="82.82" cy="361.72" rx="2.09" ry="2.53"/>
		
			<ellipse transform="matrix(0.4819 -0.8762 0.8762 0.4819 -274.2389 251.9637)" style="fill:#F68C36;" cx="75.95" cy="357.89" rx="2.09" ry="2.53"/>
		
			<ellipse transform="matrix(0.4819 -0.8762 0.8762 0.4819 -274.5389 243.8935)" style="fill:#F68C36;" cx="68.97" cy="354.11" rx="2.09" ry="2.53"/>
		
			<ellipse transform="matrix(0.4819 -0.8762 0.8762 0.4819 -273.3146 283.9791)" style="fill:#F68C36;" cx="103.48" cy="373.11" rx="2.09" ry="2.53"/>
		
			<ellipse transform="matrix(0.4819 -0.8762 0.8762 0.4819 -273.5154 275.9737)" style="fill:#F68C36;" cx="96.61" cy="369.28" rx="2.09" ry="2.53"/>
		
			<ellipse transform="matrix(0.4819 -0.8762 0.8762 0.4819 -273.8153 267.9035)" style="fill:#F68C36;" cx="89.64" cy="365.5" rx="2.09" ry="2.53"/>
		
			<ellipse transform="matrix(0.4819 -0.8762 0.8762 0.4819 -285.6369 211.9928)" style="fill:#F68C36;" cx="36.45" cy="347.54" rx="2.09" ry="2.53"/>
		
			<ellipse transform="matrix(0.4819 -0.8762 0.8762 0.4819 -285.8376 203.9874)" style="fill:#F68C36;" cx="29.58" cy="343.71" rx="2.09" ry="2.53"/>
		
			<ellipse transform="matrix(0.4819 -0.8762 0.8762 0.4819 -286.1377 195.9172)" style="fill:#F68C36;" cx="22.61" cy="339.93" rx="2.09" ry="2.53"/>
		
			<ellipse transform="matrix(0.4819 -0.8762 0.8762 0.4819 -284.9134 236.0028)" style="fill:#F68C36;" cx="57.11" cy="358.93" rx="2.09" ry="2.53"/>
		
			<ellipse transform="matrix(0.4819 -0.8762 0.8762 0.4819 -285.1141 227.9974)" style="fill:#F68C36;" cx="50.24" cy="355.1" rx="2.09" ry="2.53"/>
		
			<ellipse transform="matrix(0.4819 -0.8762 0.8762 0.4819 -285.4141 219.9272)" style="fill:#F68C36;" cx="43.27" cy="351.32" rx="2.09" ry="2.53"/>
		
			<ellipse transform="matrix(0.4819 -0.8762 0.8762 0.4819 -284.0599 260.2813)" style="fill:#F68C36;" cx="78.07" cy="370.35" rx="2.09" ry="2.53"/>
		
			<ellipse transform="matrix(0.4819 -0.8762 0.8762 0.4819 -284.2606 252.2759)" style="fill:#F68C36;" cx="71.2" cy="366.52" rx="2.09" ry="2.53"/>
		
			<ellipse transform="matrix(0.4819 -0.8762 0.8762 0.4819 -284.5606 244.2057)" style="fill:#F68C36;" cx="64.23" cy="362.74" rx="2.09" ry="2.53"/>
		
			<ellipse transform="matrix(0.4819 -0.8762 0.8762 0.4819 -283.3363 284.2913)" style="fill:#F68C36;" cx="98.74" cy="381.74" rx="2.09" ry="2.53"/>
		
			<ellipse transform="matrix(0.4819 -0.8762 0.8762 0.4819 -283.5371 276.2858)" style="fill:#F68C36;" cx="91.87" cy="377.91" rx="2.09" ry="2.53"/>
		
			<ellipse transform="matrix(0.4819 -0.8762 0.8762 0.4819 -283.8371 268.2156)" style="fill:#F68C36;" cx="84.89" cy="374.13" rx="2.09" ry="2.53"/>
		
			<ellipse transform="matrix(0.4819 -0.8762 0.8762 0.4819 -296.8684 212.3427)" style="fill:#F68C36;" cx="31.13" cy="357.21" rx="2.09" ry="2.53"/>
		
			<ellipse transform="matrix(0.4819 -0.8762 0.8762 0.4819 -297.0691 204.3372)" style="fill:#F68C36;" cx="24.26" cy="353.38" rx="2.09" ry="2.53"/>
		
			<ellipse transform="matrix(0.4819 -0.8762 0.8762 0.4819 -297.3691 196.2671)" style="fill:#F68C36;" cx="17.29" cy="349.6" rx="2.09" ry="2.53"/>
		
			<ellipse transform="matrix(0.4819 -0.8762 0.8762 0.4819 -296.1448 236.3526)" style="fill:#F68C36;" cx="51.8" cy="368.61" rx="2.09" ry="2.53"/>
		
			<ellipse transform="matrix(0.4819 -0.8762 0.8762 0.4819 -296.3456 228.3472)" style="fill:#F68C36;" cx="44.93" cy="364.77" rx="2.09" ry="2.53"/>
		
			<ellipse transform="matrix(0.4819 -0.8762 0.8762 0.4819 -296.6456 220.277)" style="fill:#F68C36;" cx="37.95" cy="360.99" rx="2.09" ry="2.53"/>
		
			<ellipse transform="matrix(0.4819 -0.8762 0.8762 0.4819 -295.2914 260.6311)" style="fill:#F68C36;" cx="72.75" cy="380.02" rx="2.09" ry="2.53"/>
		
			<ellipse transform="matrix(0.4819 -0.8762 0.8762 0.4819 -295.4921 252.6257)" style="fill:#F68C36;" cx="65.88" cy="376.19" rx="2.09" ry="2.53"/>
		
			<ellipse transform="matrix(0.4819 -0.8762 0.8762 0.4819 -295.7921 244.5555)" style="fill:#F68C36;" cx="58.91" cy="372.41" rx="2.09" ry="2.53"/>
		
			<ellipse transform="matrix(0.4819 -0.8762 0.8762 0.4819 -294.5678 284.6411)" style="fill:#F68C36;" cx="93.42" cy="391.42" rx="2.09" ry="2.53"/>
		
			<ellipse transform="matrix(0.4819 -0.8762 0.8762 0.4819 -294.7686 276.6357)" style="fill:#F68C36;" cx="86.55" cy="387.58" rx="2.09" ry="2.53"/>
		
			<ellipse transform="matrix(0.4819 -0.8762 0.8762 0.4819 -295.0685 268.5655)" style="fill:#F68C36;" cx="79.57" cy="383.8" rx="2.09" ry="2.53"/>
		
			<ellipse transform="matrix(0.4819 -0.8762 0.8762 0.4819 -306.8901 212.6548)" style="fill:#F68C36;" cx="26.38" cy="365.84" rx="2.09" ry="2.53"/>
		
			<ellipse transform="matrix(0.4819 -0.8762 0.8762 0.4819 -307.0909 204.6494)" style="fill:#F68C36;" cx="19.51" cy="362.01" rx="2.09" ry="2.53"/>
		
			<ellipse transform="matrix(0.4819 -0.8762 0.8762 0.4819 -307.3908 196.5792)" style="fill:#F68C36;" cx="12.54" cy="358.23" rx="2.09" ry="2.53"/>
		
			<ellipse transform="matrix(0.4819 -0.8762 0.8762 0.4819 -306.1666 236.6648)" style="fill:#F68C36;" cx="47.05" cy="377.24" rx="2.09" ry="2.53"/>
		
			<ellipse transform="matrix(0.4819 -0.8762 0.8762 0.4819 -306.3673 228.6593)" style="fill:#F68C36;" cx="40.18" cy="373.4" rx="2.09" ry="2.53"/>
		
			<ellipse transform="matrix(0.4819 -0.8762 0.8762 0.4819 -306.6673 220.5892)" style="fill:#F68C36;" cx="33.2" cy="369.62" rx="2.09" ry="2.53"/>
		
			<ellipse transform="matrix(0.4819 -0.8762 0.8762 0.4819 -305.3131 260.9433)" style="fill:#F68C36;" cx="68.01" cy="388.65" rx="2.09" ry="2.53"/>
		
			<ellipse transform="matrix(0.4819 -0.8762 0.8762 0.4819 -305.5138 252.9379)" style="fill:#F68C36;" cx="61.14" cy="384.82" rx="2.09" ry="2.53"/>
		
			<ellipse transform="matrix(0.4819 -0.8762 0.8762 0.4819 -305.8138 244.8677)" style="fill:#F68C36;" cx="54.16" cy="381.04" rx="2.09" ry="2.53"/>
		
			<ellipse transform="matrix(0.4819 -0.8762 0.8762 0.4819 -304.5895 284.9532)" style="fill:#F68C36;" cx="88.67" cy="400.05" rx="2.09" ry="2.53"/>
		
			<ellipse transform="matrix(0.4819 -0.8762 0.8762 0.4819 -304.7903 276.9478)" style="fill:#F68C36;" cx="81.8" cy="396.21" rx="2.09" ry="2.53"/>
		
			<ellipse transform="matrix(0.4819 -0.8762 0.8762 0.4819 -305.0902 268.8776)" style="fill:#F68C36;" cx="74.83" cy="392.43" rx="2.09" ry="2.53"/>
		
			<ellipse transform="matrix(0.4819 -0.8762 0.8762 0.4819 -318.2042 213.0073)" style="fill:#F68C36;" cx="21.02" cy="375.59" rx="2.09" ry="2.53"/>
		
			<ellipse transform="matrix(0.4819 -0.8762 0.8762 0.4819 -318.4049 205.0018)" style="fill:#F68C36;" cx="14.15" cy="371.75" rx="2.09" ry="2.53"/>
		
			<ellipse transform="matrix(0.4819 -0.8762 0.8762 0.4819 -318.7049 196.9316)" style="fill:#F68C36;" cx="7.18" cy="367.97" rx="2.09" ry="2.53"/>
		
			<ellipse transform="matrix(0.4819 -0.8762 0.8762 0.4819 -317.4806 237.0172)" style="fill:#F68C36;" cx="41.69" cy="386.98" rx="2.09" ry="2.53"/>
		
			<ellipse transform="matrix(0.4819 -0.8762 0.8762 0.4819 -317.6813 229.0118)" style="fill:#F68C36;" cx="34.82" cy="383.15" rx="2.09" ry="2.53"/>
		
			<ellipse transform="matrix(0.4819 -0.8762 0.8762 0.4819 -317.9813 220.9416)" style="fill:#F68C36;" cx="27.84" cy="379.37" rx="2.09" ry="2.53"/>
		
			<ellipse transform="matrix(0.4819 -0.8762 0.8762 0.4819 -316.6271 261.2957)" style="fill:#F68C36;" cx="62.65" cy="398.4" rx="2.09" ry="2.53"/>
		
			<ellipse transform="matrix(0.4819 -0.8762 0.8762 0.4819 -316.8279 253.2903)" style="fill:#F68C36;" cx="55.78" cy="394.57" rx="2.09" ry="2.53"/>
		
			<ellipse transform="matrix(0.4819 -0.8762 0.8762 0.4819 -317.1278 245.2201)" style="fill:#F68C36;" cx="48.8" cy="390.78" rx="2.09" ry="2.53"/>
		
			<ellipse transform="matrix(0.4819 -0.8762 0.8762 0.4819 -315.9036 285.3057)" style="fill:#F68C36;" cx="83.31" cy="409.79" rx="2.09" ry="2.53"/>
		
			<ellipse transform="matrix(0.4819 -0.8762 0.8762 0.4819 -316.1043 277.3002)" style="fill:#F68C36;" cx="76.44" cy="405.96" rx="2.09" ry="2.53"/>
		
			<ellipse transform="matrix(0.4819 -0.8762 0.8762 0.4819 -316.4043 269.23)" style="fill:#F68C36;" cx="69.47" cy="402.18" rx="2.09" ry="2.53"/>
		
			<ellipse transform="matrix(0.4819 -0.8762 0.8762 0.4819 -328.2259 213.3194)" style="fill:#F68C36;" cx="16.28" cy="384.22" rx="2.09" ry="2.53"/>
		
			<ellipse transform="matrix(0.4819 -0.8762 0.8762 0.4819 -328.4266 205.314)" style="fill:#F68C36;" cx="9.41" cy="380.39" rx="2.09" ry="2.53"/>
		
			<ellipse transform="matrix(0.4819 -0.8762 0.8762 0.4819 -328.7266 197.2438)" style="fill:#F68C36;" cx="2.43" cy="376.6" rx="2.09" ry="2.53"/>
		
			<ellipse transform="matrix(0.4819 -0.8762 0.8762 0.4819 -327.5023 237.3294)" style="fill:#F68C36;" cx="36.94" cy="395.61" rx="2.09" ry="2.53"/>
		
			<ellipse transform="matrix(0.4819 -0.8762 0.8762 0.4819 -327.7031 229.3239)" style="fill:#F68C36;" cx="30.07" cy="391.78" rx="2.09" ry="2.53"/>
		
			<ellipse transform="matrix(0.4819 -0.8762 0.8762 0.4819 -328.0031 221.2537)" style="fill:#F68C36;" cx="23.1" cy="388" rx="2.09" ry="2.53"/>
		
			<ellipse transform="matrix(0.4819 -0.8762 0.8762 0.4819 -326.6488 261.6079)" style="fill:#F68C36;" cx="57.9" cy="407.03" rx="2.09" ry="2.53"/>
		
			<ellipse transform="matrix(0.4819 -0.8762 0.8762 0.4819 -326.8496 253.6024)" style="fill:#F68C36;" cx="51.03" cy="403.2" rx="2.09" ry="2.53"/>
		
			<ellipse transform="matrix(0.4819 -0.8762 0.8762 0.4819 -327.1496 245.5322)" style="fill:#F68C36;" cx="44.06" cy="399.41" rx="2.09" ry="2.53"/>
		
			<ellipse transform="matrix(0.4819 -0.8762 0.8762 0.4819 -325.9253 285.6178)" style="fill:#F68C36;" cx="78.57" cy="418.42" rx="2.09" ry="2.53"/>
		
			<ellipse transform="matrix(0.4819 -0.8762 0.8762 0.4819 -326.126 277.6124)" style="fill:#F68C36;" cx="71.7" cy="414.59" rx="2.09" ry="2.53"/>
		
			<ellipse transform="matrix(0.4819 -0.8762 0.8762 0.4819 -326.426 269.5422)" style="fill:#F68C36;" cx="64.72" cy="410.81" rx="2.09" ry="2.53"/>
		
			<ellipse transform="matrix(0.4819 -0.8762 0.8762 0.4819 -166.7371 296.2506)" style="fill:#F68C36;" cx="167.15" cy="289.12" rx="2.09" ry="2.53"/>
		
			<ellipse transform="matrix(0.4819 -0.8762 0.8762 0.4819 -166.9378 288.2452)" style="fill:#F68C36;" cx="160.28" cy="285.29" rx="2.09" ry="2.53"/>
		
			<ellipse transform="matrix(0.4819 -0.8762 0.8762 0.4819 -176.7588 296.5628)" style="fill:#F68C36;" cx="162.4" cy="297.75" rx="2.09" ry="2.53"/>
		
			<ellipse transform="matrix(0.4819 -0.8762 0.8762 0.4819 -176.9595 288.5573)" style="fill:#F68C36;" cx="155.53" cy="293.92" rx="2.09" ry="2.53"/>
		
			<ellipse transform="matrix(0.4819 -0.8762 0.8762 0.4819 -188.0729 296.9152)" style="fill:#F68C36;" cx="157.04" cy="307.5" rx="2.09" ry="2.53"/>
		
			<ellipse transform="matrix(0.4819 -0.8762 0.8762 0.4819 -188.2736 288.9098)" style="fill:#F68C36;" cx="150.17" cy="303.67" rx="2.09" ry="2.53"/>
		
			<ellipse transform="matrix(0.4819 -0.8762 0.8762 0.4819 -198.0946 297.2274)" style="fill:#F68C36;" cx="152.3" cy="316.13" rx="2.09" ry="2.53"/>
		
			<ellipse transform="matrix(0.4819 -0.8762 0.8762 0.4819 -198.2953 289.2219)" style="fill:#F68C36;" cx="145.43" cy="312.3" rx="2.09" ry="2.53"/>
		
			<ellipse transform="matrix(0.4819 -0.8762 0.8762 0.4819 -209.326 297.5772)" style="fill:#F68C36;" cx="146.98" cy="325.8" rx="2.09" ry="2.53"/>
		
			<ellipse transform="matrix(0.4819 -0.8762 0.8762 0.4819 -209.5268 289.5717)" style="fill:#F68C36;" cx="140.11" cy="321.97" rx="2.09" ry="2.53"/>
		
			<ellipse transform="matrix(0.4819 -0.8762 0.8762 0.4819 -219.3478 297.8893)" style="fill:#F68C36;" cx="142.23" cy="334.43" rx="2.09" ry="2.53"/>
		
			<ellipse transform="matrix(0.4819 -0.8762 0.8762 0.4819 -219.5485 289.8839)" style="fill:#F68C36;" cx="135.36" cy="330.6" rx="2.09" ry="2.53"/>
		
			<ellipse transform="matrix(0.4819 -0.8762 0.8762 0.4819 -230.6618 298.2418)" style="fill:#F68C36;" cx="136.87" cy="344.18" rx="2.09" ry="2.53"/>
		
			<ellipse transform="matrix(0.4819 -0.8762 0.8762 0.4819 -230.8625 290.2363)" style="fill:#F68C36;" cx="130" cy="340.34" rx="2.09" ry="2.53"/>
		
			<ellipse transform="matrix(0.4819 -0.8762 0.8762 0.4819 -240.6835 298.5539)" style="fill:#F68C36;" cx="132.13" cy="352.81" rx="2.09" ry="2.53"/>
		
			<ellipse transform="matrix(0.4819 -0.8762 0.8762 0.4819 -240.8843 290.5485)" style="fill:#F68C36;" cx="125.26" cy="348.97" rx="2.09" ry="2.53"/>
		
			<ellipse transform="matrix(0.4819 -0.8762 0.8762 0.4819 -251.5132 298.8912)" style="fill:#F68C36;" cx="127" cy="362.13" rx="2.09" ry="2.53"/>
		
			<ellipse transform="matrix(0.4819 -0.8762 0.8762 0.4819 -251.7139 290.8858)" style="fill:#F68C36;" cx="120.13" cy="358.3" rx="2.09" ry="2.53"/>
		
			<ellipse transform="matrix(0.4819 -0.8762 0.8762 0.4819 -261.5349 299.2034)" style="fill:#F68C36;" cx="122.25" cy="370.76" rx="2.09" ry="2.53"/>
		
			<ellipse transform="matrix(0.4819 -0.8762 0.8762 0.4819 -261.7356 291.198)" style="fill:#F68C36;" cx="115.38" cy="366.93" rx="2.09" ry="2.53"/>
		
			<ellipse transform="matrix(0.4819 -0.8762 0.8762 0.4819 -272.8489 299.5558)" style="fill:#F68C36;" cx="116.89" cy="380.51" rx="2.09" ry="2.53"/>
		
			<ellipse transform="matrix(0.4819 -0.8762 0.8762 0.4819 -273.0497 291.5504)" style="fill:#F68C36;" cx="110.02" cy="376.67" rx="2.09" ry="2.53"/>
		
			<ellipse transform="matrix(0.4819 -0.8762 0.8762 0.4819 -282.8707 299.868)" style="fill:#F68C36;" cx="112.14" cy="389.14" rx="2.09" ry="2.53"/>
		
			<ellipse transform="matrix(0.4819 -0.8762 0.8762 0.4819 -283.0714 291.8625)" style="fill:#F68C36;" cx="105.27" cy="385.31" rx="2.09" ry="2.53"/>
		
			<ellipse transform="matrix(0.4819 -0.8762 0.8762 0.4819 -294.1021 300.2178)" style="fill:#F68C36;" cx="106.82" cy="398.81" rx="2.09" ry="2.53"/>
		
			<ellipse transform="matrix(0.4819 -0.8762 0.8762 0.4819 -294.3029 292.2124)" style="fill:#F68C36;" cx="99.95" cy="394.98" rx="2.09" ry="2.53"/>
		
			<ellipse transform="matrix(0.4819 -0.8762 0.8762 0.4819 -304.1238 300.53)" style="fill:#F68C36;" cx="102.08" cy="407.44" rx="2.09" ry="2.53"/>
		
			<ellipse transform="matrix(0.4819 -0.8762 0.8762 0.4819 -304.3246 292.5245)" style="fill:#F68C36;" cx="95.21" cy="403.61" rx="2.09" ry="2.53"/>
		
			<ellipse transform="matrix(0.4819 -0.8762 0.8762 0.4819 -315.4379 300.8824)" style="fill:#F68C36;" cx="96.72" cy="417.19" rx="2.09" ry="2.53"/>
		
			<ellipse transform="matrix(0.4819 -0.8762 0.8762 0.4819 -315.6386 292.8769)" style="fill:#F68C36;" cx="89.85" cy="413.35" rx="2.09" ry="2.53"/>
		
			<ellipse transform="matrix(0.4819 -0.8762 0.8762 0.4819 -325.4596 301.1945)" style="fill:#F68C36;" cx="91.97" cy="425.82" rx="2.09" ry="2.53"/>
		
			<ellipse transform="matrix(0.4819 -0.8762 0.8762 0.4819 -325.6603 293.1891)" style="fill:#F68C36;" cx="85.1" cy="421.98" rx="2.09" ry="2.53"/>
		
			<ellipse transform="matrix(0.4819 -0.8762 0.8762 0.4819 -276.2452 187.5526)" style="fill:#F68C36;" cx="20.48" cy="327.38" rx="2.09" ry="2.53"/>
		
			<ellipse transform="matrix(0.4819 -0.8762 0.8762 0.4819 -276.6629 178.8262)" style="fill:#F68C36;" cx="12.89" cy="323.37" rx="2.09" ry="2.53"/>
		
			<ellipse transform="matrix(0.4819 -0.8762 0.8762 0.4819 -244.0056 186.5918)" style="fill:#F68C36;" cx="35.79" cy="299.63" rx="2.09" ry="2.53"/>
		
			<ellipse transform="matrix(0.4819 -0.8762 0.8762 0.4819 -244.4232 177.8653)" style="fill:#F68C36;" cx="28.2" cy="295.62" rx="2.09" ry="2.53"/>
		
			<ellipse transform="matrix(0.4819 -0.8762 0.8762 0.4819 -222.8136 186.6213)" style="fill:#F68C36;" cx="46.41" cy="281.73" rx="2.09" ry="2.53"/>
		
			<ellipse transform="matrix(0.4819 -0.8762 0.8762 0.4819 -201.4004 186.1825)" style="fill:#F68C36;" cx="56.74" cy="263.4" rx="2.09" ry="2.53"/>
		
			<ellipse transform="matrix(0.4819 -0.8762 0.8762 0.4819 -201.8181 177.456)" style="fill:#F68C36;" cx="49.15" cy="259.39" rx="2.09" ry="2.53"/>
	</g>
	<g>
		
			<ellipse transform="matrix(0.8743 -0.4854 0.4854 0.8743 0.1498 114.7414)" style="fill:#F68C36;" cx="221.62" cy="57.08" rx="1.83" ry="1.52"/>
		
			<ellipse transform="matrix(0.8743 -0.4854 0.4854 0.8743 -1.8056 112.6595)" style="fill:#F68C36;" cx="216.62" cy="59.82" rx="1.83" ry="1.52"/>
		
			<ellipse transform="matrix(0.8743 -0.4854 0.4854 0.8743 -3.8029 110.5841)" style="fill:#F68C36;" cx="211.62" cy="62.63" rx="1.83" ry="1.52"/>
		
			<ellipse transform="matrix(0.8743 -0.4854 0.4854 0.8743 6.0469 120.9564)" style="fill:#F68C36;" cx="236.57" cy="48.8" rx="1.83" ry="1.52"/>
		
			<ellipse transform="matrix(0.8743 -0.4854 0.4854 0.8743 4.0915 118.8745)" style="fill:#F68C36;" cx="231.57" cy="51.54" rx="1.83" ry="1.52"/>
		
			<ellipse transform="matrix(0.8743 -0.4854 0.4854 0.8743 2.0942 116.799)" style="fill:#F68C36;" cx="226.57" cy="54.36" rx="1.83" ry="1.52"/>
		
			<ellipse transform="matrix(0.8743 -0.4854 0.4854 0.8743 12.0424 127.2119)" style="fill:#F68C36;" cx="251.65" cy="40.35" rx="1.83" ry="1.52"/>
		
			<ellipse transform="matrix(0.8743 -0.4854 0.4854 0.8743 10.0869 125.1301)" style="fill:#F68C36;" cx="246.65" cy="43.09" rx="1.83" ry="1.52"/>
		
			<ellipse transform="matrix(0.8743 -0.4854 0.4854 0.8743 8.0897 123.0546)" style="fill:#F68C36;" cx="241.64" cy="45.91" rx="1.83" ry="1.52"/>
		
			<ellipse transform="matrix(0.8743 -0.4854 0.4854 0.8743 17.9394 133.4269)" style="fill:#F68C36;" cx="266.59" cy="32.08" rx="1.83" ry="1.52"/>
		
			<ellipse transform="matrix(0.8743 -0.4854 0.4854 0.8743 15.984 131.345)" style="fill:#F68C36;" cx="261.6" cy="34.81" rx="1.83" ry="1.52"/>
		
			<ellipse transform="matrix(0.8743 -0.4854 0.4854 0.8743 13.9868 129.2696)" style="fill:#F68C36;" cx="256.59" cy="37.63" rx="1.83" ry="1.52"/>
		
			<ellipse transform="matrix(0.8743 -0.4854 0.4854 0.8743 -2.4419 117.2055)" style="fill:#F68C36;" cx="225.08" cy="63.32" rx="1.83" ry="1.52"/>
		
			<ellipse transform="matrix(0.8743 -0.4854 0.4854 0.8743 -4.3973 115.1237)" style="fill:#F68C36;" cx="220.09" cy="66.05" rx="1.83" ry="1.52"/>
		
			<ellipse transform="matrix(0.8743 -0.4854 0.4854 0.8743 -6.3946 113.0482)" style="fill:#F68C36;" cx="215.08" cy="68.87" rx="1.83" ry="1.52"/>
		
			<ellipse transform="matrix(0.8743 -0.4854 0.4854 0.8743 3.4552 123.4205)" style="fill:#F68C36;" cx="240.03" cy="55.04" rx="1.83" ry="1.52"/>
		
			<ellipse transform="matrix(0.8743 -0.4854 0.4854 0.8743 1.4998 121.3387)" style="fill:#F68C36;" cx="235.03" cy="57.77" rx="1.83" ry="1.52"/>
		
			<ellipse transform="matrix(0.8743 -0.4854 0.4854 0.8743 -0.4975 119.2632)" style="fill:#F68C36;" cx="230.03" cy="60.59" rx="1.83" ry="1.52"/>
		
			<ellipse transform="matrix(0.8743 -0.4854 0.4854 0.8743 9.4506 129.676)" style="fill:#F68C36;" cx="255.11" cy="46.59" rx="1.83" ry="1.52"/>
		
			<ellipse transform="matrix(0.8743 -0.4854 0.4854 0.8743 7.4952 127.5942)" style="fill:#F68C36;" cx="250.11" cy="49.33" rx="1.83" ry="1.52"/>
		
			<ellipse transform="matrix(0.8743 -0.4854 0.4854 0.8743 5.498 125.5187)" style="fill:#F68C36;" cx="245.1" cy="52.14" rx="1.83" ry="1.52"/>
		
			<ellipse transform="matrix(0.8743 -0.4854 0.4854 0.8743 15.3477 135.891)" style="fill:#F68C36;" cx="270.06" cy="38.31" rx="1.83" ry="1.52"/>
		
			<ellipse transform="matrix(0.8743 -0.4854 0.4854 0.8743 13.3923 133.8092)" style="fill:#F68C36;" cx="265.06" cy="41.05" rx="1.83" ry="1.52"/>
		
			<ellipse transform="matrix(0.8743 -0.4854 0.4854 0.8743 11.3951 131.7337)" style="fill:#F68C36;" cx="260.05" cy="43.86" rx="1.83" ry="1.52"/>
		
			<ellipse transform="matrix(0.8743 -0.4854 0.4854 0.8743 -5.3678 119.9874)" style="fill:#F68C36;" cx="228.99" cy="70.36" rx="1.83" ry="1.52"/>
		
			<ellipse transform="matrix(0.8743 -0.4854 0.4854 0.8743 -7.3233 117.9056)" style="fill:#F68C36;" cx="223.99" cy="73.09" rx="1.83" ry="1.52"/>
		
			<ellipse transform="matrix(0.8743 -0.4854 0.4854 0.8743 -9.3205 115.8301)" style="fill:#F68C36;" cx="218.99" cy="75.91" rx="1.83" ry="1.52"/>
		
			<ellipse transform="matrix(0.8743 -0.4854 0.4854 0.8743 0.5293 126.2024)" style="fill:#F68C36;" cx="243.94" cy="62.08" rx="1.83" ry="1.52"/>
		
			<ellipse transform="matrix(0.8743 -0.4854 0.4854 0.8743 -1.4262 124.1205)" style="fill:#F68C36;" cx="238.94" cy="64.81" rx="1.83" ry="1.52"/>
		
			<ellipse transform="matrix(0.8743 -0.4854 0.4854 0.8743 -3.4234 122.0451)" style="fill:#F68C36;" cx="233.94" cy="67.63" rx="1.83" ry="1.52"/>
		
			<ellipse transform="matrix(0.8743 -0.4854 0.4854 0.8743 6.5247 132.4579)" style="fill:#F68C36;" cx="259.02" cy="53.63" rx="1.83" ry="1.52"/>
		
			<ellipse transform="matrix(0.8743 -0.4854 0.4854 0.8743 4.5693 130.3761)" style="fill:#F68C36;" cx="254.02" cy="56.37" rx="1.83" ry="1.52"/>
		
			<ellipse transform="matrix(0.8743 -0.4854 0.4854 0.8743 2.5721 128.3006)" style="fill:#F68C36;" cx="249.01" cy="59.18" rx="1.83" ry="1.52"/>
		
			<ellipse transform="matrix(0.8743 -0.4854 0.4854 0.8743 12.4218 138.6729)" style="fill:#F68C36;" cx="273.96" cy="45.35" rx="1.83" ry="1.52"/>
		
			<ellipse transform="matrix(0.8743 -0.4854 0.4854 0.8743 10.4664 136.591)" style="fill:#F68C36;" cx="268.97" cy="48.09" rx="1.83" ry="1.52"/>
		
			<ellipse transform="matrix(0.8743 -0.4854 0.4854 0.8743 8.4692 134.5156)" style="fill:#F68C36;" cx="263.96" cy="50.91" rx="1.83" ry="1.52"/>
		
			<ellipse transform="matrix(0.8743 -0.4854 0.4854 0.8743 -7.9595 122.4515)" style="fill:#F68C36;" cx="232.45" cy="76.59" rx="1.83" ry="1.52"/>
		
			<ellipse transform="matrix(0.8743 -0.4854 0.4854 0.8743 -9.915 120.3697)" style="fill:#F68C36;" cx="227.46" cy="79.33" rx="1.83" ry="1.52"/>
		
			<ellipse transform="matrix(0.8743 -0.4854 0.4854 0.8743 -11.9122 118.2942)" style="fill:#F68C36;" cx="222.45" cy="82.15" rx="1.83" ry="1.52"/>
		
			<ellipse transform="matrix(0.8743 -0.4854 0.4854 0.8743 -2.0624 128.6665)" style="fill:#F68C36;" cx="247.4" cy="68.32" rx="1.83" ry="1.52"/>
		
			<ellipse transform="matrix(0.8743 -0.4854 0.4854 0.8743 -4.0179 126.5847)" style="fill:#F68C36;" cx="242.4" cy="71.05" rx="1.83" ry="1.52"/>
		
			<ellipse transform="matrix(0.8743 -0.4854 0.4854 0.8743 -6.0151 124.5092)" style="fill:#F68C36;" cx="237.4" cy="73.87" rx="1.83" ry="1.52"/>
		
			<ellipse transform="matrix(0.8743 -0.4854 0.4854 0.8743 3.933 134.9221)" style="fill:#F68C36;" cx="262.48" cy="59.87" rx="1.83" ry="1.52"/>
		
			<ellipse transform="matrix(0.8743 -0.4854 0.4854 0.8743 1.9776 132.8402)" style="fill:#F68C36;" cx="257.48" cy="62.6" rx="1.83" ry="1.52"/>
		
			<ellipse transform="matrix(0.8743 -0.4854 0.4854 0.8743 -0.0196 130.7647)" style="fill:#F68C36;" cx="252.47" cy="65.42" rx="1.83" ry="1.52"/>
		
			<ellipse transform="matrix(0.8743 -0.4854 0.4854 0.8743 9.8301 141.137)" style="fill:#F68C36;" cx="277.43" cy="51.59" rx="1.83" ry="1.52"/>
		
			<ellipse transform="matrix(0.8743 -0.4854 0.4854 0.8743 7.8747 139.0552)" style="fill:#F68C36;" cx="272.43" cy="54.32" rx="1.83" ry="1.52"/>
		
			<ellipse transform="matrix(0.8743 -0.4854 0.4854 0.8743 5.8774 136.9797)" style="fill:#F68C36;" cx="267.42" cy="57.14" rx="1.83" ry="1.52"/>
		
			<ellipse transform="matrix(0.8743 -0.4854 0.4854 0.8743 -10.8641 125.2131)" style="fill:#F68C36;" cx="236.33" cy="83.58" rx="1.83" ry="1.52"/>
		
			<ellipse transform="matrix(0.8743 -0.4854 0.4854 0.8743 -12.8195 123.1313)" style="fill:#F68C36;" cx="231.34" cy="86.32" rx="1.83" ry="1.52"/>
		
			<ellipse transform="matrix(0.8743 -0.4854 0.4854 0.8743 -14.8167 121.0558)" style="fill:#F68C36;" cx="226.33" cy="89.14" rx="1.83" ry="1.52"/>
		
			<ellipse transform="matrix(0.8743 -0.4854 0.4854 0.8743 -4.967 131.4281)" style="fill:#F68C36;" cx="251.28" cy="75.3" rx="1.83" ry="1.52"/>
		
			<ellipse transform="matrix(0.8743 -0.4854 0.4854 0.8743 -6.9224 129.3463)" style="fill:#F68C36;" cx="246.28" cy="78.04" rx="1.83" ry="1.52"/>
		
			<ellipse transform="matrix(0.8743 -0.4854 0.4854 0.8743 -8.9197 127.2708)" style="fill:#F68C36;" cx="241.28" cy="80.86" rx="1.83" ry="1.52"/>
		
			<ellipse transform="matrix(0.8743 -0.4854 0.4854 0.8743 1.0285 137.6836)" style="fill:#F68C36;" cx="266.36" cy="66.86" rx="1.83" ry="1.52"/>
		
			<ellipse transform="matrix(0.8743 -0.4854 0.4854 0.8743 -0.927 135.6018)" style="fill:#F68C36;" cx="261.36" cy="69.59" rx="1.83" ry="1.52"/>
		
			<ellipse transform="matrix(0.8743 -0.4854 0.4854 0.8743 -2.9242 133.5263)" style="fill:#F68C36;" cx="256.35" cy="72.41" rx="1.83" ry="1.52"/>
		
			<ellipse transform="matrix(0.8743 -0.4854 0.4854 0.8743 6.9255 143.8986)" style="fill:#F68C36;" cx="281.31" cy="58.58" rx="1.83" ry="1.52"/>
		
			<ellipse transform="matrix(0.8743 -0.4854 0.4854 0.8743 4.9701 141.8168)" style="fill:#F68C36;" cx="276.31" cy="61.31" rx="1.83" ry="1.52"/>
		
			<ellipse transform="matrix(0.8743 -0.4854 0.4854 0.8743 2.9729 139.7413)" style="fill:#F68C36;" cx="271.3" cy="64.13" rx="1.83" ry="1.52"/>
		
			<ellipse transform="matrix(0.8743 -0.4854 0.4854 0.8743 -13.4558 127.6773)" style="fill:#F68C36;" cx="239.79" cy="89.82" rx="1.83" ry="1.52"/>
		
			<ellipse transform="matrix(0.8743 -0.4854 0.4854 0.8743 -15.4112 125.5954)" style="fill:#F68C36;" cx="234.8" cy="92.55" rx="1.83" ry="1.52"/>
		
			<ellipse transform="matrix(0.8743 -0.4854 0.4854 0.8743 -17.4085 123.52)" style="fill:#F68C36;" cx="229.79" cy="95.37" rx="1.83" ry="1.52"/>
		
			<ellipse transform="matrix(0.8743 -0.4854 0.4854 0.8743 -7.5587 133.8922)" style="fill:#F68C36;" cx="254.74" cy="81.54" rx="1.83" ry="1.52"/>
		
			<ellipse transform="matrix(0.8743 -0.4854 0.4854 0.8743 -9.5141 131.8104)" style="fill:#F68C36;" cx="249.75" cy="84.28" rx="1.83" ry="1.52"/>
		
			<ellipse transform="matrix(0.8743 -0.4854 0.4854 0.8743 -11.5114 129.7349)" style="fill:#F68C36;" cx="244.74" cy="87.09" rx="1.83" ry="1.52"/>
		
			<ellipse transform="matrix(0.8743 -0.4854 0.4854 0.8743 -1.5633 140.1478)" style="fill:#F68C36;" cx="269.82" cy="73.09" rx="1.83" ry="1.52"/>
		
			<ellipse transform="matrix(0.8743 -0.4854 0.4854 0.8743 -3.5187 138.0659)" style="fill:#F68C36;" cx="264.82" cy="75.83" rx="1.83" ry="1.52"/>
		
			<ellipse transform="matrix(0.8743 -0.4854 0.4854 0.8743 -5.5159 135.9905)" style="fill:#F68C36;" cx="259.82" cy="78.65" rx="1.83" ry="1.52"/>
		
			<ellipse transform="matrix(0.8743 -0.4854 0.4854 0.8743 4.3338 146.3627)" style="fill:#F68C36;" cx="284.77" cy="64.81" rx="1.83" ry="1.52"/>
		
			<ellipse transform="matrix(0.8743 -0.4854 0.4854 0.8743 2.3784 144.2809)" style="fill:#F68C36;" cx="279.77" cy="67.55" rx="1.83" ry="1.52"/>
		
			<ellipse transform="matrix(0.8743 -0.4854 0.4854 0.8743 0.3812 142.2054)" style="fill:#F68C36;" cx="274.76" cy="70.37" rx="1.83" ry="1.52"/>
		
			<ellipse transform="matrix(0.8743 -0.4854 0.4854 0.8743 -16.3817 130.4592)" style="fill:#F68C36;" cx="243.7" cy="96.86" rx="1.83" ry="1.52"/>
		
			<ellipse transform="matrix(0.8743 -0.4854 0.4854 0.8743 -18.3371 128.3773)" style="fill:#F68C36;" cx="238.71" cy="99.59" rx="1.83" ry="1.52"/>
		
			<ellipse transform="matrix(0.8743 -0.4854 0.4854 0.8743 -20.3344 126.3018)" style="fill:#F68C36;" cx="233.7" cy="102.41" rx="1.83" ry="1.52"/>
		
			<ellipse transform="matrix(0.8743 -0.4854 0.4854 0.8743 -10.4846 136.6741)" style="fill:#F68C36;" cx="258.65" cy="88.58" rx="1.83" ry="1.52"/>
		
			<ellipse transform="matrix(0.8743 -0.4854 0.4854 0.8743 -12.4401 134.5923)" style="fill:#F68C36;" cx="253.65" cy="91.32" rx="1.83" ry="1.52"/>
		
			<ellipse transform="matrix(0.8743 -0.4854 0.4854 0.8743 -14.4373 132.5168)" style="fill:#F68C36;" cx="248.65" cy="94.13" rx="1.83" ry="1.52"/>
		
			<ellipse transform="matrix(0.8743 -0.4854 0.4854 0.8743 -4.4892 142.9297)" style="fill:#F68C36;" cx="273.73" cy="80.13" rx="1.83" ry="1.52"/>
		
			<ellipse transform="matrix(0.8743 -0.4854 0.4854 0.8743 -6.4446 140.8478)" style="fill:#F68C36;" cx="268.73" cy="82.87" rx="1.83" ry="1.52"/>
		
			<ellipse transform="matrix(0.8743 -0.4854 0.4854 0.8743 -8.4418 138.7724)" style="fill:#F68C36;" cx="263.72" cy="85.69" rx="1.83" ry="1.52"/>
		
			<ellipse transform="matrix(0.8743 -0.4854 0.4854 0.8743 1.4079 149.1446)" style="fill:#F68C36;" cx="288.68" cy="71.85" rx="1.83" ry="1.52"/>
		
			<ellipse transform="matrix(0.8743 -0.4854 0.4854 0.8743 -0.5475 147.0628)" style="fill:#F68C36;" cx="283.68" cy="74.59" rx="1.83" ry="1.52"/>
		
			<ellipse transform="matrix(0.8743 -0.4854 0.4854 0.8743 -2.5447 144.9873)" style="fill:#F68C36;" cx="278.67" cy="77.41" rx="1.83" ry="1.52"/>
		
			<ellipse transform="matrix(0.8743 -0.4854 0.4854 0.8743 -18.9734 132.9233)" style="fill:#F68C36;" cx="247.17" cy="103.1" rx="1.83" ry="1.52"/>
		
			<ellipse transform="matrix(0.8743 -0.4854 0.4854 0.8743 -20.9289 130.8414)" style="fill:#F68C36;" cx="242.17" cy="105.83" rx="1.83" ry="1.52"/>
		
			<ellipse transform="matrix(0.8743 -0.4854 0.4854 0.8743 -22.9261 128.766)" style="fill:#F68C36;" cx="237.16" cy="108.65" rx="1.83" ry="1.52"/>
		
			<ellipse transform="matrix(0.8743 -0.4854 0.4854 0.8743 -13.0763 139.1383)" style="fill:#F68C36;" cx="262.11" cy="94.82" rx="1.83" ry="1.52"/>
		
			<ellipse transform="matrix(0.8743 -0.4854 0.4854 0.8743 -15.0318 137.0564)" style="fill:#F68C36;" cx="257.12" cy="97.55" rx="1.83" ry="1.52"/>
		
			<ellipse transform="matrix(0.8743 -0.4854 0.4854 0.8743 -17.029 134.981)" style="fill:#F68C36;" cx="252.11" cy="100.37" rx="1.83" ry="1.52"/>
		
			<ellipse transform="matrix(0.8743 -0.4854 0.4854 0.8743 -7.0809 145.3938)" style="fill:#F68C36;" cx="277.19" cy="86.37" rx="1.83" ry="1.52"/>
		
			<ellipse transform="matrix(0.8743 -0.4854 0.4854 0.8743 -9.0363 143.312)" style="fill:#F68C36;" cx="272.19" cy="89.1" rx="1.83" ry="1.52"/>
		
			<ellipse transform="matrix(0.8743 -0.4854 0.4854 0.8743 -11.0335 141.2365)" style="fill:#F68C36;" cx="267.19" cy="91.92" rx="1.83" ry="1.52"/>
		
			<ellipse transform="matrix(0.8743 -0.4854 0.4854 0.8743 -1.1838 151.6088)" style="fill:#F68C36;" cx="292.14" cy="78.09" rx="1.83" ry="1.52"/>
		
			<ellipse transform="matrix(0.8743 -0.4854 0.4854 0.8743 -3.1392 149.5269)" style="fill:#F68C36;" cx="287.14" cy="80.82" rx="1.83" ry="1.52"/>
		
			<ellipse transform="matrix(0.8743 -0.4854 0.4854 0.8743 -5.1365 147.4515)" style="fill:#F68C36;" cx="282.14" cy="83.64" rx="1.83" ry="1.52"/>
		
			<ellipse transform="matrix(0.8743 -0.4854 0.4854 0.8743 -21.7741 135.5861)" style="fill:#F68C36;" cx="250.91" cy="109.84" rx="1.83" ry="1.52"/>
		
			<ellipse transform="matrix(0.8743 -0.4854 0.4854 0.8743 -23.7295 133.5042)" style="fill:#F68C36;" cx="245.91" cy="112.57" rx="1.83" ry="1.52"/>
		
			<ellipse transform="matrix(0.8743 -0.4854 0.4854 0.8743 -25.7267 131.4288)" style="fill:#F68C36;" cx="240.9" cy="115.39" rx="1.83" ry="1.52"/>
		
			<ellipse transform="matrix(0.8743 -0.4854 0.4854 0.8743 -15.877 141.8011)" style="fill:#F68C36;" cx="265.85" cy="101.56" rx="1.83" ry="1.52"/>
		
			<ellipse transform="matrix(0.8743 -0.4854 0.4854 0.8743 -17.8324 139.7192)" style="fill:#F68C36;" cx="260.86" cy="104.29" rx="1.83" ry="1.52"/>
		
			<ellipse transform="matrix(0.8743 -0.4854 0.4854 0.8743 -19.8296 137.6438)" style="fill:#F68C36;" cx="255.85" cy="107.11" rx="1.83" ry="1.52"/>
		
			<ellipse transform="matrix(0.8743 -0.4854 0.4854 0.8743 -9.8815 148.0566)" style="fill:#F68C36;" cx="280.93" cy="93.11" rx="1.83" ry="1.52"/>
		
			<ellipse transform="matrix(0.8743 -0.4854 0.4854 0.8743 -11.837 145.9748)" style="fill:#F68C36;" cx="275.93" cy="95.84" rx="1.83" ry="1.52"/>
		
			<ellipse transform="matrix(0.8743 -0.4854 0.4854 0.8743 -13.8342 143.8993)" style="fill:#F68C36;" cx="270.93" cy="98.66" rx="1.83" ry="1.52"/>
		
			<ellipse transform="matrix(0.8743 -0.4854 0.4854 0.8743 -3.9844 154.2716)" style="fill:#F68C36;" cx="295.88" cy="84.83" rx="1.83" ry="1.52"/>
		
			<ellipse transform="matrix(0.8743 -0.4854 0.4854 0.8743 -5.9399 152.1897)" style="fill:#F68C36;" cx="290.88" cy="87.56" rx="1.83" ry="1.52"/>
		
			<ellipse transform="matrix(0.8743 -0.4854 0.4854 0.8743 -7.9371 150.1143)" style="fill:#F68C36;" cx="285.88" cy="90.38" rx="1.83" ry="1.52"/>
		
			<ellipse transform="matrix(0.8743 -0.4854 0.4854 0.8743 -24.3658 138.0502)" style="fill:#F68C36;" cx="254.37" cy="116.07" rx="1.83" ry="1.52"/>
		
			<ellipse transform="matrix(0.8743 -0.4854 0.4854 0.8743 -26.3212 135.9684)" style="fill:#F68C36;" cx="249.37" cy="118.81" rx="1.83" ry="1.52"/>
		
			<ellipse transform="matrix(0.8743 -0.4854 0.4854 0.8743 -28.3184 133.8929)" style="fill:#F68C36;" cx="244.36" cy="121.62" rx="1.83" ry="1.52"/>
		
			<ellipse transform="matrix(0.8743 -0.4854 0.4854 0.8743 -18.4687 144.2652)" style="fill:#F68C36;" cx="269.32" cy="107.79" rx="1.83" ry="1.52"/>
		
			<ellipse transform="matrix(0.8743 -0.4854 0.4854 0.8743 -20.4241 142.1833)" style="fill:#F68C36;" cx="264.32" cy="110.53" rx="1.83" ry="1.52"/>
		
			<ellipse transform="matrix(0.8743 -0.4854 0.4854 0.8743 -22.4214 140.1079)" style="fill:#F68C36;" cx="259.31" cy="113.35" rx="1.83" ry="1.52"/>
		
			<ellipse transform="matrix(0.8743 -0.4854 0.4854 0.8743 -12.4732 150.5207)" style="fill:#F68C36;" cx="284.39" cy="99.34" rx="1.83" ry="1.52"/>
		
			<ellipse transform="matrix(0.8743 -0.4854 0.4854 0.8743 -14.4287 148.4389)" style="fill:#F68C36;" cx="279.4" cy="102.08" rx="1.83" ry="1.52"/>
		
			<ellipse transform="matrix(0.8743 -0.4854 0.4854 0.8743 -16.4259 146.3634)" style="fill:#F68C36;" cx="274.39" cy="104.9" rx="1.83" ry="1.52"/>
		
			<ellipse transform="matrix(0.8743 -0.4854 0.4854 0.8743 -6.5761 156.7357)" style="fill:#F68C36;" cx="299.34" cy="91.07" rx="1.83" ry="1.52"/>
		
			<ellipse transform="matrix(0.8743 -0.4854 0.4854 0.8743 -8.5316 154.6539)" style="fill:#F68C36;" cx="294.34" cy="93.8" rx="1.83" ry="1.52"/>
		
			<ellipse transform="matrix(0.8743 -0.4854 0.4854 0.8743 -10.5288 152.5784)" style="fill:#F68C36;" cx="289.34" cy="96.62" rx="1.83" ry="1.52"/>
		
			<ellipse transform="matrix(0.8743 -0.4854 0.4854 0.8743 -27.2917 140.8321)" style="fill:#F68C36;" cx="258.28" cy="123.11" rx="1.83" ry="1.52"/>
		
			<ellipse transform="matrix(0.8743 -0.4854 0.4854 0.8743 -29.2471 138.7503)" style="fill:#F68C36;" cx="253.28" cy="125.85" rx="1.83" ry="1.52"/>
		
			<ellipse transform="matrix(0.8743 -0.4854 0.4854 0.8743 -31.2444 136.6748)" style="fill:#F68C36;" cx="248.27" cy="128.66" rx="1.83" ry="1.52"/>
		
			<ellipse transform="matrix(0.8743 -0.4854 0.4854 0.8743 -21.3946 147.0471)" style="fill:#F68C36;" cx="273.23" cy="114.83" rx="1.83" ry="1.52"/>
		
			<ellipse transform="matrix(0.8743 -0.4854 0.4854 0.8743 -23.35 144.9652)" style="fill:#F68C36;" cx="268.23" cy="117.57" rx="1.83" ry="1.52"/>
		
			<ellipse transform="matrix(0.8743 -0.4854 0.4854 0.8743 -25.3473 142.8898)" style="fill:#F68C36;" cx="263.22" cy="120.39" rx="1.83" ry="1.52"/>
		
			<ellipse transform="matrix(0.8743 -0.4854 0.4854 0.8743 -15.3991 153.3026)" style="fill:#F68C36;" cx="288.3" cy="106.38" rx="1.83" ry="1.52"/>
		
			<ellipse transform="matrix(0.8743 -0.4854 0.4854 0.8743 -17.3546 151.2208)" style="fill:#F68C36;" cx="283.3" cy="109.12" rx="1.83" ry="1.52"/>
		
			<ellipse transform="matrix(0.8743 -0.4854 0.4854 0.8743 -19.3518 149.1453)" style="fill:#F68C36;" cx="278.3" cy="111.94" rx="1.83" ry="1.52"/>
		
			<ellipse transform="matrix(0.8743 -0.4854 0.4854 0.8743 -9.5021 159.5176)" style="fill:#F68C36;" cx="303.25" cy="98.11" rx="1.83" ry="1.52"/>
		
			<ellipse transform="matrix(0.8743 -0.4854 0.4854 0.8743 -11.4575 157.4357)" style="fill:#F68C36;" cx="298.25" cy="100.84" rx="1.83" ry="1.52"/>
		
			<ellipse transform="matrix(0.8743 -0.4854 0.4854 0.8743 -13.4547 155.3603)" style="fill:#F68C36;" cx="293.25" cy="103.66" rx="1.83" ry="1.52"/>
		
			<ellipse transform="matrix(0.8743 -0.4854 0.4854 0.8743 -29.8834 143.2962)" style="fill:#F68C36;" cx="261.74" cy="129.35" rx="1.83" ry="1.52"/>
		
			<ellipse transform="matrix(0.8743 -0.4854 0.4854 0.8743 -31.8388 141.2144)" style="fill:#F68C36;" cx="256.74" cy="132.08" rx="1.83" ry="1.52"/>
		
			<ellipse transform="matrix(0.8743 -0.4854 0.4854 0.8743 -33.8361 139.1389)" style="fill:#F68C36;" cx="251.74" cy="134.9" rx="1.83" ry="1.52"/>
		
			<ellipse transform="matrix(0.8743 -0.4854 0.4854 0.8743 -23.9863 149.5112)" style="fill:#F68C36;" cx="276.69" cy="121.07" rx="1.83" ry="1.52"/>
		
			<ellipse transform="matrix(0.8743 -0.4854 0.4854 0.8743 -25.9418 147.4294)" style="fill:#F68C36;" cx="271.69" cy="123.8" rx="1.83" ry="1.52"/>
		
			<ellipse transform="matrix(0.8743 -0.4854 0.4854 0.8743 -27.939 145.3539)" style="fill:#F68C36;" cx="266.68" cy="126.62" rx="1.83" ry="1.52"/>
		
			<ellipse transform="matrix(0.8743 -0.4854 0.4854 0.8743 -17.9909 155.7668)" style="fill:#F68C36;" cx="291.76" cy="112.62" rx="1.83" ry="1.52"/>
		
			<ellipse transform="matrix(0.8743 -0.4854 0.4854 0.8743 -19.9463 153.6849)" style="fill:#F68C36;" cx="286.77" cy="115.36" rx="1.83" ry="1.52"/>
		
			<ellipse transform="matrix(0.8743 -0.4854 0.4854 0.8743 -21.9435 151.6095)" style="fill:#F68C36;" cx="281.76" cy="118.17" rx="1.83" ry="1.52"/>
		
			<ellipse transform="matrix(0.8743 -0.4854 0.4854 0.8743 -12.0938 161.9817)" style="fill:#F68C36;" cx="306.71" cy="104.34" rx="1.83" ry="1.52"/>
		
			<ellipse transform="matrix(0.8743 -0.4854 0.4854 0.8743 -14.0492 159.8999)" style="fill:#F68C36;" cx="301.71" cy="107.08" rx="1.83" ry="1.52"/>
		
			<ellipse transform="matrix(0.8743 -0.4854 0.4854 0.8743 -16.0464 157.8244)" style="fill:#F68C36;" cx="296.71" cy="109.9" rx="1.83" ry="1.52"/>
		
			<ellipse transform="matrix(0.8743 -0.4854 0.4854 0.8743 -32.788 146.0578)" style="fill:#F68C36;" cx="265.62" cy="136.34" rx="1.83" ry="1.52"/>
		
			<ellipse transform="matrix(0.8743 -0.4854 0.4854 0.8743 -34.7434 143.976)" style="fill:#F68C36;" cx="260.62" cy="139.07" rx="1.83" ry="1.52"/>
		
			<ellipse transform="matrix(0.8743 -0.4854 0.4854 0.8743 -36.7406 141.9005)" style="fill:#F68C36;" cx="255.62" cy="141.89" rx="1.83" ry="1.52"/>
		
			<ellipse transform="matrix(0.8743 -0.4854 0.4854 0.8743 -26.8909 152.2728)" style="fill:#F68C36;" cx="280.57" cy="128.06" rx="1.83" ry="1.52"/>
		
			<ellipse transform="matrix(0.8743 -0.4854 0.4854 0.8743 -28.8463 150.191)" style="fill:#F68C36;" cx="275.57" cy="130.79" rx="1.83" ry="1.52"/>
		
			<ellipse transform="matrix(0.8743 -0.4854 0.4854 0.8743 -30.8435 148.1155)" style="fill:#F68C36;" cx="270.56" cy="133.61" rx="1.83" ry="1.52"/>
		
			<ellipse transform="matrix(0.8743 -0.4854 0.4854 0.8743 -20.8954 158.5283)" style="fill:#F68C36;" cx="295.64" cy="119.61" rx="1.83" ry="1.52"/>
		
			<ellipse transform="matrix(0.8743 -0.4854 0.4854 0.8743 -22.8509 156.4465)" style="fill:#F68C36;" cx="290.65" cy="122.34" rx="1.83" ry="1.52"/>
		
			<ellipse transform="matrix(0.8743 -0.4854 0.4854 0.8743 -24.8481 154.371)" style="fill:#F68C36;" cx="285.64" cy="125.16" rx="1.83" ry="1.52"/>
		
			<ellipse transform="matrix(0.8743 -0.4854 0.4854 0.8743 -14.9983 164.7433)" style="fill:#F68C36;" cx="310.59" cy="111.33" rx="1.83" ry="1.52"/>
		
			<ellipse transform="matrix(0.8743 -0.4854 0.4854 0.8743 -16.9538 162.6615)" style="fill:#F68C36;" cx="305.59" cy="114.07" rx="1.83" ry="1.52"/>
		
			<ellipse transform="matrix(0.8743 -0.4854 0.4854 0.8743 -18.951 160.586)" style="fill:#F68C36;" cx="300.59" cy="116.88" rx="1.83" ry="1.52"/>
		
			<ellipse transform="matrix(0.8743 -0.4854 0.4854 0.8743 -35.3797 148.522)" style="fill:#F68C36;" cx="269.08" cy="142.57" rx="1.83" ry="1.52"/>
		
			<ellipse transform="matrix(0.8743 -0.4854 0.4854 0.8743 -37.3351 146.4401)" style="fill:#F68C36;" cx="264.08" cy="145.31" rx="1.83" ry="1.52"/>
		
			<ellipse transform="matrix(0.8743 -0.4854 0.4854 0.8743 -39.3323 144.3647)" style="fill:#F68C36;" cx="259.08" cy="148.13" rx="1.83" ry="1.52"/>
		
			<ellipse transform="matrix(0.8743 -0.4854 0.4854 0.8743 -29.4826 154.7369)" style="fill:#F68C36;" cx="284.03" cy="134.29" rx="1.83" ry="1.52"/>
		
			<ellipse transform="matrix(0.8743 -0.4854 0.4854 0.8743 -31.438 152.6551)" style="fill:#F68C36;" cx="279.03" cy="137.03" rx="1.83" ry="1.52"/>
		
			<ellipse transform="matrix(0.8743 -0.4854 0.4854 0.8743 -33.4352 150.5796)" style="fill:#F68C36;" cx="274.03" cy="139.85" rx="1.83" ry="1.52"/>
		
			<ellipse transform="matrix(0.8743 -0.4854 0.4854 0.8743 -23.4871 160.9925)" style="fill:#F68C36;" cx="299.11" cy="125.85" rx="1.83" ry="1.52"/>
		
			<ellipse transform="matrix(0.8743 -0.4854 0.4854 0.8743 -25.4426 158.9106)" style="fill:#F68C36;" cx="294.11" cy="128.58" rx="1.83" ry="1.52"/>
		
			<ellipse transform="matrix(0.8743 -0.4854 0.4854 0.8743 -27.4398 156.8352)" style="fill:#F68C36;" cx="289.1" cy="131.4" rx="1.83" ry="1.52"/>
		
			<ellipse transform="matrix(0.8743 -0.4854 0.4854 0.8743 -17.59 167.2074)" style="fill:#F68C36;" cx="314.05" cy="117.57" rx="1.83" ry="1.52"/>
		
			<ellipse transform="matrix(0.8743 -0.4854 0.4854 0.8743 -19.5455 165.1256)" style="fill:#F68C36;" cx="309.06" cy="120.3" rx="1.83" ry="1.52"/>
		
			<ellipse transform="matrix(0.8743 -0.4854 0.4854 0.8743 -21.5427 163.0501)" style="fill:#F68C36;" cx="304.05" cy="123.12" rx="1.83" ry="1.52"/>
		
			<ellipse transform="matrix(0.8743 -0.4854 0.4854 0.8743 -38.3056 151.3038)" style="fill:#F68C36;" cx="272.99" cy="149.61" rx="1.83" ry="1.52"/>
		
			<ellipse transform="matrix(0.8743 -0.4854 0.4854 0.8743 -40.261 149.222)" style="fill:#F68C36;" cx="267.99" cy="152.35" rx="1.83" ry="1.52"/>
		
			<ellipse transform="matrix(0.8743 -0.4854 0.4854 0.8743 -42.2583 147.1465)" style="fill:#F68C36;" cx="262.99" cy="155.17" rx="1.83" ry="1.52"/>
		
			<ellipse transform="matrix(0.8743 -0.4854 0.4854 0.8743 -32.4085 157.5188)" style="fill:#F68C36;" cx="287.94" cy="141.33" rx="1.83" ry="1.52"/>
		
			<ellipse transform="matrix(0.8743 -0.4854 0.4854 0.8743 -34.3639 155.437)" style="fill:#F68C36;" cx="282.94" cy="144.07" rx="1.83" ry="1.52"/>
		
			<ellipse transform="matrix(0.8743 -0.4854 0.4854 0.8743 -36.3612 153.3615)" style="fill:#F68C36;" cx="277.93" cy="146.89" rx="1.83" ry="1.52"/>
		
			<ellipse transform="matrix(0.8743 -0.4854 0.4854 0.8743 -26.413 163.7744)" style="fill:#F68C36;" cx="303.01" cy="132.89" rx="1.83" ry="1.52"/>
		
			<ellipse transform="matrix(0.8743 -0.4854 0.4854 0.8743 -28.3685 161.6925)" style="fill:#F68C36;" cx="298.02" cy="135.62" rx="1.83" ry="1.52"/>
		
			<ellipse transform="matrix(0.8743 -0.4854 0.4854 0.8743 -30.3657 159.6171)" style="fill:#F68C36;" cx="293.01" cy="138.44" rx="1.83" ry="1.52"/>
		
			<ellipse transform="matrix(0.8743 -0.4854 0.4854 0.8743 -20.516 169.9893)" style="fill:#F68C36;" cx="317.96" cy="124.61" rx="1.83" ry="1.52"/>
		
			<ellipse transform="matrix(0.8743 -0.4854 0.4854 0.8743 -22.4714 167.9075)" style="fill:#F68C36;" cx="312.96" cy="127.34" rx="1.83" ry="1.52"/>
		
			<ellipse transform="matrix(0.8743 -0.4854 0.4854 0.8743 -24.4686 165.832)" style="fill:#F68C36;" cx="307.96" cy="130.16" rx="1.83" ry="1.52"/>
		
			<ellipse transform="matrix(0.8743 -0.4854 0.4854 0.8743 -40.8973 153.768)" style="fill:#F68C36;" cx="276.45" cy="155.85" rx="1.83" ry="1.52"/>
		
			<ellipse transform="matrix(0.8743 -0.4854 0.4854 0.8743 -42.8527 151.6861)" style="fill:#F68C36;" cx="271.45" cy="158.58" rx="1.83" ry="1.52"/>
		
			<ellipse transform="matrix(0.8743 -0.4854 0.4854 0.8743 -44.85 149.6107)" style="fill:#F68C36;" cx="266.45" cy="161.4" rx="1.83" ry="1.52"/>
		
			<ellipse transform="matrix(0.8743 -0.4854 0.4854 0.8743 -35.0002 159.983)" style="fill:#F68C36;" cx="291.4" cy="147.57" rx="1.83" ry="1.52"/>
		
			<ellipse transform="matrix(0.8743 -0.4854 0.4854 0.8743 -36.9557 157.9011)" style="fill:#F68C36;" cx="286.4" cy="150.31" rx="1.83" ry="1.52"/>
		
			<ellipse transform="matrix(0.8743 -0.4854 0.4854 0.8743 -38.9529 155.8257)" style="fill:#F68C36;" cx="281.4" cy="153.12" rx="1.83" ry="1.52"/>
		
			<ellipse transform="matrix(0.8743 -0.4854 0.4854 0.8743 -29.0048 166.2385)" style="fill:#F68C36;" cx="306.48" cy="139.12" rx="1.83" ry="1.52"/>
		
			<ellipse transform="matrix(0.8743 -0.4854 0.4854 0.8743 -30.9602 164.1567)" style="fill:#F68C36;" cx="301.48" cy="141.86" rx="1.83" ry="1.52"/>
		
			<ellipse transform="matrix(0.8743 -0.4854 0.4854 0.8743 -32.9574 162.0812)" style="fill:#F68C36;" cx="296.47" cy="144.68" rx="1.83" ry="1.52"/>
		
			<ellipse transform="matrix(0.8743 -0.4854 0.4854 0.8743 -23.1077 172.4535)" style="fill:#F68C36;" cx="321.42" cy="130.84" rx="1.83" ry="1.52"/>
		
			<ellipse transform="matrix(0.8743 -0.4854 0.4854 0.8743 -25.0631 170.3716)" style="fill:#F68C36;" cx="316.43" cy="133.58" rx="1.83" ry="1.52"/>
		
			<ellipse transform="matrix(0.8743 -0.4854 0.4854 0.8743 -27.0603 168.2962)" style="fill:#F68C36;" cx="311.42" cy="136.4" rx="1.83" ry="1.52"/>
		
			<ellipse transform="matrix(0.8743 -0.4854 0.4854 0.8743 21.7642 137.4598)" style="fill:#F68C36;" cx="276.29" cy="26.71" rx="1.83" ry="1.52"/>
		
			<ellipse transform="matrix(0.8743 -0.4854 0.4854 0.8743 19.8088 135.3779)" style="fill:#F68C36;" cx="271.3" cy="29.44" rx="1.83" ry="1.52"/>
		
			<ellipse transform="matrix(0.8743 -0.4854 0.4854 0.8743 19.1725 139.9239)" style="fill:#F68C36;" cx="279.76" cy="32.94" rx="1.83" ry="1.52"/>
		
			<ellipse transform="matrix(0.8743 -0.4854 0.4854 0.8743 17.2171 137.8421)" style="fill:#F68C36;" cx="274.76" cy="35.68" rx="1.83" ry="1.52"/>
		
			<ellipse transform="matrix(0.8743 -0.4854 0.4854 0.8743 16.2466 142.7058)" style="fill:#F68C36;" cx="283.66" cy="39.98" rx="1.83" ry="1.52"/>
		
			<ellipse transform="matrix(0.8743 -0.4854 0.4854 0.8743 14.2912 140.624)" style="fill:#F68C36;" cx="278.67" cy="42.72" rx="1.83" ry="1.52"/>
		
			<ellipse transform="matrix(0.8743 -0.4854 0.4854 0.8743 13.6549 145.1699)" style="fill:#F68C36;" cx="287.13" cy="46.22" rx="1.83" ry="1.52"/>
		
			<ellipse transform="matrix(0.8743 -0.4854 0.4854 0.8743 11.6995 143.0881)" style="fill:#F68C36;" cx="282.13" cy="48.95" rx="1.83" ry="1.52"/>
		
			<ellipse transform="matrix(0.8743 -0.4854 0.4854 0.8743 10.7503 147.9315)" style="fill:#F68C36;" cx="291.01" cy="53.21" rx="1.83" ry="1.52"/>
		
			<ellipse transform="matrix(0.8743 -0.4854 0.4854 0.8743 8.7949 145.8497)" style="fill:#F68C36;" cx="286.01" cy="55.94" rx="1.83" ry="1.52"/>
		
			<ellipse transform="matrix(0.8743 -0.4854 0.4854 0.8743 8.1586 150.3957)" style="fill:#F68C36;" cx="294.47" cy="59.44" rx="1.83" ry="1.52"/>
		
			<ellipse transform="matrix(0.8743 -0.4854 0.4854 0.8743 6.2032 148.3138)" style="fill:#F68C36;" cx="289.47" cy="62.18" rx="1.83" ry="1.52"/>
		
			<ellipse transform="matrix(0.8743 -0.4854 0.4854 0.8743 5.2327 153.1776)" style="fill:#F68C36;" cx="298.38" cy="66.49" rx="1.83" ry="1.52"/>
		
			<ellipse transform="matrix(0.8743 -0.4854 0.4854 0.8743 3.2773 151.0957)" style="fill:#F68C36;" cx="293.38" cy="69.22" rx="1.83" ry="1.52"/>
		
			<ellipse transform="matrix(0.8743 -0.4854 0.4854 0.8743 2.641 155.6417)" style="fill:#F68C36;" cx="301.84" cy="72.72" rx="1.83" ry="1.52"/>
		
			<ellipse transform="matrix(0.8743 -0.4854 0.4854 0.8743 0.6856 153.5598)" style="fill:#F68C36;" cx="296.84" cy="75.46" rx="1.83" ry="1.52"/>
		
			<ellipse transform="matrix(0.8743 -0.4854 0.4854 0.8743 -0.1596 158.3045)" style="fill:#F68C36;" cx="305.58" cy="79.46" rx="1.83" ry="1.52"/>
		
			<ellipse transform="matrix(0.8743 -0.4854 0.4854 0.8743 -2.1151 156.2226)" style="fill:#F68C36;" cx="300.58" cy="82.2" rx="1.83" ry="1.52"/>
		
			<ellipse transform="matrix(0.8743 -0.4854 0.4854 0.8743 -2.7513 160.7686)" style="fill:#F68C36;" cx="309.04" cy="85.7" rx="1.83" ry="1.52"/>
		
			<ellipse transform="matrix(0.8743 -0.4854 0.4854 0.8743 -4.7068 158.6868)" style="fill:#F68C36;" cx="304.04" cy="88.43" rx="1.83" ry="1.52"/>
		
			<ellipse transform="matrix(0.8743 -0.4854 0.4854 0.8743 -5.6773 163.5505)" style="fill:#F68C36;" cx="312.95" cy="92.74" rx="1.83" ry="1.52"/>
		
			<ellipse transform="matrix(0.8743 -0.4854 0.4854 0.8743 -7.6327 161.4687)" style="fill:#F68C36;" cx="307.95" cy="95.47" rx="1.83" ry="1.52"/>
		
			<ellipse transform="matrix(0.8743 -0.4854 0.4854 0.8743 -8.269 166.0146)" style="fill:#F68C36;" cx="316.41" cy="98.97" rx="1.83" ry="1.52"/>
		
			<ellipse transform="matrix(0.8743 -0.4854 0.4854 0.8743 -10.2244 163.9328)" style="fill:#F68C36;" cx="311.41" cy="101.71" rx="1.83" ry="1.52"/>
		
			<ellipse transform="matrix(0.8743 -0.4854 0.4854 0.8743 -11.1735 168.7762)" style="fill:#F68C36;" cx="320.29" cy="105.96" rx="1.83" ry="1.52"/>
		
			<ellipse transform="matrix(0.8743 -0.4854 0.4854 0.8743 -13.129 166.6944)" style="fill:#F68C36;" cx="315.29" cy="108.7" rx="1.83" ry="1.52"/>
		
			<ellipse transform="matrix(0.8743 -0.4854 0.4854 0.8743 -13.7652 171.2404)" style="fill:#F68C36;" cx="323.75" cy="112.2" rx="1.83" ry="1.52"/>
		
			<ellipse transform="matrix(0.8743 -0.4854 0.4854 0.8743 -15.7207 169.1585)" style="fill:#F68C36;" cx="318.76" cy="114.93" rx="1.83" ry="1.52"/>
		
			<ellipse transform="matrix(0.8743 -0.4854 0.4854 0.8743 -16.6912 174.0222)" style="fill:#F68C36;" cx="327.66" cy="119.24" rx="1.83" ry="1.52"/>
		
			<ellipse transform="matrix(0.8743 -0.4854 0.4854 0.8743 -18.6466 171.9404)" style="fill:#F68C36;" cx="322.66" cy="121.97" rx="1.83" ry="1.52"/>
		
			<ellipse transform="matrix(0.8743 -0.4854 0.4854 0.8743 -19.2829 176.4864)" style="fill:#F68C36;" cx="331.12" cy="125.48" rx="1.83" ry="1.52"/>
		
			<ellipse transform="matrix(0.8743 -0.4854 0.4854 0.8743 -21.2383 174.4046)" style="fill:#F68C36;" cx="326.13" cy="128.21" rx="1.83" ry="1.52"/>
		
			<ellipse transform="matrix(0.8743 -0.4854 0.4854 0.8743 -33.192 134.5635)" style="fill:#F68C36;" cx="243.22" cy="131.37" rx="1.83" ry="1.52"/>
		
			<ellipse transform="matrix(0.8743 -0.4854 0.4854 0.8743 -35.3764 132.3414)" style="fill:#F68C36;" cx="237.84" cy="134.48" rx="1.83" ry="1.52"/>
		
			<ellipse transform="matrix(0.8743 -0.4854 0.4854 0.8743 -24.8442 126.648)" style="fill:#F68C36;" cx="232.11" cy="111.29" rx="1.83" ry="1.52"/>
		
			<ellipse transform="matrix(0.8743 -0.4854 0.4854 0.8743 -27.0286 124.4259)" style="fill:#F68C36;" cx="226.73" cy="114.4" rx="1.83" ry="1.52"/>
		
			<ellipse transform="matrix(0.8743 -0.4854 0.4854 0.8743 -19.1999 121.6207)" style="fill:#F68C36;" cx="225.23" cy="97.88" rx="1.83" ry="1.52"/>
		
			<ellipse transform="matrix(0.8743 -0.4854 0.4854 0.8743 -13.608 116.4164)" style="fill:#F68C36;" cx="217.98" cy="84.48" rx="1.83" ry="1.52"/>
		
			<ellipse transform="matrix(0.8743 -0.4854 0.4854 0.8743 -15.7925 114.1943)" style="fill:#F68C36;" cx="212.59" cy="87.59" rx="1.83" ry="1.52"/>
		
			<ellipse transform="matrix(0.8743 -0.4854 0.4854 0.8743 -26.0322 173.8235)" style="fill:#F68C36;" cx="322.61" cy="137.18" rx="1.83" ry="1.52"/>
	</g>
	<g>
		<path style="fill:#F68B37;" d="M205.36,127.24c15.46-28.29,46.52-85.44,62.08-113.69c0,0,0.91-1.66,0.91-1.66s0.96,1.64,0.96,1.64
			c27.38,46.85,82.2,141.05,109.33,188.01c27.98,48.26,82.49,142.71,110.2,191.13c-42.48-0.06-124.62-0.28-167.09-0.57
			c-47.58,0.11-115.73-0.98-163.96-1.25c0,0,81.98-0.74,81.98-0.74c75.7-0.5,169.82-1.03,245.94-1.07c0,0-1.57,2.71-1.57,2.71
			s-54.49-94.11-54.49-94.11C381.33,213.7,315.33,98.81,267.45,14.61c0,0,1.87-0.01,1.87-0.01
			C253.47,42.77,221.32,99.14,205.36,127.24L205.36,127.24z"/>
	</g>
	<g>
		<path style="fill:#3498AC;" d="M246.51,1.21c-47.63,83.21-108.71,187.94-157.53,271c-17.64,30.03-35.2,60.11-52.99,90.05
			c0,0-1.66-2.91-1.66-2.91s86.16,0.16,86.16,0.16c82.15,0.17,176.45,0.77,258.48,1.77c-110.85,1.42-233.55,1.78-344.64,1.93
			c0,0-3.37,0.01-3.37,0.01s1.71-2.92,1.71-2.92C100.87,244.39,176.81,116.3,246.51,1.21L246.51,1.21z"/>
	</g>
	<g>
		<g>
			<g>
				<path style="fill:#FCD9D9;" d="M285.15,0.83L286.61,0l1.45,2.55l-1.46,0.83L285.15,0.83z M290.74,10.7l1.46-0.83l4.15,7.32
					l-1.46,0.83L290.74,10.7z M299.04,25.35l1.46-0.83l4.15,7.32l-1.46,0.83L299.04,25.35z M307.33,39.99l1.46-0.83l4.15,7.32
					l-1.46,0.83L307.33,39.99z M315.63,54.64l1.46-0.83l4.15,7.32l-1.46,0.83L315.63,54.64z M323.92,69.29l1.46-0.83l4.15,7.32
					l-1.46,0.83L323.92,69.29z M406.86,215.74l1.46-0.83l4.15,7.32l-1.46,0.83L406.86,215.74z M415.15,230.38l1.46-0.83l4.15,7.32
					l-1.46,0.83L415.15,230.38z M423.45,245.03l1.46-0.83l4.15,7.32l-1.46,0.83L423.45,245.03z M431.74,259.67l1.46-0.83l4.15,7.32
					l-1.46,0.83L431.74,259.67z M440.04,274.32l1.46-0.83l4.15,7.32l-1.46,0.83L440.04,274.32z M448.33,288.96l1.46-0.83l4.15,7.32
					l-1.46,0.83L448.33,288.96z M456.62,303.61l1.46-0.83l4.15,7.32l-1.46,0.83L456.62,303.61z M464.92,318.25l1.46-0.83l4.15,7.32
					l-1.46,0.83L464.92,318.25z M473.21,332.9l1.46-0.83l4.15,7.32l-1.46,0.83L473.21,332.9z M481.51,347.55l1.46-0.83l4.15,7.32
					l-1.46,0.83L481.51,347.55z M489.8,362.19l1.46-0.83l4.15,7.32l-1.46,0.83L489.8,362.19z M498.09,376.84l1.46-0.83l4.15,7.32
					l-1.46,0.83L498.09,376.84z M506.39,391.48l1.46-0.83l4.15,7.32l-1.46,0.83L506.39,391.48z"/>
			</g>
		</g>
	</g>
	<g>
		<path style="fill:#EE3D58;" d="M132.33,161.68h3.81c2.4,0,4.39,0.78,6.09,2.38c1.7,1.61,2.52,3.49,2.52,5.77v57.83h8.84
			c2.4,0,4.39,0.78,6.09,2.38s2.52,3.49,2.52,5.77v3.6h-23.37c-1.82,0-3.34-0.61-4.57-1.83c-1.29-1.16-1.93-2.61-1.93-4.33V161.68z"
			/>
		<path style="fill:#EE3D58;" d="M195.51,164.51c0,1.72-0.64,3.16-1.87,4.33c-1.29,1.16-2.81,1.77-4.57,1.77
			c-1.82,0-3.34-0.61-4.57-1.77c-1.29-1.16-1.93-2.61-1.93-4.33c0-1.72,0.64-3.16,1.93-4.38c1.23-1.16,2.75-1.77,4.57-1.77
			c1.76,0,3.28,0.61,4.57,1.77C194.87,161.35,195.51,162.79,195.51,164.51z M195.28,177.21v54.06c0,2.27-0.82,4.16-2.52,5.77
			c-1.7,1.61-3.75,2.38-6.15,2.38h-3.81v-54.01c0-2.27,0.88-4.21,2.58-5.82c1.7-1.61,3.69-2.38,6.09-2.38H195.28z"/>
		<path style="fill:#EE3D58;" d="M243.24,208.81h-4.98V197h17.57v42.42h-7.5l-1.99-2.83c-3.1,1.89-6.62,2.83-10.54,2.83
			c-5.45,0-10.13-1.83-14.06-5.49c-3.92-3.72-5.86-8.15-5.86-13.36v-39.98c0-5.21,1.93-9.65,5.86-13.31
			c3.92-3.72,8.61-5.54,14.06-5.54c5.5,0,10.19,1.83,14.06,5.54c3.92,3.66,5.86,8.1,5.86,13.31v4.71h-7.55
			c-1.35,0-2.52-0.44-3.46-1.33c-1-0.89-1.46-2-1.46-3.27c0-1.83-0.64-3.44-1.99-4.94c-1.46-1.5-3.28-2.22-5.45-2.22
			c-1.99,0-3.69,0.67-5.15,1.94c-1.58,1.39-2.34,3.11-2.34,5.1v39.98c0,1.94,0.76,3.6,2.23,4.99c1.46,1.39,3.22,2.11,5.27,2.11
			c2.11,0,3.92-0.78,5.45-2.27c1.35-1.44,1.99-3.1,1.99-4.93V208.81z"/>
		<path style="fill:#EE3D58;" d="M288.62,208.81v22.46c0,2.27-0.82,4.16-2.52,5.77c-1.7,1.61-3.69,2.38-6.09,2.38h-3.81v-77.74h3.81
			c2.4,0,4.39,0.78,6.09,2.38c1.7,1.61,2.52,3.49,2.52,5.77V197h14.93v-27.17c0-2.27,0.88-4.16,2.58-5.77
			c1.7-1.61,3.69-2.38,6.09-2.38h3.81v77.74h-3.81c-2.4,0-4.39-0.78-6.09-2.38c-1.7-1.61-2.58-3.49-2.58-5.77v-22.46H288.62z"/>
		<path style="fill:#EE3D58;" d="M373.7,161.68v11.76h-12.42v57.83c0,2.27-0.82,4.16-2.52,5.77c-1.7,1.61-3.69,2.38-6.09,2.38h-3.86
			v-65.99h-12.42v-11.76H373.7z"/>
	</g>
	<g>
		<g>
			<path style="fill:none;stroke:#3498AB;stroke-miterlimit:10;" d="M151.91,261.07l22.96,84.27h-6.8c-2.56,0-4.75-0.66-6.73-1.98
				c-1.97-1.26-3.22-2.95-3.8-5.05l-2.19-8.29h-23.83l-2.19,8.29c-0.58,2.1-1.83,3.79-3.8,5.05c-1.97,1.32-4.17,1.98-6.73,1.98h-6.8
				l22.95-84.27H151.91z M152.13,317.27l-8.7-33.54l-8.7,33.54H152.13z"/>
			<path style="fill:none;stroke:#3498AB;stroke-miterlimit:10;" d="M225.15,261.07c6.94,0,12.87,1.98,17.62,5.95
				c4.83,4.03,7.24,8.84,7.24,14.49v22.96c0,5.65-2.41,10.46-7.24,14.42c-0.66,0.54-1.32,1.02-2.12,1.5l9.94,24.94h-8.63
				c-4.82,0-8.26-2.1-10.38-6.37l-4.97-14.06h-10.82v11.6c0,2.46-1.02,4.51-3.14,6.25c-2.12,1.74-4.61,2.58-7.6,2.58h-4.75v-84.27
				H225.15z M225.15,312.16c2.56,0,4.75-0.78,6.58-2.28c1.83-1.5,2.7-3.31,2.7-5.41V281.5c0-2.1-0.88-3.91-2.63-5.41
				c-1.83-1.5-4.02-2.28-6.65-2.28h-9.36v38.35H225.15z"/>
			<path style="fill:none;stroke:#3498AB;stroke-miterlimit:10;" d="M276.01,261.07h40.35v3.91c0,2.46-1.02,4.51-3.14,6.25
				s-4.61,2.58-7.6,2.58h-14.11v25.54h18.64v3.91c0,2.46-1.02,4.51-3.14,6.25s-4.61,2.64-7.6,2.64h-7.89v20.44h14.11
				c3,0,5.48,0.84,7.6,2.58c2.12,1.74,3.14,3.79,3.14,6.25v3.91h-40.35V261.07z"/>
			<path style="fill:none;stroke:#3498AB;stroke-miterlimit:10;" d="M381.71,261.07l22.95,84.27h-6.8c-2.56,0-4.75-0.66-6.73-1.98
				c-1.97-1.26-3.22-2.95-3.8-5.05l-2.19-8.29h-23.83l-2.19,8.29c-0.58,2.1-1.83,3.79-3.8,5.05c-1.97,1.32-4.17,1.98-6.73,1.98h-6.8
				l22.96-84.27H381.71z M381.93,317.27l-8.7-33.54l-8.7,33.54H381.93z"/>
		</g>
		<g>
			<path style="fill:#191C33;" d="M158.96,258.04l22.96,84.27h-6.8c-2.56,0-4.75-0.66-6.73-1.98c-1.97-1.26-3.22-2.95-3.8-5.05
				l-2.19-8.29h-23.83l-2.19,8.29c-0.58,2.1-1.83,3.79-3.8,5.05c-1.97,1.32-4.17,1.98-6.73,1.98h-6.8L142,258.04H158.96z
				 M159.18,314.24l-8.7-33.54l-8.7,33.54H159.18z"/>
			<path style="fill:#191C33;" d="M232.2,258.04c6.94,0,12.87,1.98,17.62,5.95c4.83,4.03,7.24,8.84,7.24,14.49v22.96
				c0,5.65-2.41,10.46-7.24,14.42c-0.66,0.54-1.32,1.02-2.12,1.5l9.94,24.94h-8.63c-4.82,0-8.26-2.1-10.38-6.37l-4.97-14.06h-10.82
				v11.6c0,2.46-1.02,4.51-3.14,6.25c-2.12,1.74-4.61,2.58-7.6,2.58h-4.75v-84.27H232.2z M232.2,309.13c2.56,0,4.75-0.78,6.58-2.28
				c1.83-1.5,2.7-3.31,2.7-5.41v-22.96c0-2.1-0.88-3.91-2.63-5.41c-1.83-1.5-4.02-2.28-6.65-2.28h-9.36v38.35H232.2z"/>
			<path style="fill:#191C33;" d="M283.07,258.04h40.35v3.91c0,2.46-1.02,4.51-3.14,6.25s-4.61,2.58-7.6,2.58h-14.11v25.54h18.64
				v3.91c0,2.46-1.02,4.51-3.14,6.25s-4.61,2.64-7.6,2.64h-7.89v20.44h14.11c3,0,5.48,0.84,7.6,2.58c2.12,1.74,3.14,3.79,3.14,6.25
				v3.91h-40.35V258.04z"/>
			<path style="fill:#191C33;" d="M388.77,258.04l22.95,84.27h-6.8c-2.56,0-4.75-0.66-6.73-1.98c-1.97-1.26-3.22-2.95-3.8-5.05
				l-2.19-8.29h-23.83l-2.19,8.29c-0.58,2.1-1.83,3.79-3.8,5.05c-1.97,1.32-4.17,1.98-6.73,1.98h-6.8l22.96-84.27H388.77z
				 M388.99,314.24l-8.7-33.54l-8.7,33.54H388.99z"/>
		</g>
	</g>
</g>
</svg>
